<?xml version="1.0" encoding="iso-8859-1"?>
<!-- Generator: Adobe Illustrator 19.0.0, SVG Export Plug-In . SVG Version: 6.00 Build 0)  -->
<svg version="1.1" id="Layer_1" xmlns="http://www.w3.org/2000/svg" xmlns:xlink="http://www.w3.org/1999/xlink" x="0px" y="0px"
	 viewBox="0 0 512 512" style="enable-background:new 0 0 512 512;" xml:space="preserve">
<path style="fill:#959CB5;" d="M484.571,457.143H27.429C12.28,457.143,0,444.863,0,429.714V82.286
	c0-15.149,12.28-27.429,27.429-27.429h457.143c15.149,0,27.429,12.28,27.429,27.429v347.429
	C512,444.863,499.72,457.143,484.571,457.143z"/>
<path style="fill:#FFC850;" d="M429.714,429.714H82.286c-5.049,0-9.143-4.094-9.143-9.143V91.429c0-5.049,4.094-9.143,9.143-9.143
	h347.429c5.049,0,9.143,4.094,9.143,9.143v329.143C438.857,425.621,434.763,429.714,429.714,429.714z"/>
<path style="fill:#FFDC64;" d="M312.895,82.286h-113.79C125.998,106.221,73.143,174.893,73.143,256s52.855,149.778,125.962,173.714
	h113.79C386.002,405.778,438.857,337.107,438.857,256S386.002,106.221,312.895,82.286z"/>
<circle style="fill:#FFF082;" cx="256" cy="256" r="118.857"/>
<path style="fill:#5B5D6E;" d="M36.571,283.429c-5.054,0-9.143-4.094-9.143-9.143v-36.571c0-5.049,4.089-9.143,9.143-9.143
	s9.143,4.094,9.143,9.143v36.571C45.714,279.335,41.625,283.429,36.571,283.429z"/>
<path style="fill:#464655;" d="M36.661,320c-5.054,0-9.187-4.094-9.187-9.143c0-5.049,4.045-9.143,9.098-9.143h0.089
	c5.054,0,9.143,4.094,9.143,9.143C45.803,315.906,41.714,320,36.661,320z"/>
<path style="fill:#7F8499;" d="M475.429,283.429c-7.571,0-13.714-6.138-13.714-13.714v-27.429c0-7.576,6.143-13.714,13.714-13.714
	c7.571,0,13.714,6.138,13.714,13.714v27.429C489.143,277.29,483,283.429,475.429,283.429z"/>
<g>
	<path style="fill:#FFFFFF;" d="M256,164.571c-5.054,0-9.143-4.094-9.143-9.143v-36.571c0-5.049,4.089-9.143,9.143-9.143
		c5.054,0,9.143,4.094,9.143,9.143v36.571C265.143,160.478,261.054,164.571,256,164.571z"/>
	<path style="fill:#FFFFFF;" d="M210.295,164.571c-3.358,0-6.581-1.848-8.187-5.054l-9.143-18.286
		c-2.259-4.518-0.429-10.009,4.089-12.267c4.527-2.263,10-0.433,12.267,4.089l9.143,18.286c2.259,4.518,0.429,10.009-4.089,12.267
		C213.063,164.263,211.67,164.571,210.295,164.571z"/>
	<path style="fill:#FFFFFF;" d="M301.705,164.571c-1.375,0-2.768-0.309-4.08-0.965c-4.518-2.259-6.349-7.75-4.089-12.267
		l9.143-18.286c2.259-4.522,7.75-6.353,12.267-4.089c4.518,2.259,6.349,7.75,4.089,12.267l-9.143,18.286
		C308.286,162.723,305.063,164.571,301.705,164.571z"/>
</g>
<path style="fill:#FF507D;" d="M384,329.143H128c-10.099,0-18.286-8.186-18.286-18.286V201.143c0-10.099,8.186-18.286,18.286-18.286
	h256c10.099,0,18.286,8.186,18.286,18.286v109.714C402.286,320.957,394.099,329.143,384,329.143z"/>
<path style="fill:#D23C69;" d="M146.286,256v-73.143H128c-10.099,0-18.286,8.186-18.286,18.286v109.714
	c0,10.099,8.186,18.286,18.286,18.286h256c10.098,0,18.286-8.187,18.286-18.286H201.143
	C170.846,310.857,146.286,286.297,146.286,256z"/>
<g>
	<path style="fill:#FFFFFF;" d="M197.473,251.162c2.269-3.992,3.67-8.538,3.67-13.448c0-15.125-12.304-27.429-27.429-27.429h-27.429
		c-5.054,0-9.143,4.094-9.143,9.143v73.143c0,5.049,4.089,9.143,9.143,9.143h36.571c15.125,0,27.429-12.304,27.429-27.429
		C210.286,264.545,205.146,256.029,197.473,251.162z M155.429,228.571h18.286c5.045,0,9.143,4.103,9.143,9.143
		s-4.098,9.143-9.143,9.143h-18.286V228.571z M182.857,283.429h-27.429v-18.286h18.286h9.143c5.045,0,9.143,4.103,9.143,9.143
		S187.902,283.429,182.857,283.429z"/>
	<path style="fill:#FFFFFF;" d="M283.429,210.286c-5.054,0-9.143,4.094-9.143,9.143v45.714c0,10.085-8.206,18.286-18.286,18.286
		c-10.08,0-18.286-8.201-18.286-18.286v-45.714c0-5.049-4.089-9.143-9.143-9.143s-9.143,4.094-9.143,9.143v45.714
		c0,20.166,16.402,36.571,36.571,36.571c20.169,0,36.571-16.406,36.571-36.571v-45.714
		C292.571,214.379,288.482,210.286,283.429,210.286z"/>
	<path style="fill:#FFFFFF;" d="M370.419,211.59c-4.339-2.598-9.946-1.192-12.545,3.134l-19.589,32.647l-19.59-32.647
		c-2.598-4.326-8.206-5.733-12.545-3.134c-4.33,2.598-5.733,8.215-3.134,12.545l26.126,43.541v24.896
		c0,5.049,4.089,9.143,9.143,9.143s9.143-4.094,9.143-9.143v-24.896l26.125-43.542C376.152,219.803,374.75,214.187,370.419,211.59z"
		/>
	<path style="fill:#FFFFFF;" d="M256,347.429c5.054,0,9.143,4.094,9.143,9.143v36.571c0,5.049-4.089,9.143-9.143,9.143
		c-5.054,0-9.143-4.094-9.143-9.143v-36.571C246.857,351.522,250.946,347.429,256,347.429z"/>
	<path style="fill:#FFFFFF;" d="M301.705,347.429c3.358,0,6.581,1.848,8.187,5.054l9.143,18.286
		c2.259,4.518,0.429,10.009-4.089,12.267c-4.527,2.263-10,0.433-12.267-4.089l-9.143-18.286c-2.259-4.518-0.429-10.009,4.089-12.267
		C298.937,347.737,300.33,347.429,301.705,347.429z"/>
	<path style="fill:#FFFFFF;" d="M210.295,347.429c1.375,0,2.768,0.309,4.08,0.965c4.518,2.259,6.349,7.75,4.089,12.267
		l-9.143,18.286c-2.259,4.522-7.75,6.353-12.267,4.089c-4.518-2.259-6.349-7.75-4.089-12.267l9.143-18.286
		C203.714,349.277,206.937,347.429,210.295,347.429z"/>
</g>
<g>
</g>
<g>
</g>
<g>
</g>
<g>
</g>
<g>
</g>
<g>
</g>
<g>
</g>
<g>
</g>
<g>
</g>
<g>
</g>
<g>
</g>
<g>
</g>
<g>
</g>
<g>
</g>
<g>
</g>
</svg>
