<svg id="svg" version="1.1" xmlns="http://www.w3.org/2000/svg" xmlns:xlink="http://www.w3.org/1999/xlink" width="400" height="400" viewBox="0, 0, 400,400"><g id="svgg"><path id="path0" d="M200.000 194.567 C 200.000 211.379,200.109 225.419,200.243 225.767 C 200.458 226.329,202.208 226.400,215.843 226.400 L 231.200 226.400 231.200 257.795 L 231.200 289.191 215.700 289.295 L 200.200 289.400 200.107 320.528 L 200.014 351.655 238.307 351.419 C 259.368 351.289,277.920 351.088,279.533 350.972 C 285.980 350.508,291.106 346.393,292.995 340.166 C 293.511 338.464,293.592 330.687,293.596 282.300 L 293.600 226.400 262.395 226.400 L 231.190 226.400 231.295 195.200 L 231.400 164.000 215.700 164.000 L 200.000 164.000 200.000 194.567 " stroke="none" fill="#1f6c6c" fill-rule="evenodd"></path><path id="path1" d="M157.600 48.794 L 115.000 49.000 113.225 50.000 C 110.692 51.427,108.855 53.392,107.648 55.965 L 106.600 58.200 106.600 95.000 L 106.600 131.800 107.635 134.000 C 108.890 136.668,110.973 138.820,113.508 140.068 L 115.400 141.000 199.586 141.104 C 294.501 141.221,286.011 141.509,289.740 138.041 C 290.898 136.964,292.110 135.324,292.660 134.089 L 293.600 131.977 293.600 95.000 L 293.600 58.023 292.662 55.911 C 291.087 52.367,287.692 49.698,283.680 48.849 C 281.476 48.382,245.885 48.367,157.600 48.794 M118.355 164.580 C 112.232 166.269,108.177 170.552,106.852 176.731 C 106.223 179.665,106.207 335.211,106.836 338.610 C 107.719 343.388,111.179 347.950,115.301 349.773 C 119.400 351.586,121.041 351.648,161.707 351.520 L 200.015 351.400 200.107 320.400 L 200.200 289.400 215.700 289.295 L 231.200 289.191 231.200 257.795 L 231.200 226.400 262.400 226.400 L 293.600 226.400 293.600 201.660 C 293.600 184.982,293.459 176.476,293.166 175.560 C 291.198 169.392,286.595 165.327,280.529 164.399 C 278.803 164.135,269.272 164.022,254.600 164.091 L 231.400 164.200 231.298 195.300 L 231.195 226.400 215.840 226.400 C 202.208 226.400,200.458 226.329,200.243 225.767 C 200.109 225.419,200.000 211.379,200.000 194.567 L 200.000 164.000 160.100 164.036 C 129.136 164.064,119.787 164.185,118.355 164.580 " stroke="none" fill="#bef5f8" fill-rule="evenodd"></path><path id="path2" d="M200.400 23.996 L 200.400 48.000 242.300 48.006 C 274.510 48.011,284.525 48.126,285.605 48.506 C 287.994 49.346,290.653 51.268,291.643 52.869 C 292.163 53.711,292.726 54.400,292.894 54.400 C 293.062 54.400,293.200 54.724,293.200 55.120 C 293.200 55.516,293.425 56.065,293.700 56.340 C 294.093 56.733,294.200 65.023,294.200 95.087 C 294.200 125.328,294.095 133.368,293.700 133.500 C 293.425 133.592,293.200 134.102,293.200 134.633 C 293.200 135.165,293.020 135.600,292.800 135.600 C 292.580 135.600,292.400 135.788,292.400 136.017 C 292.400 136.862,289.526 139.507,287.487 140.538 L 285.389 141.600 242.894 141.600 L 200.400 141.600 200.400 152.334 L 200.400 163.069 223.500 163.334 C 236.205 163.480,254.557 163.599,264.281 163.600 C 276.462 163.600,282.310 163.740,283.081 164.051 C 288.461 166.217,293.200 170.882,293.200 174.012 C 293.200 174.445,293.380 174.800,293.600 174.800 C 293.865 174.800,294.000 202.592,294.000 257.376 C 294.000 311.996,293.865 340.036,293.600 340.200 C 293.380 340.336,293.200 340.887,293.200 341.424 C 293.200 341.961,293.020 342.400,292.800 342.400 C 292.580 342.400,292.400 342.760,292.400 343.200 C 292.400 343.640,292.220 344.000,292.000 344.000 C 291.780 344.000,291.600 344.239,291.600 344.532 C 291.600 345.431,287.573 349.191,285.634 350.103 C 281.602 351.999,282.455 351.964,240.300 351.982 L 200.400 352.000 200.400 376.014 L 200.400 400.028 256.700 399.914 C 301.478 399.823,312.980 399.698,312.900 399.300 C 312.841 399.004,313.218 398.800,313.824 398.800 C 314.404 398.800,314.740 398.973,314.600 399.200 C 314.464 399.420,314.531 399.600,314.749 399.600 C 314.968 399.600,315.260 399.240,315.400 398.800 C 315.542 398.353,316.005 398.000,316.451 398.000 C 316.889 398.000,317.136 398.180,317.000 398.400 C 316.864 398.620,316.931 398.800,317.149 398.800 C 317.368 398.800,317.660 398.440,317.800 398.000 C 318.080 397.118,319.417 396.910,319.735 397.700 C 319.846 397.975,319.951 397.795,319.968 397.300 C 320.001 396.363,321.014 396.042,321.293 396.880 C 321.392 397.175,321.557 397.090,321.722 396.659 C 321.883 396.240,321.832 396.057,321.595 396.203 C 321.378 396.337,321.200 396.257,321.200 396.024 C 321.200 395.791,321.571 395.600,322.024 395.600 C 322.477 395.600,322.736 395.780,322.600 396.000 C 322.464 396.220,322.556 396.400,322.803 396.400 C 323.072 396.400,323.151 396.077,323.000 395.600 C 322.796 394.956,322.927 394.801,323.673 394.806 C 324.437 394.811,324.495 394.887,324.000 395.237 C 323.467 395.614,323.467 395.642,324.000 395.489 C 324.330 395.394,324.547 395.021,324.482 394.659 C 324.418 394.296,324.553 394.000,324.782 394.000 C 325.012 394.000,325.200 394.180,325.200 394.400 C 325.200 394.620,325.380 394.800,325.600 394.800 C 325.820 394.800,326.000 394.522,326.000 394.182 C 326.000 393.842,326.442 393.122,326.982 392.582 C 327.958 391.605,328.657 391.261,328.217 391.973 C 327.915 392.461,330.444 391.203,331.129 390.524 C 331.419 390.236,331.500 390.000,331.309 390.000 C 331.117 390.000,330.744 390.216,330.480 390.480 C 330.190 390.770,330.000 390.795,330.000 390.545 C 330.000 390.317,330.810 389.371,331.800 388.443 C 332.790 387.515,333.600 386.924,333.600 387.129 C 333.600 387.334,333.326 387.730,332.990 388.008 C 332.655 388.286,332.466 388.600,332.571 388.705 C 332.832 388.966,334.000 387.759,334.000 387.229 C 334.000 386.993,334.180 386.800,334.400 386.800 C 334.620 386.800,334.800 386.536,334.800 386.213 C 334.800 385.826,334.561 385.709,334.100 385.872 C 333.710 386.009,334.068 385.416,334.908 384.534 C 335.738 383.662,336.293 382.826,336.141 382.675 C 335.990 382.524,336.347 382.400,336.933 382.400 C 337.733 382.400,338.000 382.200,338.000 381.600 C 338.000 381.160,338.203 380.800,338.450 380.800 C 338.737 380.800,338.813 380.364,338.660 379.600 C 338.525 378.923,338.590 378.400,338.810 378.400 C 339.024 378.400,339.204 378.625,339.209 378.900 C 339.217 379.349,339.925 377.980,340.812 375.800 C 341.424 374.296,341.621 372.800,341.208 372.800 C 340.983 372.800,340.800 372.440,340.800 372.000 C 340.800 371.560,341.059 371.200,341.376 371.200 C 341.693 371.200,342.081 370.992,342.238 370.738 C 342.415 370.452,342.348 370.385,342.062 370.562 C 341.180 371.107,341.508 367.843,342.400 367.200 C 342.840 366.883,343.197 366.348,343.194 366.012 C 343.188 365.471,343.143 365.469,342.800 366.000 C 342.549 366.388,342.420 307.695,342.434 200.000 C 342.447 106.723,342.608 33.752,342.800 34.200 C 343.103 34.906,343.147 34.915,343.172 34.283 C 343.187 33.889,342.840 33.180,342.400 32.708 C 341.528 31.772,341.234 28.927,342.062 29.438 C 342.348 29.615,342.415 29.548,342.238 29.262 C 342.081 29.008,341.693 28.800,341.376 28.800 C 341.059 28.800,340.800 28.440,340.800 28.000 C 340.800 27.560,340.983 27.200,341.208 27.200 C 341.621 27.200,341.424 25.704,340.812 24.200 C 339.833 21.795,339.217 20.680,339.209 21.300 C 339.204 21.685,339.012 22.000,338.782 22.000 C 338.529 22.000,338.444 21.406,338.566 20.500 C 338.678 19.675,338.673 19.315,338.555 19.700 C 338.198 20.869,337.488 20.508,337.769 19.300 C 337.935 18.583,337.898 18.389,337.662 18.743 C 337.428 19.093,337.209 19.138,337.043 18.870 C 336.902 18.642,336.953 18.353,337.156 18.227 C 337.608 17.948,337.237 16.382,336.556 15.700 C 335.795 14.937,335.394 15.104,336.077 15.900 C 337.007 16.983,337.278 18.005,336.562 17.730 C 336.234 17.604,336.066 17.400,336.190 17.277 C 336.313 17.154,335.828 16.448,335.112 15.709 C 334.108 14.674,333.933 14.289,334.347 14.033 C 334.747 13.786,334.765 13.625,334.416 13.410 C 334.158 13.250,333.854 13.212,333.741 13.325 C 333.396 13.671,330.802 10.553,330.768 9.752 C 330.751 9.330,330.648 9.219,330.535 9.500 C 330.205 10.319,329.657 10.067,329.884 9.200 C 330.079 8.455,329.510 8.155,328.286 8.357 C 327.766 8.443,326.000 6.482,326.000 5.818 C 326.000 5.478,325.820 5.200,325.600 5.200 C 325.380 5.200,325.200 5.380,325.200 5.600 C 325.200 5.820,325.001 6.000,324.757 6.000 C 324.514 6.000,324.412 5.745,324.532 5.433 C 324.652 5.121,324.482 4.763,324.154 4.638 C 323.818 4.509,323.665 4.581,323.803 4.805 C 323.937 5.022,323.754 5.200,323.397 5.200 C 322.928 5.200,322.817 4.976,323.000 4.400 C 323.191 3.799,323.073 3.602,322.527 3.606 C 321.911 3.611,321.892 3.672,322.400 4.000 C 322.882 4.312,322.818 4.389,322.073 4.394 C 321.327 4.399,321.196 4.244,321.400 3.600 C 321.551 3.123,321.472 2.800,321.203 2.800 C 320.956 2.800,320.864 2.980,321.000 3.200 C 321.136 3.420,320.956 3.600,320.600 3.600 C 320.244 3.600,320.042 3.456,320.150 3.281 C 320.258 3.105,320.182 2.700,319.980 2.381 C 319.728 1.982,319.610 1.957,319.606 2.300 C 319.603 2.575,319.240 2.800,318.800 2.800 C 318.360 2.800,318.000 2.620,318.000 2.400 C 318.000 2.180,317.325 1.986,316.500 1.968 C 315.675 1.951,315.223 1.847,315.496 1.736 C 315.877 1.582,315.861 1.404,315.425 0.968 C 314.795 0.338,314.228 0.198,314.574 0.758 C 314.696 0.955,314.555 1.208,314.261 1.321 C 313.674 1.547,312.769 1.113,312.666 0.555 C 312.630 0.360,312.330 0.253,312.000 0.318 C 311.670 0.383,310.950 0.410,310.400 0.379 C 309.850 0.347,284.875 0.247,254.900 0.156 L 200.400 -0.008 200.400 23.996 M64.069 15.239 C 63.328 16.424,63.657 16.513,64.519 15.361 C 64.914 14.832,65.092 14.400,64.915 14.400 C 64.738 14.400,64.357 14.778,64.069 15.239 M61.665 19.417 C 60.995 20.888,61.123 21.202,61.847 19.865 C 62.186 19.240,62.388 18.654,62.296 18.563 C 62.205 18.471,61.921 18.856,61.665 19.417 M340.000 23.000 C 340.000 23.330,339.820 23.600,339.600 23.600 C 339.380 23.600,339.200 23.330,339.200 23.000 C 339.200 22.670,339.380 22.400,339.600 22.400 C 339.820 22.400,340.000 22.670,340.000 23.000 M340.800 25.624 C 340.800 26.051,340.620 26.400,340.400 26.400 C 340.180 26.400,340.000 25.939,340.000 25.376 C 340.000 24.796,340.173 24.460,340.400 24.600 C 340.620 24.736,340.800 25.197,340.800 25.624 M340.800 374.600 C 340.800 375.150,340.620 375.600,340.400 375.600 C 339.953 375.600,339.852 374.282,340.267 373.867 C 340.708 373.426,340.800 373.553,340.800 374.600 M340.000 377.000 C 340.000 377.330,339.820 377.600,339.600 377.600 C 339.380 377.600,339.200 377.330,339.200 377.000 C 339.200 376.670,339.380 376.400,339.600 376.400 C 339.820 376.400,340.000 376.670,340.000 377.000 M338.234 380.100 C 338.105 380.375,337.889 380.915,337.754 381.300 C 337.618 381.685,337.363 382.000,337.188 382.000 C 337.013 382.000,337.073 381.460,337.322 380.800 C 337.572 380.140,337.931 379.600,338.121 379.600 C 338.311 379.600,338.362 379.825,338.234 380.100 M336.499 383.591 C 335.812 384.690,335.874 384.983,336.632 384.225 C 336.980 383.877,337.204 383.413,337.131 383.192 C 337.057 382.972,336.773 383.151,336.499 383.591 " stroke="none" fill="#f40c54" fill-rule="evenodd"></path><path id="path3" d="M87.000 0.291 C 86.340 0.385,85.629 0.628,85.420 0.831 C 85.211 1.034,84.536 1.200,83.920 1.200 C 83.304 1.200,82.800 1.380,82.800 1.600 C 82.800 1.820,82.445 2.000,82.011 2.000 C 81.577 2.000,80.452 2.458,79.511 3.018 C 78.570 3.577,77.485 4.138,77.100 4.264 C 76.715 4.390,76.400 4.652,76.400 4.847 C 76.400 5.041,76.040 5.200,75.600 5.200 C 75.160 5.200,74.800 5.368,74.800 5.573 C 74.800 5.778,74.469 6.051,74.065 6.179 C 73.661 6.308,72.487 7.220,71.458 8.206 C 70.428 9.193,69.426 10.000,69.230 10.000 C 69.035 10.000,68.273 10.741,67.537 11.647 C 66.802 12.553,66.017 13.498,65.794 13.747 C 64.453 15.245,62.861 17.629,62.219 19.100 C 61.812 20.035,61.333 20.800,61.155 20.800 C 60.978 20.800,60.625 21.565,60.372 22.500 C 60.119 23.435,59.772 24.560,59.602 25.000 C 59.431 25.440,59.073 26.610,58.807 27.600 C 58.540 28.590,58.160 29.713,57.961 30.095 C 57.442 31.092,57.481 369.600,58.000 369.600 C 58.220 369.600,58.400 370.230,58.400 371.000 C 58.400 371.770,58.580 372.400,58.800 372.400 C 59.020 372.400,59.200 372.929,59.200 373.576 C 59.200 374.223,59.380 374.864,59.600 375.000 C 59.820 375.136,60.009 375.642,60.019 376.124 C 60.030 376.606,60.345 377.556,60.719 378.235 C 61.094 378.914,61.908 380.472,62.529 381.697 C 63.150 382.922,64.180 384.437,64.818 385.062 C 65.456 385.688,65.983 386.385,65.989 386.612 C 65.995 386.838,66.360 387.283,66.800 387.600 C 67.240 387.917,67.600 388.392,67.600 388.655 C 67.600 388.918,67.755 389.193,67.945 389.267 C 68.416 389.449,70.545 391.126,72.304 392.700 C 73.103 393.415,73.991 394.000,74.278 394.000 C 74.565 394.000,74.800 394.180,74.800 394.400 C 74.800 394.620,75.160 394.800,75.600 394.800 C 76.040 394.800,76.400 394.958,76.400 395.151 C 76.400 395.345,76.940 395.727,77.600 396.000 C 78.260 396.273,78.800 396.655,78.800 396.849 C 78.800 397.042,79.160 397.200,79.600 397.200 C 80.040 397.200,80.400 397.380,80.400 397.600 C 80.400 397.820,80.940 398.000,81.600 398.000 C 82.260 398.000,82.800 398.180,82.800 398.400 C 82.800 398.620,83.415 398.800,84.167 398.800 C 84.918 398.800,85.608 399.025,85.700 399.300 C 85.832 399.696,97.711 399.822,142.927 399.908 L 199.988 400.016 200.094 375.808 L 200.200 351.600 161.433 351.600 C 134.315 351.600,121.874 351.464,120.033 351.146 C 112.971 349.927,108.067 345.269,106.836 338.610 C 106.207 335.211,106.223 179.665,106.852 176.731 C 108.197 170.462,112.258 166.231,118.535 164.559 C 120.221 164.111,127.912 164.009,160.400 164.005 L 200.200 164.001 200.088 152.800 L 199.976 141.600 242.364 141.600 C 265.678 141.600,284.836 141.465,284.938 141.300 C 285.040 141.135,246.936 141.000,200.262 141.000 L 115.400 141.000 113.508 140.068 C 110.973 138.820,108.890 136.668,107.635 134.000 L 106.600 131.800 106.600 95.000 L 106.600 58.200 107.648 55.965 C 108.855 53.392,110.692 51.427,113.225 50.000 L 115.000 49.000 157.600 48.800 C 181.030 48.690,200.155 48.465,200.100 48.300 C 200.045 48.135,200.000 37.200,200.000 24.000 L 200.000 0.000 144.100 0.060 C 113.355 0.093,87.660 0.197,87.000 0.291 M282.433 48.547 C 282.525 48.628,283.320 48.814,284.200 48.962 C 285.346 49.154,285.630 49.114,285.200 48.821 C 284.660 48.453,282.032 48.193,282.433 48.547 M287.622 50.348 C 293.993 54.461,293.600 51.527,293.600 95.022 L 293.600 131.977 292.660 134.089 C 292.100 135.345,290.893 136.969,289.677 138.100 C 288.553 139.145,287.815 140.000,288.036 140.000 C 288.677 140.000,292.146 136.317,292.747 135.000 C 293.047 134.340,293.452 133.487,293.647 133.105 C 294.154 132.108,294.108 57.314,293.600 57.000 C 293.380 56.864,293.196 56.448,293.190 56.076 C 293.165 54.390,287.930 49.200,286.253 49.200 C 286.028 49.200,286.644 49.717,287.622 50.348 M279.233 164.145 C 279.325 164.225,280.201 164.392,281.179 164.518 C 282.330 164.665,282.754 164.616,282.379 164.379 C 281.845 164.040,278.858 163.819,279.233 164.145 M283.633 164.949 C 284.045 165.317,286.400 166.400,286.400 166.221 C 286.400 165.990,284.182 164.800,283.753 164.800 C 283.596 164.800,283.542 164.867,283.633 164.949 M288.803 168.425 C 290.707 170.305,292.225 172.644,292.938 174.800 C 293.100 175.289,293.143 175.278,293.168 174.738 C 293.244 173.146,290.171 168.727,287.884 167.141 C 287.081 166.584,287.425 167.065,288.803 168.425 M293.501 194.138 C 293.557 204.292,293.652 215.750,293.711 219.600 C 293.771 223.450,293.857 215.350,293.904 201.600 C 293.950 187.850,293.856 176.392,293.694 176.138 C 293.532 175.883,293.446 183.983,293.501 194.138 " stroke="none" fill="#fc5454" fill-rule="evenodd"></path><path id="path4" d="M200.195 24.200 L 200.200 48.200 242.600 48.400 C 289.951 48.623,286.136 48.376,289.910 51.469 C 290.938 52.311,291.475 52.588,291.187 52.129 C 290.587 51.167,287.529 49.183,285.605 48.506 C 284.525 48.126,274.510 48.011,242.303 48.006 L 200.406 48.000 200.298 24.100 L 200.191 0.200 200.195 24.200 M309.166 0.437 C 309.779 0.682,310.509 0.684,311.166 0.443 C 312.058 0.115,311.926 0.062,310.200 0.057 C 308.518 0.052,308.353 0.112,309.166 0.437 M313.026 0.758 C 312.904 0.955,313.029 1.199,313.302 1.299 C 314.003 1.557,314.849 1.204,314.579 0.766 C 314.289 0.297,313.314 0.292,313.026 0.758 M315.600 1.600 C 315.146 1.893,315.322 1.989,316.324 1.994 C 317.105 1.997,317.546 1.836,317.400 1.600 C 317.089 1.097,316.378 1.097,315.600 1.600 M318.000 2.400 C 318.000 2.620,318.360 2.800,318.800 2.800 C 319.240 2.800,319.600 2.620,319.600 2.400 C 319.600 2.180,319.240 2.000,318.800 2.000 C 318.360 2.000,318.000 2.180,318.000 2.400 M320.183 3.227 C 320.056 3.432,320.233 3.600,320.576 3.600 C 320.919 3.600,321.200 3.780,321.200 4.000 C 321.200 4.220,321.560 4.400,322.000 4.400 C 322.440 4.400,322.800 4.580,322.800 4.800 C 322.800 5.351,323.888 5.305,324.238 4.738 C 324.395 4.484,324.351 4.383,324.139 4.514 C 323.928 4.645,323.003 4.325,322.084 3.803 C 321.165 3.281,320.310 3.022,320.183 3.227 M326.000 6.218 C 326.000 6.632,328.049 8.484,328.267 8.267 C 328.387 8.147,328.024 7.588,327.461 7.024 C 326.465 6.028,326.000 5.772,326.000 6.218 M330.800 10.203 C 330.800 10.805,333.578 13.559,333.809 13.185 C 333.940 12.973,333.857 12.800,333.624 12.800 C 333.391 12.800,333.200 12.607,333.200 12.371 C 333.200 11.937,332.765 11.447,331.498 10.451 C 331.114 10.149,330.800 10.037,330.800 10.203 M334.000 14.325 C 334.000 14.504,334.534 15.162,335.186 15.786 C 335.838 16.411,336.289 17.056,336.188 17.219 C 336.087 17.383,336.275 17.620,336.606 17.747 C 336.937 17.874,337.186 18.118,337.160 18.289 C 337.135 18.460,337.244 19.005,337.403 19.500 C 337.730 20.514,338.400 20.716,338.400 19.800 C 338.400 19.470,338.201 19.200,337.957 19.200 C 337.714 19.200,337.612 18.945,337.732 18.633 C 337.852 18.321,337.691 17.967,337.375 17.846 C 337.059 17.724,336.797 17.394,336.794 17.113 C 336.790 16.831,336.271 16.015,335.641 15.300 C 334.498 14.004,334.000 13.708,334.000 14.325 M338.400 21.400 C 338.400 21.730,338.580 22.000,338.800 22.000 C 339.020 22.000,339.200 21.730,339.200 21.400 C 339.200 21.070,339.020 20.800,338.800 20.800 C 338.580 20.800,338.400 21.070,338.400 21.400 M339.200 23.000 C 339.200 23.330,339.380 23.600,339.600 23.600 C 339.820 23.600,340.000 23.330,340.000 23.000 C 340.000 22.670,339.820 22.400,339.600 22.400 C 339.380 22.400,339.200 22.670,339.200 23.000 M340.000 25.376 C 340.000 25.939,340.180 26.400,340.400 26.400 C 340.620 26.400,340.800 26.051,340.800 25.624 C 340.800 25.197,340.620 24.736,340.400 24.600 C 340.173 24.460,340.000 24.796,340.000 25.376 M340.800 28.000 C 340.800 28.440,340.980 28.800,341.200 28.800 C 341.420 28.800,341.600 28.440,341.600 28.000 C 341.600 27.560,341.420 27.200,341.200 27.200 C 340.980 27.200,340.800 27.560,340.800 28.000 M341.600 30.553 C 341.600 31.323,341.780 32.064,342.000 32.200 C 342.238 32.347,342.400 31.879,342.400 31.047 C 342.400 30.277,342.220 29.536,342.000 29.400 C 341.762 29.253,341.600 29.721,341.600 30.553 M342.434 200.000 C 342.420 307.695,342.549 366.388,342.800 366.000 C 343.291 365.240,343.291 35.342,342.800 34.200 C 342.608 33.752,342.447 106.723,342.434 200.000 M294.191 95.000 C 294.191 113.920,294.240 121.601,294.300 112.070 C 294.360 102.538,294.360 87.058,294.300 77.670 C 294.240 68.281,294.191 76.080,294.191 95.000 M289.800 138.668 C 288.920 139.457,288.560 139.916,289.000 139.688 C 289.741 139.304,291.951 137.179,291.570 137.217 C 291.476 137.226,290.680 137.879,289.800 138.668 M286.800 140.395 C 286.470 140.586,285.859 140.850,285.443 140.981 C 285.026 141.112,284.782 141.315,284.900 141.433 C 285.143 141.676,288.000 140.559,288.000 140.220 C 288.000 139.913,287.508 139.984,286.800 140.395 M200.190 152.600 L 200.200 163.800 241.200 164.001 C 271.433 164.148,282.545 164.326,283.514 164.677 C 285.305 165.325,287.487 166.707,289.379 168.393 C 290.334 169.243,290.718 169.449,290.351 168.913 C 290.017 168.425,289.046 167.472,288.194 166.795 C 286.752 165.649,285.999 165.246,283.081 164.056 C 282.302 163.738,276.600 163.600,264.281 163.600 C 254.557 163.599,236.208 163.480,223.506 163.334 L 200.413 163.069 200.296 152.235 L 200.180 141.400 200.190 152.600 M291.445 171.012 C 291.810 171.569,292.186 171.947,292.282 171.851 C 292.519 171.614,291.484 170.000,291.095 170.000 C 290.922 170.000,291.080 170.456,291.445 171.012 M293.206 175.100 C 293.224 175.977,293.988 176.559,293.994 175.700 C 293.997 175.205,293.820 174.800,293.600 174.800 C 293.380 174.800,293.203 174.935,293.206 175.100 M293.694 282.200 C 293.583 342.928,293.693 339.923,291.427 343.789 C 290.065 346.113,287.144 348.685,284.471 349.913 L 282.200 350.956 241.600 351.291 C 219.270 351.475,200.775 351.704,200.500 351.800 C 200.106 351.938,200.021 357.087,200.097 376.087 L 200.194 400.200 200.300 376.100 L 200.406 352.000 240.303 351.982 C 282.455 351.964,281.602 351.999,285.634 350.103 C 287.573 349.191,291.600 345.431,291.600 344.532 C 291.600 344.239,291.780 344.000,292.000 344.000 C 292.220 344.000,292.400 343.640,292.400 343.200 C 292.400 342.760,292.580 342.400,292.800 342.400 C 293.020 342.400,293.200 341.986,293.200 341.480 C 293.200 340.974,293.381 340.379,293.601 340.159 C 293.867 339.893,293.968 320.565,293.900 282.979 L 293.797 226.200 293.694 282.200 M341.600 369.224 C 341.600 370.204,341.758 370.749,342.000 370.600 C 342.220 370.464,342.400 369.733,342.400 368.976 C 342.400 368.219,342.220 367.600,342.000 367.600 C 341.780 367.600,341.600 368.331,341.600 369.224 M340.800 372.000 C 340.800 372.440,340.980 372.800,341.200 372.800 C 341.420 372.800,341.600 372.440,341.600 372.000 C 341.600 371.560,341.420 371.200,341.200 371.200 C 340.980 371.200,340.800 371.560,340.800 372.000 M340.267 373.867 C 339.852 374.282,339.953 375.600,340.400 375.600 C 340.620 375.600,340.800 375.150,340.800 374.600 C 340.800 373.553,340.708 373.426,340.267 373.867 M339.200 377.000 C 339.200 377.330,339.380 377.600,339.600 377.600 C 339.820 377.600,340.000 377.330,340.000 377.000 C 340.000 376.670,339.820 376.400,339.600 376.400 C 339.380 376.400,339.200 376.670,339.200 377.000 M337.322 380.800 C 337.073 381.460,337.013 382.000,337.188 382.000 C 337.363 382.000,337.618 381.685,337.754 381.300 C 337.889 380.915,338.105 380.375,338.234 380.100 C 338.362 379.825,338.311 379.600,338.121 379.600 C 337.931 379.600,337.572 380.140,337.322 380.800 M336.141 382.675 C 336.293 382.826,335.746 383.636,334.927 384.475 C 333.443 385.995,333.588 386.630,335.115 385.300 C 336.617 383.993,337.421 382.400,336.579 382.400 C 336.187 382.400,335.990 382.524,336.141 382.675 M331.612 388.597 C 330.629 389.565,329.932 390.465,330.064 390.597 C 330.331 390.864,333.600 387.665,333.600 387.136 C 333.600 386.647,333.568 386.671,331.612 388.597 M326.860 392.651 C 326.343 393.202,326.028 393.761,326.160 393.893 C 326.292 394.025,326.445 394.058,326.500 393.967 C 326.555 393.875,327.036 393.305,327.570 392.700 C 328.780 391.327,328.143 391.283,326.860 392.651 M324.400 394.400 C 324.400 394.620,324.040 394.800,323.600 394.800 C 323.160 394.800,322.800 394.980,322.800 395.200 C 322.800 395.420,322.440 395.600,322.000 395.600 C 321.560 395.600,321.200 395.780,321.200 396.000 C 321.200 396.220,320.930 396.400,320.600 396.400 C 320.270 396.400,320.000 396.580,320.000 396.800 C 320.000 397.431,321.089 397.266,321.346 396.596 C 321.473 396.264,321.718 396.027,321.889 396.068 C 322.368 396.185,325.200 394.694,325.200 394.326 C 325.200 394.147,325.020 394.000,324.800 394.000 C 324.580 394.000,324.400 394.180,324.400 394.400 M318.000 397.600 C 318.000 397.820,318.360 398.000,318.800 398.000 C 319.240 398.000,319.600 397.820,319.600 397.600 C 319.600 397.380,319.240 397.200,318.800 397.200 C 318.360 397.200,318.000 397.380,318.000 397.600 M315.600 398.400 C 315.600 398.620,315.859 398.800,316.176 398.800 C 316.493 398.800,316.864 398.620,317.000 398.400 C 317.136 398.180,316.877 398.000,316.424 398.000 C 315.971 398.000,315.600 398.180,315.600 398.400 M313.000 399.200 C 313.136 399.420,313.496 399.600,313.800 399.600 C 314.104 399.600,314.464 399.420,314.600 399.200 C 314.741 398.972,314.396 398.800,313.800 398.800 C 313.204 398.800,312.859 398.972,313.000 399.200 M309.305 399.887 C 309.914 399.979,310.814 399.977,311.305 399.882 C 311.797 399.787,311.300 399.711,310.200 399.714 C 309.100 399.717,308.697 399.795,309.305 399.887 " stroke="none" fill="#ec1a5e" fill-rule="evenodd"></path></g></svg>