<svg id="svg" version="1.1" xmlns="http://www.w3.org/2000/svg" xmlns:xlink="http://www.w3.org/1999/xlink" width="400" height="400" viewBox="0, 0, 400,400"><g id="svgg"><path id="path0" d="M218.000 13.524 C 216.790 14.787,215.170 16.258,214.400 16.791 C 213.630 17.325,212.709 18.086,212.353 18.481 C 211.997 18.876,211.585 19.200,211.436 19.200 C 211.288 19.200,210.780 19.560,210.308 20.000 C 209.836 20.440,209.213 20.800,208.925 20.800 C 208.636 20.800,208.400 20.980,208.400 21.200 C 208.400 21.420,208.040 21.600,207.600 21.600 C 207.160 21.600,206.799 21.735,206.797 21.900 C 206.793 22.259,204.856 23.200,204.120 23.200 C 203.834 23.200,203.600 23.380,203.600 23.600 C 203.600 23.820,203.240 24.000,202.800 24.000 C 202.360 24.000,202.000 24.180,202.000 24.400 C 202.000 24.620,201.640 24.800,201.200 24.800 C 200.760 24.800,200.400 24.980,200.400 25.200 C 200.400 25.420,199.860 25.600,199.200 25.600 C 198.540 25.600,198.000 25.780,198.000 26.000 C 198.000 26.220,197.460 26.400,196.800 26.400 C 196.140 26.400,195.600 26.562,195.600 26.759 C 195.600 26.957,194.339 27.245,192.798 27.400 C 191.258 27.555,189.897 27.843,189.775 28.041 C 189.653 28.238,188.764 28.400,187.800 28.400 C 186.836 28.400,185.936 28.580,185.800 28.800 C 185.664 29.020,184.249 29.200,182.656 29.200 C 181.063 29.200,179.575 29.385,179.349 29.611 C 178.831 30.129,154.391 29.833,147.000 29.219 C 144.140 28.981,140.092 28.687,138.005 28.564 C 135.918 28.441,134.028 28.193,133.805 28.013 C 133.582 27.832,130.025 27.554,125.900 27.394 C 121.775 27.234,118.400 26.945,118.400 26.751 C 118.400 26.558,116.240 26.400,113.600 26.400 C 110.667 26.400,108.800 26.244,108.800 26.000 C 108.800 25.745,105.600 25.600,100.000 25.600 C 94.400 25.600,91.200 25.745,91.200 26.000 C 91.200 26.220,90.311 26.400,89.224 26.400 C 88.137 26.400,87.152 26.553,87.036 26.741 C 86.921 26.928,85.660 27.191,84.235 27.324 C 82.810 27.457,81.274 27.753,80.822 27.983 C 80.370 28.212,79.642 28.580,79.205 28.800 C 78.768 29.020,78.059 29.200,77.629 29.200 C 77.199 29.200,76.736 29.380,76.600 29.600 C 76.464 29.820,76.003 30.000,75.576 30.000 C 75.149 30.000,74.800 30.180,74.800 30.400 C 74.800 30.620,74.455 30.800,74.033 30.800 C 73.612 30.800,73.207 30.935,73.133 31.100 C 72.966 31.476,70.836 32.775,69.900 33.071 C 69.515 33.193,69.200 33.452,69.200 33.647 C 69.200 33.841,68.880 34.000,68.488 34.000 C 68.097 34.000,67.517 34.360,67.200 34.800 C 66.883 35.240,66.375 35.600,66.072 35.600 C 65.769 35.600,65.017 36.140,64.400 36.800 C 63.783 37.460,63.081 38.000,62.840 38.000 C 62.598 38.000,62.400 38.180,62.400 38.400 C 62.400 38.620,62.170 38.800,61.888 38.800 C 61.607 38.800,61.112 39.187,60.788 39.660 C 60.465 40.133,59.390 41.309,58.400 42.275 C 54.718 45.865,54.401 46.209,54.400 46.612 C 54.400 46.838,54.040 47.283,53.600 47.600 C 53.160 47.917,52.800 48.431,52.800 48.741 C 52.800 49.052,52.484 49.597,52.097 49.953 C 51.711 50.309,51.140 51.095,50.830 51.700 C 50.519 52.305,50.115 52.800,49.932 52.800 C 49.750 52.800,49.600 53.160,49.600 53.600 C 49.600 54.040,49.420 54.400,49.200 54.400 C 48.980 54.400,48.800 54.760,48.800 55.200 C 48.800 55.640,48.620 56.000,48.400 56.000 C 48.180 56.000,48.000 56.360,48.000 56.800 C 48.000 57.240,47.820 57.600,47.600 57.600 C 47.380 57.600,47.200 57.960,47.200 58.400 C 47.200 58.840,47.020 59.200,46.800 59.200 C 46.580 59.200,46.400 59.566,46.400 60.013 C 46.400 61.041,45.327 61.472,44.325 60.846 C 43.338 60.229,30.867 60.173,30.257 60.783 C 30.028 61.012,29.437 61.200,28.944 61.200 C 28.451 61.200,27.936 61.380,27.800 61.600 C 27.664 61.820,27.239 62.000,26.856 62.000 C 25.981 62.000,24.007 62.899,24.003 63.300 C 24.001 63.465,23.640 63.600,23.200 63.600 C 22.760 63.600,22.400 63.780,22.400 64.000 C 22.400 64.220,22.040 64.400,21.600 64.400 C 21.160 64.400,20.800 64.580,20.800 64.800 C 20.800 65.020,20.530 65.200,20.200 65.200 C 19.871 65.200,18.859 65.920,17.952 66.800 C 17.045 67.680,16.094 68.400,15.838 68.400 C 15.582 68.400,15.047 68.950,14.650 69.623 C 14.253 70.295,13.314 71.459,12.564 72.209 C 11.814 72.960,11.200 73.849,11.200 74.187 C 11.200 74.524,11.023 74.800,10.808 74.800 C 10.592 74.800,10.294 75.295,10.146 75.900 C 9.998 76.505,9.770 77.090,9.638 77.200 C 9.106 77.647,8.400 79.239,8.400 79.995 C 8.400 80.438,8.220 80.800,8.000 80.800 C 7.780 80.800,7.600 81.340,7.600 82.000 C 7.600 82.660,7.420 83.200,7.200 83.200 C 6.971 83.200,6.800 84.400,6.800 86.000 C 6.800 87.600,6.629 88.800,6.400 88.800 C 5.865 88.800,5.865 98.269,6.400 98.600 C 6.620 98.736,6.800 100.356,6.800 102.200 C 6.800 104.044,6.980 105.664,7.200 105.800 C 7.420 105.936,7.600 106.926,7.600 108.000 C 7.600 109.074,7.780 110.064,8.000 110.200 C 8.220 110.336,8.400 111.337,8.400 112.424 C 8.400 113.511,8.580 114.400,8.800 114.400 C 9.020 114.400,9.200 115.300,9.200 116.400 C 9.200 117.500,9.366 118.400,9.568 118.400 C 9.771 118.400,10.062 119.573,10.215 121.006 C 10.369 122.439,10.653 123.709,10.847 123.829 C 11.041 123.949,11.200 124.566,11.200 125.200 C 11.200 125.834,11.380 126.464,11.600 126.600 C 11.820 126.736,12.000 127.377,12.000 128.024 C 12.000 128.671,12.180 129.200,12.400 129.200 C 12.620 129.200,12.800 129.740,12.800 130.400 C 12.800 131.060,12.980 131.600,13.200 131.600 C 13.420 131.600,13.600 132.039,13.600 132.576 C 13.600 133.113,13.780 133.664,14.000 133.800 C 14.220 133.936,14.400 134.399,14.400 134.829 C 14.400 135.259,14.559 135.923,14.753 136.305 C 14.948 136.687,15.282 137.450,15.497 138.000 C 15.711 138.550,16.272 139.782,16.743 140.738 C 17.214 141.694,17.600 142.819,17.600 143.238 C 17.600 143.657,17.780 144.000,18.000 144.000 C 18.220 144.000,18.400 144.360,18.400 144.800 C 18.400 145.240,18.580 145.600,18.800 145.600 C 19.020 145.600,19.200 146.140,19.200 146.800 C 19.200 147.460,19.380 148.000,19.600 148.000 C 19.820 148.000,20.000 148.360,20.000 148.800 C 20.000 149.240,20.180 149.600,20.400 149.600 C 20.620 149.600,20.800 149.960,20.800 150.400 C 20.800 150.840,20.980 151.200,21.200 151.200 C 21.420 151.200,21.600 151.560,21.600 152.000 C 21.600 152.440,21.780 152.800,22.000 152.800 C 22.220 152.800,22.400 153.160,22.400 153.600 C 22.400 154.040,22.580 154.400,22.800 154.400 C 23.020 154.400,23.200 154.760,23.200 155.200 C 23.200 155.640,23.380 156.000,23.600 156.000 C 23.820 156.000,24.000 156.360,24.000 156.800 C 24.000 157.240,24.180 157.600,24.400 157.600 C 24.620 157.600,24.800 157.805,24.800 158.056 C 24.800 160.398,32.172 159.937,39.144 157.158 C 49.158 153.167,58.467 141.257,63.429 126.090 C 65.125 120.905,64.495 121.122,70.007 123.825 C 79.698 128.577,96.568 134.082,107.485 136.056 C 108.758 136.286,110.610 136.635,111.600 136.832 C 116.805 137.866,131.186 139.178,137.458 139.191 C 142.920 139.202,155.398 138.076,159.400 137.211 C 160.280 137.021,162.080 136.656,163.400 136.400 C 166.758 135.749,169.229 135.181,170.400 134.789 C 170.950 134.605,172.750 134.058,174.400 133.574 C 181.387 131.524,185.026 130.100,191.092 127.043 C 216.229 114.375,228.748 94.716,230.474 65.200 C 230.712 61.130,231.062 57.740,231.253 57.667 C 231.743 57.478,231.692 52.000,231.200 52.000 C 230.963 52.000,230.800 50.541,230.800 48.424 C 230.800 46.457,230.620 44.736,230.400 44.600 C 230.180 44.464,230.000 43.283,230.000 41.976 C 230.000 40.659,229.822 39.600,229.600 39.600 C 229.380 39.600,229.200 38.621,229.200 37.424 C 229.200 36.227,229.020 35.136,228.800 35.000 C 228.580 34.864,228.400 34.043,228.400 33.176 C 228.400 32.309,228.220 31.600,228.000 31.600 C 227.780 31.600,227.600 30.880,227.600 30.000 C 227.600 29.120,227.420 28.400,227.200 28.400 C 226.980 28.400,226.800 27.770,226.800 27.000 C 226.800 26.230,226.620 25.600,226.400 25.600 C 226.180 25.600,226.000 25.060,226.000 24.400 C 226.000 23.740,225.845 23.200,225.655 23.200 C 225.465 23.200,225.197 22.255,225.060 21.100 C 224.922 19.945,224.340 17.740,223.766 16.200 C 223.192 14.660,222.593 12.950,222.435 12.400 C 221.912 10.582,220.468 10.948,218.000 13.524 M79.692 172.240 C 77.362 174.076,77.200 174.777,77.200 183.033 C 77.200 189.829,77.273 190.624,78.007 191.811 C 80.269 195.472,85.471 195.609,87.872 192.072 C 88.917 190.534,89.194 177.141,88.233 174.643 C 86.938 171.274,82.501 170.026,79.692 172.240 M141.662 172.738 C 140.793 173.607,140.011 174.846,139.863 175.588 C 139.435 177.727,139.568 188.869,140.042 190.577 C 141.657 196.393,149.568 195.950,151.178 189.954 C 151.977 186.979,151.600 176.221,150.628 174.253 C 148.918 170.790,144.378 170.022,141.662 172.738 M38.800 306.400 C 38.800 306.620,38.080 306.800,37.200 306.800 C 36.320 306.800,35.600 306.980,35.600 307.200 C 35.600 307.420,34.970 307.600,34.200 307.600 C 33.430 307.600,32.800 307.780,32.800 308.000 C 32.800 308.220,32.348 308.400,31.795 308.400 C 30.875 308.400,29.289 309.056,28.800 309.638 C 28.690 309.770,28.105 309.998,27.500 310.146 C 26.895 310.294,26.400 310.592,26.400 310.808 C 26.400 311.023,26.040 311.200,25.600 311.200 C 25.160 311.200,24.800 311.380,24.800 311.600 C 24.800 311.820,24.552 312.000,24.248 312.000 C 23.945 312.000,22.955 312.720,22.048 313.600 C 21.141 314.480,20.237 315.200,20.040 315.200 C 19.553 315.200,16.800 317.980,16.800 318.471 C 16.800 318.687,16.125 319.524,15.300 320.331 C 14.475 321.139,13.363 322.610,12.829 323.600 C 12.295 324.590,11.665 325.760,11.429 326.200 C 11.193 326.640,10.851 327.109,10.670 327.242 C 10.488 327.376,10.239 328.231,10.117 329.142 C 9.995 330.054,9.738 330.800,9.547 330.800 C 9.356 330.800,9.200 331.340,9.200 332.000 C 9.200 332.660,9.020 333.200,8.800 333.200 C 8.580 333.200,8.400 333.740,8.400 334.400 C 8.400 335.060,8.220 335.600,8.000 335.600 C 7.763 335.600,7.600 337.067,7.600 339.200 C 7.600 341.333,7.437 342.800,7.200 342.800 C 6.938 342.800,6.800 351.467,6.800 368.000 L 6.800 393.200 49.643 393.200 C 90.287 393.200,92.471 393.164,92.203 392.500 C 92.047 392.115,91.305 389.640,90.554 387.000 C 89.802 384.360,88.824 380.940,88.379 379.400 C 87.935 377.860,87.399 375.970,87.189 375.200 C 86.979 374.430,86.440 372.540,85.991 371.000 C 85.543 369.460,85.026 367.660,84.842 367.000 C 84.658 366.340,84.283 364.990,84.008 364.000 C 83.732 363.010,83.369 361.750,83.200 361.200 C 83.031 360.650,82.668 359.390,82.393 358.400 C 82.118 357.410,81.581 355.610,81.200 354.400 C 80.819 353.190,80.282 351.390,80.007 350.400 C 79.732 349.410,79.369 348.150,79.200 347.600 C 79.031 347.050,78.668 345.790,78.392 344.800 C 78.117 343.810,77.734 342.460,77.541 341.800 C 77.113 340.337,74.549 331.213,73.944 329.000 C 73.704 328.120,73.369 326.950,73.200 326.400 C 73.031 325.850,72.671 324.590,72.400 323.600 C 72.129 322.610,71.769 321.350,71.600 320.800 C 71.431 320.250,71.071 318.990,70.800 318.000 C 70.529 317.010,70.169 315.750,70.000 315.200 C 69.831 314.650,69.471 313.390,69.200 312.400 C 68.929 311.410,68.559 310.150,68.379 309.600 C 68.198 309.050,67.934 308.015,67.793 307.300 L 67.536 306.000 53.168 306.000 C 43.856 306.000,38.800 306.141,38.800 306.400 M159.466 311.704 C 158.622 314.837,157.788 317.850,157.612 318.400 C 157.437 318.950,157.071 320.210,156.800 321.200 C 156.529 322.190,156.169 323.450,156.000 324.000 C 155.831 324.550,155.471 325.810,155.200 326.800 C 154.929 327.790,154.569 329.050,154.400 329.600 C 154.231 330.150,153.868 331.410,153.592 332.400 C 153.011 334.492,152.413 336.582,151.991 338.000 C 151.827 338.550,151.474 339.810,151.207 340.800 C 150.940 341.790,150.560 342.913,150.361 343.295 C 150.162 343.677,150.000 344.294,150.000 344.666 C 150.000 345.318,149.431 347.330,148.775 349.000 C 148.602 349.440,148.369 350.250,148.258 350.800 C 148.147 351.350,147.869 352.430,147.642 353.200 C 146.989 355.410,137.651 388.021,137.162 389.800 C 136.920 390.680,136.560 391.713,136.361 392.095 C 136.162 392.477,136.000 392.882,136.000 392.995 C 136.000 393.108,155.260 393.200,178.800 393.200 L 221.600 393.200 221.600 366.224 C 221.600 348.671,221.460 339.161,221.200 339.000 C 220.980 338.864,220.800 337.863,220.800 336.776 C 220.800 335.689,220.620 334.800,220.400 334.800 C 220.180 334.800,220.000 334.260,220.000 333.600 C 220.000 332.940,219.820 332.400,219.600 332.400 C 219.380 332.400,219.200 331.860,219.200 331.200 C 219.200 330.540,219.020 330.000,218.800 330.000 C 218.580 330.000,218.400 329.638,218.400 329.195 C 218.400 328.304,217.769 327.060,216.700 325.845 C 216.315 325.407,216.000 324.813,216.000 324.525 C 216.000 324.236,215.820 324.000,215.600 324.000 C 215.380 324.000,215.200 323.728,215.200 323.396 C 215.200 323.064,214.660 322.228,214.000 321.537 C 213.340 320.846,212.800 320.124,212.800 319.932 C 212.800 319.576,208.121 314.831,206.370 313.414 C 204.655 312.024,201.069 310.000,200.324 310.000 C 199.926 310.000,199.600 309.820,199.600 309.600 C 199.600 309.380,199.240 309.200,198.800 309.200 C 198.360 309.200,198.000 309.020,198.000 308.800 C 198.000 308.580,197.460 308.400,196.800 308.400 C 196.140 308.400,195.600 308.220,195.600 308.000 C 195.600 307.780,195.060 307.600,194.400 307.600 C 193.740 307.600,193.200 307.420,193.200 307.200 C 193.200 306.980,192.480 306.800,191.600 306.800 C 190.720 306.800,190.000 306.620,190.000 306.400 C 190.000 306.141,184.902 306.001,175.500 306.004 L 161.000 306.007 159.466 311.704 " stroke="none" fill="#4a556a" fill-rule="evenodd"></path><path id="path1" d="M261.234 7.700 C 261.047 8.195,260.973 8.735,261.071 8.900 C 261.168 9.065,261.057 9.200,260.824 9.200 C 260.591 9.200,260.431 9.335,260.470 9.500 C 260.642 10.238,259.869 15.234,259.553 15.429 C 259.359 15.549,259.200 16.346,259.200 17.200 C 259.200 18.054,259.020 18.864,258.800 19.000 C 258.580 19.136,258.400 19.856,258.400 20.600 C 258.400 21.344,258.220 22.064,258.000 22.200 C 257.780 22.336,257.600 23.157,257.600 24.024 C 257.600 24.891,257.420 25.600,257.200 25.600 C 256.980 25.600,256.800 26.320,256.800 27.200 C 256.800 28.080,256.620 28.800,256.400 28.800 C 256.180 28.800,256.000 29.621,256.000 30.624 C 256.000 31.737,255.844 32.351,255.600 32.200 C 255.356 32.049,255.200 32.663,255.200 33.776 C 255.200 34.779,255.020 35.600,254.800 35.600 C 254.580 35.600,254.400 36.309,254.400 37.176 C 254.400 38.043,254.220 38.864,254.000 39.000 C 253.780 39.136,253.600 39.946,253.600 40.800 C 253.600 41.654,253.420 42.464,253.200 42.600 C 252.980 42.736,252.800 43.434,252.800 44.151 C 252.800 45.833,249.074 48.800,246.962 48.800 C 246.653 48.800,246.400 48.980,246.400 49.200 C 246.400 49.420,246.040 49.600,245.600 49.600 C 245.160 49.600,244.800 49.780,244.800 50.000 C 244.800 50.220,244.530 50.400,244.200 50.400 C 243.870 50.400,243.600 50.591,243.600 50.824 C 243.600 51.057,243.435 51.145,243.232 51.020 C 243.030 50.895,242.625 51.019,242.332 51.296 C 242.040 51.573,241.305 52.055,240.700 52.368 C 240.095 52.680,239.600 53.085,239.600 53.268 C 239.600 53.450,239.280 53.600,238.888 53.600 C 238.497 53.600,237.917 53.960,237.600 54.400 C 237.283 54.840,236.827 55.200,236.587 55.200 C 236.347 55.200,235.802 55.515,235.375 55.900 C 234.273 56.896,232.539 57.733,232.119 57.474 C 231.170 56.887,230.882 58.240,230.474 65.200 C 229.077 89.003,220.485 106.689,204.400 118.875 L 202.600 120.238 202.301 127.819 C 202.136 131.989,202.046 140.800,202.101 147.400 L 202.200 159.400 204.400 159.717 C 212.572 160.896,218.128 163.557,222.615 168.442 C 228.911 175.297,230.117 185.729,225.552 193.849 C 224.372 195.948,224.091 197.200,224.800 197.200 C 225.020 197.200,225.200 197.040,225.200 196.844 C 225.200 196.648,225.830 196.378,226.600 196.244 C 227.370 196.110,228.630 195.890,229.400 195.756 C 230.170 195.622,230.800 195.352,230.800 195.156 C 230.800 194.453,233.625 194.792,234.492 195.600 C 234.964 196.040,235.587 196.400,235.875 196.400 C 236.164 196.400,236.400 196.580,236.400 196.800 C 236.400 197.020,236.636 197.200,236.925 197.200 C 237.213 197.200,237.836 197.560,238.308 198.000 C 238.780 198.440,239.354 198.800,239.583 198.800 C 239.812 198.800,240.000 198.980,240.000 199.200 C 240.000 199.420,240.270 199.600,240.600 199.600 C 240.930 199.600,241.200 199.747,241.200 199.927 C 241.200 200.214,243.301 201.313,250.000 204.531 C 252.292 205.632,252.772 206.246,252.787 208.100 C 252.794 208.925,252.980 209.600,253.200 209.600 C 253.420 209.600,253.600 210.320,253.600 211.200 C 253.600 212.080,253.780 212.800,254.000 212.800 C 254.220 212.800,254.400 213.711,254.400 214.824 C 254.400 216.071,254.553 216.752,254.800 216.600 C 255.044 216.449,255.200 217.063,255.200 218.176 C 255.200 219.179,255.380 220.000,255.600 220.000 C 255.820 220.000,256.000 220.731,256.000 221.624 C 256.000 222.604,256.158 223.149,256.400 223.000 C 256.737 222.791,257.049 225.309,256.837 226.530 C 256.806 226.711,256.965 226.745,257.190 226.606 C 257.444 226.449,257.600 226.962,257.600 227.953 C 257.600 228.833,257.780 229.664,258.000 229.800 C 258.220 229.936,258.400 230.757,258.400 231.624 C 258.400 232.491,258.580 233.200,258.800 233.200 C 259.020 233.200,259.200 234.010,259.200 235.000 C 259.200 235.990,259.354 236.800,259.543 236.800 C 259.732 236.800,260.003 237.835,260.145 239.100 C 260.480 242.074,260.563 242.505,260.913 243.064 C 261.072 243.320,261.242 243.997,261.289 244.570 L 261.375 245.611 285.410 245.594 L 309.445 245.576 309.544 243.888 C 309.598 242.960,309.813 242.029,310.021 241.820 C 310.230 241.611,310.400 240.846,310.400 240.120 C 310.400 239.394,310.562 238.800,310.760 238.800 C 310.958 238.800,311.228 237.990,311.360 237.000 C 311.492 236.010,311.708 234.390,311.840 233.400 C 311.972 232.410,312.242 231.600,312.440 231.600 C 312.638 231.600,312.800 230.880,312.800 230.000 C 312.800 229.120,312.980 228.400,313.200 228.400 C 313.420 228.400,313.600 227.680,313.600 226.800 C 313.600 225.920,313.762 225.200,313.960 225.200 C 314.158 225.200,314.422 224.435,314.547 223.500 C 315.103 219.349,315.306 218.400,315.642 218.400 C 315.839 218.400,316.000 217.680,316.000 216.800 C 316.000 215.920,316.180 215.200,316.400 215.200 C 316.620 215.200,316.800 214.390,316.800 213.400 C 316.800 212.410,316.980 211.600,317.200 211.600 C 317.420 211.600,317.600 210.891,317.600 210.024 C 317.600 209.157,317.780 208.336,318.000 208.200 C 318.220 208.064,318.400 207.468,318.401 206.876 C 318.402 205.789,319.781 204.853,323.900 203.144 C 324.615 202.847,325.200 202.469,325.200 202.302 C 325.200 202.136,325.560 202.000,326.000 202.000 C 326.440 202.000,326.800 201.820,326.800 201.600 C 326.800 201.380,327.145 201.200,327.567 201.200 C 327.988 201.200,328.393 201.033,328.467 200.830 C 328.540 200.626,328.862 200.401,329.182 200.330 C 329.502 200.258,330.188 199.792,330.708 199.292 C 331.227 198.793,331.848 198.506,332.088 198.654 C 332.349 198.815,332.409 198.738,332.238 198.462 C 332.069 198.188,332.207 198.000,332.576 198.000 C 332.919 198.000,333.200 197.842,333.200 197.649 C 333.200 197.455,333.740 197.073,334.400 196.800 C 335.060 196.527,335.600 196.174,335.600 196.016 C 335.600 195.509,337.594 194.800,339.019 194.800 C 339.778 194.800,340.400 194.980,340.400 195.200 C 340.400 195.420,340.940 195.600,341.600 195.600 C 342.260 195.600,342.800 195.780,342.800 196.000 C 342.800 196.220,343.329 196.400,343.976 196.400 C 344.623 196.400,345.264 196.580,345.400 196.800 C 345.536 197.020,346.076 197.200,346.600 197.200 C 347.124 197.200,347.664 197.380,347.800 197.600 C 347.936 197.820,348.577 198.000,349.224 198.000 C 349.871 198.000,350.400 198.180,350.400 198.400 C 350.400 198.620,350.940 198.800,351.600 198.800 C 352.260 198.800,352.800 198.980,352.800 199.200 C 352.800 199.420,353.419 199.600,354.176 199.600 C 354.933 199.600,355.664 199.780,355.800 200.000 C 355.936 200.220,356.577 200.400,357.224 200.400 C 357.871 200.400,358.400 200.580,358.400 200.800 C 358.400 201.020,358.929 201.200,359.576 201.200 C 360.223 201.200,360.864 201.380,361.000 201.600 C 361.136 201.820,361.766 202.000,362.400 202.000 C 363.034 202.000,363.664 202.180,363.800 202.400 C 363.936 202.620,364.487 202.800,365.024 202.800 C 365.561 202.800,366.000 202.960,366.000 203.156 C 366.000 203.352,366.585 203.614,367.300 203.737 C 370.248 204.247,371.200 204.507,371.200 204.802 C 371.200 204.973,371.875 205.229,372.700 205.372 C 376.750 206.071,377.317 206.091,377.659 205.547 C 379.291 202.949,380.473 200.884,380.664 200.300 C 380.790 199.915,381.052 199.600,381.247 199.600 C 381.441 199.600,381.600 199.322,381.600 198.983 C 381.600 198.644,381.960 197.980,382.400 197.508 C 382.840 197.036,383.200 196.413,383.200 196.125 C 383.200 195.836,383.380 195.600,383.600 195.600 C 383.820 195.600,384.000 195.322,384.000 194.983 C 384.000 194.644,384.360 193.980,384.800 193.508 C 385.240 193.036,385.600 192.413,385.600 192.125 C 385.600 191.836,385.780 191.600,386.000 191.600 C 386.220 191.600,386.400 191.240,386.400 190.800 C 386.400 190.360,386.580 190.000,386.800 190.000 C 387.020 190.000,387.200 189.730,387.200 189.400 C 387.200 189.070,387.336 188.800,387.502 188.800 C 387.669 188.800,388.059 188.215,388.370 187.500 C 388.681 186.785,389.041 186.110,389.170 186.000 C 389.299 185.890,389.943 184.720,390.602 183.400 C 391.261 182.080,391.935 180.940,392.100 180.867 C 392.265 180.793,392.400 180.471,392.400 180.150 C 392.400 179.829,392.760 179.180,393.200 178.708 C 393.640 178.236,394.000 177.613,394.000 177.325 C 394.000 177.036,394.180 176.800,394.400 176.800 C 394.620 176.800,394.800 176.440,394.800 176.000 C 394.800 175.560,394.980 175.200,395.200 175.200 C 395.420 175.200,395.600 174.930,395.600 174.600 C 395.600 174.270,395.780 174.000,396.000 174.000 C 396.220 174.000,396.400 173.745,396.400 173.433 C 396.400 173.122,396.535 172.807,396.700 172.733 C 396.865 172.660,397.449 171.700,397.998 170.600 C 398.546 169.500,399.221 168.362,399.498 168.071 C 400.071 167.468,400.190 163.600,399.634 163.600 C 399.191 163.600,396.917 161.532,391.387 156.100 C 389.091 153.845,387.113 152.000,386.992 152.000 C 386.871 152.000,385.338 150.564,383.586 148.810 C 381.834 147.055,380.400 145.689,380.400 145.773 C 380.400 145.857,379.057 144.638,377.416 143.063 C 375.775 141.488,373.622 139.480,372.631 138.600 C 370.819 136.991,370.075 134.495,371.200 133.800 C 371.773 133.446,371.722 119.395,371.141 117.789 C 370.578 116.231,370.974 114.400,371.874 114.400 C 372.237 114.400,372.417 114.283,372.274 114.140 C 371.989 113.856,373.976 112.001,374.567 112.000 C 374.768 112.000,374.821 111.888,374.685 111.751 C 374.425 111.492,376.307 109.589,379.187 107.200 C 382.397 104.536,384.066 102.981,388.522 98.500 C 390.984 96.025,393.117 94.000,393.262 94.000 C 393.408 94.000,394.324 93.235,395.299 92.300 C 396.274 91.365,397.730 90.011,398.536 89.290 C 400.569 87.472,400.260 83.564,397.890 81.134 C 397.604 80.840,397.065 79.950,396.692 79.155 C 396.320 78.360,395.741 77.483,395.407 77.206 C 395.073 76.929,394.800 76.454,394.800 76.151 C 394.800 75.848,394.620 75.600,394.400 75.600 C 394.180 75.600,394.000 75.240,394.000 74.800 C 394.000 74.360,393.820 74.000,393.600 74.000 C 393.380 74.000,393.200 73.764,393.200 73.475 C 393.200 73.187,392.869 72.596,392.465 72.162 C 392.061 71.728,391.598 70.846,391.436 70.202 C 391.274 69.557,390.615 68.249,389.971 67.295 C 389.327 66.341,388.800 65.381,388.800 65.163 C 388.800 64.945,388.440 64.380,388.000 63.908 C 387.560 63.436,387.200 62.813,387.200 62.525 C 387.200 62.236,387.020 62.000,386.800 62.000 C 386.580 62.000,386.400 61.730,386.400 61.400 C 386.400 61.070,386.220 60.800,386.000 60.800 C 385.780 60.800,385.600 60.440,385.600 60.000 C 385.600 59.560,385.420 59.200,385.200 59.200 C 384.980 59.200,384.800 58.964,384.800 58.675 C 384.800 58.387,384.485 57.795,384.100 57.360 C 383.715 56.925,383.341 56.306,383.270 55.984 C 383.198 55.663,382.973 55.340,382.770 55.267 C 382.566 55.193,382.400 54.788,382.400 54.367 C 382.400 53.945,382.220 53.600,382.000 53.600 C 381.780 53.600,381.600 53.322,381.600 52.983 C 381.600 52.644,381.240 51.980,380.800 51.508 C 380.360 51.036,380.000 50.413,380.000 50.125 C 380.000 49.836,379.820 49.600,379.600 49.600 C 379.380 49.600,379.200 49.240,379.200 48.800 C 379.200 48.360,379.042 48.000,378.849 48.000 C 378.655 48.000,378.267 47.444,377.986 46.765 C 377.550 45.715,377.320 45.567,376.437 45.773 C 375.867 45.907,374.725 46.126,373.900 46.261 C 373.075 46.395,372.400 46.662,372.400 46.853 C 372.400 47.044,371.961 47.200,371.424 47.200 C 370.887 47.200,370.336 47.380,370.200 47.600 C 370.064 47.820,369.558 48.003,369.076 48.006 C 368.119 48.013,365.380 48.887,364.941 49.326 C 364.790 49.477,364.157 49.600,363.533 49.600 C 362.910 49.600,362.400 49.780,362.400 50.000 C 362.400 50.220,361.781 50.400,361.024 50.400 C 360.267 50.400,359.536 50.580,359.400 50.800 C 359.264 51.020,358.623 51.200,357.976 51.200 C 357.329 51.200,356.800 51.380,356.800 51.600 C 356.800 51.820,356.260 52.000,355.600 52.000 C 354.940 52.000,354.400 52.180,354.400 52.400 C 354.400 52.620,353.948 52.800,353.395 52.800 C 352.842 52.800,352.077 52.962,351.695 53.161 C 351.313 53.360,350.190 53.737,349.200 54.000 C 348.210 54.263,347.087 54.640,346.705 54.839 C 346.323 55.038,345.659 55.200,345.229 55.200 C 344.799 55.200,344.336 55.380,344.200 55.600 C 344.064 55.820,343.423 56.000,342.776 56.000 C 342.129 56.000,341.600 56.180,341.600 56.400 C 341.600 56.620,340.970 56.800,340.200 56.800 C 339.430 56.800,338.800 56.980,338.800 57.200 C 338.800 57.907,337.396 57.626,336.800 56.800 C 336.483 56.360,335.943 56.000,335.600 56.000 C 335.257 56.000,334.717 55.640,334.400 55.200 C 334.083 54.760,333.503 54.400,333.112 54.400 C 332.720 54.400,332.400 54.250,332.400 54.068 C 332.400 53.885,331.905 53.481,331.300 53.170 C 330.695 52.860,329.909 52.289,329.553 51.903 C 329.197 51.516,328.612 51.200,328.253 51.200 C 327.894 51.200,327.600 51.020,327.600 50.800 C 327.600 50.580,327.240 50.400,326.800 50.400 C 326.360 50.400,325.996 50.265,325.992 50.100 C 325.987 49.935,324.281 48.990,322.200 48.000 C 318.573 46.275,318.416 46.146,318.408 44.900 C 318.404 44.185,318.220 43.600,318.000 43.600 C 317.780 43.600,317.600 42.981,317.600 42.224 C 317.600 41.467,317.420 40.736,317.200 40.600 C 316.980 40.464,316.800 39.654,316.800 38.800 C 316.800 37.946,316.639 37.148,316.442 37.026 C 316.245 36.905,315.975 36.084,315.842 35.203 C 315.709 34.321,315.491 32.880,315.358 32.000 C 315.225 31.120,314.955 30.400,314.758 30.400 C 314.561 30.400,314.400 29.680,314.400 28.800 C 314.400 27.920,314.220 27.200,314.000 27.200 C 313.780 27.200,313.600 26.401,313.600 25.424 C 313.600 24.447,313.420 23.536,313.200 23.400 C 312.980 23.264,312.800 22.544,312.800 21.800 C 312.800 21.056,312.620 20.336,312.400 20.200 C 312.180 20.064,312.000 19.243,312.000 18.376 C 312.000 17.509,311.820 16.800,311.600 16.800 C 311.380 16.800,311.200 16.080,311.200 15.200 C 311.200 14.320,311.020 13.600,310.800 13.600 C 310.580 13.600,310.400 12.891,310.400 12.024 C 310.400 11.157,310.220 10.336,310.000 10.200 C 309.780 10.064,309.600 9.243,309.600 8.376 L 309.600 6.800 285.587 6.800 L 261.574 6.800 261.234 7.700 M288.200 91.041 C 292.814 91.407,294.465 91.630,295.114 91.979 C 295.491 92.181,296.655 92.578,297.700 92.861 C 298.745 93.143,299.600 93.515,299.600 93.687 C 299.600 93.859,299.960 94.000,300.400 94.000 C 300.840 94.000,301.200 94.159,301.200 94.353 C 301.200 94.548,301.515 94.807,301.900 94.929 C 302.809 95.217,304.753 96.412,305.758 97.300 C 306.194 97.685,306.708 98.000,306.900 98.000 C 307.278 98.000,311.296 102.101,312.600 103.818 C 313.040 104.397,313.760 105.279,314.200 105.778 C 315.050 106.742,316.803 109.961,316.801 110.553 C 316.800 110.747,317.115 111.197,317.500 111.553 C 317.885 111.909,318.263 112.650,318.341 113.200 C 318.418 113.750,318.643 114.503,318.841 114.874 C 319.038 115.244,319.200 116.009,319.200 116.574 C 319.200 117.138,319.362 117.600,319.560 117.600 C 320.361 117.600,321.177 129.783,320.426 130.534 C 320.192 130.768,320.000 131.824,320.000 132.880 C 320.000 133.936,319.820 134.800,319.600 134.800 C 319.380 134.800,319.200 135.329,319.200 135.976 C 319.200 136.623,319.020 137.264,318.800 137.400 C 318.580 137.536,318.400 138.087,318.400 138.624 C 318.400 139.161,318.220 139.600,318.000 139.600 C 317.780 139.600,317.600 139.960,317.600 140.400 C 317.600 140.840,317.420 141.200,317.200 141.200 C 316.980 141.200,316.800 141.560,316.800 142.000 C 316.800 142.440,316.620 142.800,316.400 142.800 C 316.180 142.800,316.000 143.070,316.000 143.400 C 316.000 143.730,315.820 144.000,315.600 144.000 C 315.380 144.000,315.200 144.328,315.200 144.728 C 315.200 145.128,314.795 145.823,314.300 146.271 C 313.350 147.132,312.923 147.644,311.017 150.208 C 309.889 151.725,309.480 152.096,309.011 152.031 C 308.896 152.015,307.883 152.902,306.760 154.001 C 305.638 155.100,304.467 156.000,304.159 156.000 C 303.852 156.000,303.600 156.180,303.600 156.400 C 303.600 156.620,303.240 156.800,302.800 156.800 C 302.360 156.800,302.000 156.980,302.000 157.200 C 302.000 157.420,301.640 157.600,301.200 157.600 C 300.760 157.600,300.400 157.780,300.400 158.000 C 300.400 158.220,300.040 158.400,299.600 158.400 C 299.160 158.400,298.800 158.580,298.800 158.800 C 298.800 159.020,298.260 159.200,297.600 159.200 C 296.940 159.200,296.400 159.363,296.400 159.562 C 296.400 159.762,295.545 160.041,294.500 160.183 C 293.455 160.324,291.970 160.558,291.200 160.703 C 289.609 161.001,281.014 161.012,279.800 160.717 C 279.360 160.610,277.965 160.385,276.700 160.215 C 275.435 160.046,274.400 159.749,274.400 159.554 C 274.400 159.359,273.860 159.200,273.200 159.200 C 272.540 159.200,272.000 159.020,272.000 158.800 C 272.000 158.580,271.629 158.400,271.176 158.400 C 270.723 158.400,270.464 158.220,270.600 158.000 C 270.736 157.780,270.602 157.600,270.303 157.600 C 269.549 157.600,267.607 156.665,267.603 156.300 C 267.601 156.135,267.240 156.000,266.800 156.000 C 266.360 156.000,266.000 155.850,266.000 155.668 C 266.000 155.485,265.556 155.098,265.014 154.807 C 264.471 154.517,264.139 154.099,264.275 153.878 C 264.412 153.657,264.325 153.599,264.081 153.750 C 263.554 154.075,257.200 147.813,257.200 146.969 C 257.200 146.767,255.287 144.079,254.802 143.600 C 254.691 143.490,254.542 143.130,254.470 142.800 C 254.399 142.470,254.174 142.140,253.970 142.067 C 253.767 141.993,253.600 141.588,253.600 141.167 C 253.600 140.745,253.420 140.400,253.200 140.400 C 252.980 140.400,252.800 139.961,252.800 139.424 C 252.800 138.887,252.620 138.336,252.400 138.200 C 252.180 138.064,252.000 137.524,252.000 137.000 C 252.000 136.476,251.820 135.936,251.600 135.800 C 251.380 135.664,251.200 135.038,251.200 134.410 C 251.200 133.781,251.012 133.204,250.782 133.127 C 250.215 132.938,250.218 119.622,250.785 119.055 C 251.013 118.827,251.200 118.046,251.200 117.320 C 251.200 116.594,251.380 116.000,251.600 116.000 C 251.820 116.000,252.000 115.567,252.000 115.038 C 252.000 114.218,253.379 111.021,254.000 110.400 C 254.110 110.290,254.258 109.930,254.330 109.600 C 254.401 109.270,254.626 108.940,254.830 108.867 C 255.033 108.793,255.200 108.388,255.200 107.967 C 255.200 107.545,255.380 107.200,255.600 107.200 C 255.820 107.200,256.000 107.010,256.000 106.778 C 256.000 106.546,256.539 105.781,257.198 105.078 C 257.857 104.375,258.397 103.693,258.398 103.562 C 258.399 103.431,258.850 102.801,259.400 102.162 C 259.949 101.523,260.399 100.865,260.400 100.700 C 260.400 100.535,260.682 100.400,261.026 100.400 C 261.370 100.400,262.529 99.500,263.600 98.400 C 264.671 97.300,265.830 96.400,266.174 96.400 C 266.518 96.400,266.800 96.220,266.800 96.000 C 266.800 95.780,267.145 95.600,267.567 95.600 C 267.988 95.600,268.393 95.465,268.467 95.300 C 268.678 94.825,271.841 93.200,272.554 93.200 C 272.910 93.200,273.200 93.020,273.200 92.800 C 273.200 92.580,273.751 92.400,274.424 92.400 C 275.157 92.400,275.546 92.236,275.394 91.990 C 275.255 91.765,275.289 91.616,275.470 91.660 C 275.652 91.704,276.970 91.617,278.400 91.467 C 279.830 91.317,281.763 91.137,282.695 91.069 C 283.627 91.000,284.518 90.815,284.674 90.659 C 284.830 90.503,285.238 90.489,285.579 90.629 C 285.921 90.768,287.100 90.954,288.200 91.041 M325.295 256.900 C 324.865 257.778,324.581 259.053,324.135 262.100 C 324.015 262.925,323.755 263.600,323.558 263.600 C 323.361 263.600,323.200 264.320,323.200 265.200 C 323.200 266.080,323.057 266.800,322.882 266.800 C 322.707 266.800,322.519 267.456,322.465 268.257 C 322.411 269.058,322.195 270.036,321.984 270.431 C 321.773 270.825,321.600 271.789,321.600 272.574 C 321.600 273.358,321.420 274.000,321.200 274.000 C 320.980 274.000,320.800 274.655,320.800 275.456 C 320.800 277.158,320.500 277.436,316.500 279.441 C 314.905 280.241,313.600 281.054,313.600 281.248 C 313.600 281.441,313.358 281.600,313.062 281.600 C 312.766 281.600,312.198 281.960,311.800 282.400 C 311.024 283.257,308.254 283.534,307.800 282.800 C 307.664 282.580,307.023 282.400,306.376 282.400 C 305.729 282.400,305.200 282.220,305.200 282.000 C 305.200 281.780,304.671 281.600,304.024 281.600 C 303.377 281.600,302.736 281.420,302.600 281.200 C 302.464 280.980,301.924 280.800,301.400 280.800 C 300.876 280.800,300.336 280.620,300.200 280.400 C 300.064 280.180,299.344 280.000,298.600 280.000 C 297.856 280.000,297.136 279.820,297.000 279.600 C 296.864 279.380,296.324 279.200,295.800 279.200 C 295.276 279.200,294.736 279.020,294.600 278.800 C 294.464 278.580,293.924 278.400,293.400 278.400 C 292.876 278.400,292.336 278.220,292.200 278.000 C 291.475 276.827,288.450 277.573,287.739 279.100 C 286.951 280.793,285.551 282.933,285.100 283.133 C 284.935 283.207,284.800 283.597,284.800 284.000 C 284.800 284.403,284.665 284.793,284.500 284.867 C 284.335 284.940,283.767 285.855,283.237 286.900 C 282.708 287.945,282.123 288.800,281.937 288.800 C 281.752 288.800,281.600 289.145,281.600 289.567 C 281.600 289.988,281.433 290.393,281.230 290.467 C 281.026 290.540,280.801 290.870,280.730 291.200 C 280.658 291.530,280.318 292.070,279.972 292.400 C 279.390 292.957,279.040 293.616,278.807 294.600 C 278.755 294.820,278.372 295.478,277.956 296.062 C 277.540 296.646,277.200 297.321,277.200 297.562 C 277.200 297.803,277.020 298.000,276.800 298.000 C 274.626 298.000,277.830 302.184,284.611 308.200 C 285.851 309.300,287.369 310.650,287.984 311.200 C 288.599 311.750,289.750 312.740,290.542 313.400 L 291.983 314.600 291.991 320.900 C 291.996 324.365,291.847 327.200,291.661 327.200 C 291.339 327.200,287.357 330.743,285.185 332.963 C 284.627 333.533,284.040 334.000,283.881 334.000 C 283.639 334.000,278.597 339.052,276.900 340.994 C 276.320 341.658,276.227 343.200,276.768 343.200 C 276.971 343.200,277.252 343.728,277.394 344.372 C 277.536 345.017,277.908 345.758,278.221 346.018 C 278.535 346.278,278.693 346.650,278.572 346.845 C 278.451 347.040,278.513 347.200,278.708 347.200 C 278.903 347.200,279.485 348.100,280.000 349.200 C 280.515 350.300,281.086 351.200,281.268 351.200 C 281.451 351.200,281.600 351.560,281.600 352.000 C 281.600 352.440,281.736 352.800,281.902 352.800 C 282.069 352.800,282.429 353.306,282.703 353.925 C 282.976 354.544,283.560 355.436,284.000 355.908 C 284.440 356.380,284.800 356.957,284.800 357.189 C 284.800 357.798,285.686 359.286,286.500 360.043 C 286.885 360.401,287.200 360.988,287.200 361.347 C 287.200 361.706,287.380 362.000,287.600 362.000 C 287.820 362.000,288.000 362.283,288.000 362.629 C 288.000 363.347,288.934 364.400,289.571 364.400 C 289.807 364.400,290.000 364.220,290.000 364.000 C 290.000 363.780,290.540 363.600,291.200 363.600 C 291.860 363.600,292.400 363.420,292.400 363.200 C 292.400 362.980,293.030 362.800,293.800 362.800 C 294.570 362.800,295.200 362.620,295.200 362.400 C 295.200 362.180,295.830 362.000,296.600 362.000 C 297.370 362.000,298.000 361.820,298.000 361.600 C 298.000 361.380,298.540 361.200,299.200 361.200 C 299.860 361.200,300.400 361.020,300.400 360.800 C 300.400 360.580,300.929 360.400,301.576 360.400 C 302.223 360.400,302.851 360.241,302.971 360.046 C 303.092 359.851,303.687 359.596,304.295 359.479 C 304.903 359.361,306.210 359.058,307.200 358.805 C 309.124 358.313,312.568 358.604,312.184 359.226 C 312.057 359.432,312.233 359.600,312.576 359.600 C 312.919 359.600,313.200 359.780,313.200 360.000 C 313.200 360.220,313.470 360.400,313.800 360.400 C 314.130 360.400,314.400 360.580,314.400 360.800 C 314.400 361.020,314.760 361.200,315.200 361.200 C 315.640 361.200,316.000 361.380,316.000 361.600 C 316.000 361.820,316.360 362.000,316.800 362.000 C 317.240 362.000,317.600 362.180,317.600 362.400 C 317.600 362.620,317.869 362.800,318.197 362.800 C 319.455 362.800,320.800 364.479,320.800 366.049 C 320.800 366.876,320.980 367.664,321.200 367.800 C 321.420 367.936,321.600 368.656,321.600 369.400 C 321.600 370.144,321.780 370.864,322.000 371.000 C 322.220 371.136,322.400 371.946,322.400 372.800 C 322.400 373.654,322.580 374.464,322.800 374.600 C 323.020 374.736,323.200 375.467,323.200 376.224 C 323.200 376.981,323.380 377.600,323.600 377.600 C 323.820 377.600,324.000 378.410,324.000 379.400 C 324.000 380.390,324.180 381.200,324.400 381.200 C 324.620 381.200,324.806 381.875,324.813 382.700 C 324.838 385.697,324.384 385.600,338.373 385.600 C 352.327 385.600,352.000 385.666,352.000 382.829 C 352.000 381.933,352.180 381.200,352.400 381.200 C 352.620 381.200,352.800 380.491,352.800 379.624 C 352.800 378.757,352.961 377.948,353.158 377.826 C 353.355 377.705,353.613 376.929,353.732 376.103 C 353.851 375.276,354.152 373.700,354.400 372.600 C 354.648 371.500,354.949 369.924,355.068 369.097 C 355.187 368.271,355.445 367.495,355.642 367.374 C 355.839 367.252,356.000 366.540,356.000 365.792 C 356.000 364.402,357.218 362.800,358.275 362.800 C 358.564 362.800,358.800 362.620,358.800 362.400 C 358.800 362.180,359.160 362.000,359.600 362.000 C 360.040 362.000,360.400 361.820,360.400 361.600 C 360.400 361.380,360.745 361.200,361.167 361.200 C 361.588 361.200,361.993 361.034,362.067 360.830 C 362.140 360.627,362.470 360.402,362.800 360.330 C 363.130 360.259,363.672 359.930,364.004 359.600 C 365.281 358.332,366.122 358.151,368.736 358.582 C 370.131 358.812,371.136 359.135,370.969 359.300 C 370.803 359.465,371.417 359.600,372.333 359.600 C 373.250 359.600,374.000 359.780,374.000 360.000 C 374.000 360.220,374.540 360.400,375.200 360.400 C 375.860 360.400,376.400 360.580,376.400 360.800 C 376.400 361.020,376.929 361.200,377.576 361.200 C 378.223 361.200,378.864 361.380,379.000 361.600 C 379.136 361.820,379.777 362.000,380.424 362.000 C 381.071 362.000,381.600 362.180,381.600 362.400 C 381.600 362.620,382.140 362.800,382.800 362.800 C 383.460 362.800,384.000 362.980,384.000 363.200 C 384.000 363.420,384.641 363.600,385.424 363.600 C 386.271 363.600,386.747 363.762,386.600 364.000 C 386.280 364.518,386.533 364.504,387.781 363.936 C 388.342 363.680,388.800 363.140,388.800 362.736 C 388.800 362.331,388.980 362.000,389.200 362.000 C 389.420 362.000,389.600 361.711,389.600 361.358 C 389.600 361.005,390.050 360.181,390.600 359.527 C 391.150 358.873,391.600 357.992,391.600 357.569 C 391.600 357.146,391.746 356.800,391.925 356.800 C 392.104 356.800,392.495 356.178,392.793 355.418 C 393.091 354.658,393.485 354.129,393.668 354.242 C 393.850 354.355,394.000 354.077,394.000 353.624 C 394.000 353.171,394.180 352.800,394.400 352.800 C 394.620 352.800,394.800 352.440,394.800 352.000 C 394.800 351.560,394.958 351.200,395.151 351.200 C 395.345 351.200,395.727 350.660,396.000 350.000 C 396.273 349.340,396.655 348.800,396.849 348.800 C 397.042 348.800,397.200 348.440,397.200 348.000 C 397.200 347.560,397.359 347.200,397.553 347.200 C 397.748 347.200,398.013 346.885,398.142 346.500 C 398.272 346.115,398.743 345.173,399.189 344.406 C 400.576 342.022,400.349 341.515,395.946 337.186 C 393.717 334.994,391.726 333.200,391.523 333.200 C 391.319 333.200,391.264 333.020,391.400 332.800 C 391.536 332.580,391.439 332.400,391.184 332.400 C 390.930 332.400,389.540 331.230,388.096 329.800 C 386.652 328.370,385.319 327.200,385.135 327.200 C 384.951 327.200,384.800 324.400,384.800 320.977 L 384.800 314.755 386.763 312.877 C 390.130 309.658,392.508 307.600,392.861 307.600 C 393.047 307.600,393.200 307.300,393.200 306.933 C 393.200 306.567,393.296 306.363,393.414 306.481 C 393.532 306.599,395.085 305.274,396.865 303.536 C 400.107 300.372,401.122 297.507,399.226 296.875 C 398.992 296.797,398.800 296.478,398.800 296.167 C 398.800 295.855,398.654 295.600,398.475 295.600 C 398.296 295.600,397.902 294.970,397.600 294.200 C 397.298 293.430,396.904 292.800,396.725 292.800 C 396.546 292.800,396.400 292.530,396.400 292.200 C 396.400 291.870,396.220 291.600,396.000 291.600 C 395.780 291.600,395.600 291.330,395.600 291.000 C 395.600 290.670,395.420 290.400,395.200 290.400 C 394.980 290.400,394.800 290.040,394.800 289.600 C 394.800 289.160,394.620 288.800,394.400 288.800 C 394.180 288.800,394.000 288.564,394.000 288.275 C 394.000 287.987,393.640 287.364,393.200 286.892 C 392.760 286.420,392.400 285.756,392.400 285.417 C 392.400 285.078,392.220 284.800,392.000 284.800 C 391.780 284.800,391.600 284.462,391.600 284.049 C 391.600 283.636,391.332 283.076,391.004 282.804 C 390.677 282.532,390.495 282.170,390.600 282.000 C 390.705 281.830,390.523 281.468,390.196 281.196 C 389.868 280.924,389.600 280.480,389.600 280.209 C 389.600 278.158,386.526 277.087,383.849 278.205 C 383.052 278.538,382.400 278.682,382.400 278.525 C 382.400 278.368,382.184 278.456,381.920 278.720 C 381.656 278.984,380.947 279.200,380.344 279.200 C 379.741 279.200,379.136 279.380,379.000 279.600 C 378.864 279.820,378.349 280.000,377.856 280.000 C 377.363 280.000,376.781 280.179,376.562 280.398 C 376.344 280.616,375.678 280.836,375.082 280.885 C 374.487 280.934,374.000 281.115,374.000 281.287 C 374.000 281.459,373.460 281.600,372.800 281.600 C 372.140 281.600,371.600 281.780,371.600 282.000 C 371.600 282.220,370.981 282.400,370.224 282.400 C 369.467 282.400,368.736 282.580,368.600 282.800 C 368.184 283.473,365.550 283.261,364.847 282.497 C 364.491 282.111,363.705 281.540,363.100 281.230 C 362.495 280.919,362.000 280.515,362.000 280.332 C 362.000 280.150,361.761 280.000,361.468 280.000 C 360.848 280.000,357.518 278.362,356.617 277.614 C 356.258 277.316,356.000 276.463,356.000 275.575 C 356.000 274.735,355.820 273.936,355.600 273.800 C 355.380 273.664,355.200 272.944,355.200 272.200 C 355.200 271.456,355.039 270.748,354.842 270.626 C 354.645 270.505,354.386 269.729,354.265 268.903 C 353.849 266.056,353.545 264.598,353.200 263.800 C 352.873 263.043,352.662 262.052,352.135 258.800 C 351.667 255.911,352.111 256.000,338.206 256.000 L 325.735 256.000 325.295 256.900 M342.200 305.600 C 342.336 305.820,342.887 306.000,343.424 306.000 C 343.961 306.000,344.400 306.180,344.400 306.400 C 344.400 306.620,344.760 306.800,345.200 306.800 C 345.640 306.800,346.000 306.980,346.000 307.200 C 346.000 307.420,346.232 307.600,346.515 307.600 C 347.281 307.600,351.200 311.412,351.200 312.157 C 351.200 312.511,351.380 312.800,351.600 312.800 C 351.820 312.800,352.000 313.070,352.000 313.400 C 352.000 313.730,352.180 314.000,352.400 314.000 C 352.620 314.000,352.800 314.324,352.800 314.720 C 352.800 315.116,352.962 315.611,353.159 315.820 C 353.356 316.029,353.616 316.920,353.736 317.800 C 353.856 318.680,354.075 319.985,354.223 320.700 C 354.398 321.549,354.336 322.000,354.045 322.000 C 353.784 322.000,353.600 322.744,353.600 323.800 C 353.600 324.790,353.420 325.600,353.200 325.600 C 352.980 325.600,352.800 326.016,352.800 326.525 C 352.800 327.033,352.440 327.836,352.000 328.308 C 351.560 328.780,351.200 329.260,351.200 329.374 C 351.200 329.804,346.901 334.000,346.460 334.000 C 346.207 334.000,346.000 334.180,346.000 334.400 C 346.000 334.620,345.651 334.800,345.224 334.800 C 344.797 334.800,344.336 334.980,344.200 335.200 C 344.064 335.420,343.513 335.600,342.976 335.600 C 342.439 335.600,342.000 335.780,342.000 336.000 C 342.000 336.237,340.541 336.400,338.424 336.400 C 336.457 336.400,334.736 336.220,334.600 336.000 C 334.464 335.780,334.039 335.600,333.656 335.600 C 332.781 335.600,330.807 334.701,330.803 334.300 C 330.801 334.135,330.526 334.000,330.191 334.000 C 329.642 334.000,325.200 329.912,325.200 329.407 C 325.200 329.291,324.756 328.275,324.213 327.149 C 323.669 326.023,323.146 324.414,323.049 323.572 C 322.953 322.731,322.755 321.850,322.609 321.615 C 322.370 321.228,322.967 317.478,323.503 316.000 C 323.623 315.670,323.769 315.166,323.828 314.879 C 323.887 314.593,324.220 313.924,324.568 313.393 C 324.915 312.862,325.200 312.228,325.200 311.983 C 325.200 311.738,325.914 310.876,326.787 310.069 C 329.221 307.817,329.520 307.600,330.183 307.600 C 330.522 307.600,330.801 307.465,330.803 307.300 C 330.808 306.853,332.826 306.000,333.880 306.000 C 334.386 306.000,334.800 305.820,334.800 305.600 C 334.800 305.363,336.259 305.200,338.376 305.200 C 340.343 305.200,342.064 305.380,342.200 305.600 M67.812 307.100 C 68.068 308.338,68.738 310.895,69.200 312.400 C 69.369 312.950,69.729 314.210,70.000 315.200 C 70.271 316.190,70.631 317.450,70.800 318.000 C 70.969 318.550,71.326 319.810,71.593 320.800 C 71.860 321.790,72.240 322.913,72.439 323.295 C 72.638 323.677,72.800 324.343,72.800 324.776 C 72.800 325.208,72.964 325.976,73.164 326.481 C 73.364 326.987,73.801 328.390,74.135 329.600 C 74.469 330.810,75.298 333.780,75.978 336.200 C 76.658 338.620,77.390 341.230,77.604 342.000 C 77.818 342.770,78.363 344.660,78.815 346.200 C 79.267 347.740,79.832 349.720,80.072 350.600 C 80.311 351.480,80.819 353.190,81.200 354.400 C 81.581 355.610,82.118 357.410,82.393 358.400 C 82.668 359.390,83.031 360.650,83.200 361.200 C 83.369 361.750,83.729 363.010,84.000 364.000 C 84.271 364.990,84.631 366.250,84.800 366.800 C 84.969 367.350,85.329 368.610,85.600 369.600 C 85.871 370.590,86.231 371.850,86.400 372.400 C 86.569 372.950,86.929 374.210,87.200 375.200 C 87.471 376.190,87.833 377.450,88.005 378.000 C 88.177 378.550,88.598 379.990,88.941 381.200 C 91.353 389.719,91.990 391.750,92.370 392.130 C 92.677 392.437,92.800 392.375,92.800 391.913 C 92.800 391.558,92.935 391.207,93.100 391.133 C 93.265 391.060,94.028 390.190,94.794 389.200 C 95.561 388.210,96.408 387.130,96.675 386.800 C 96.942 386.470,99.007 383.860,101.264 381.000 C 103.520 378.140,105.465 375.710,105.586 375.600 C 105.706 375.490,106.296 374.741,106.896 373.935 C 107.497 373.129,108.216 372.224,108.494 371.925 C 108.772 371.625,109.628 370.575,110.394 369.590 C 112.325 367.113,112.929 366.372,113.444 365.858 C 113.858 365.446,112.827 363.755,110.894 361.675 C 110.616 361.376,109.897 360.471,109.296 359.665 C 108.696 358.859,108.101 358.110,107.975 358.000 C 107.849 357.890,105.598 355.100,102.973 351.800 C 100.349 348.500,97.982 345.568,97.715 345.285 C 97.447 345.002,96.913 344.237,96.528 343.585 C 96.143 342.933,95.686 342.400,95.514 342.400 C 95.341 342.400,95.200 342.042,95.200 341.604 C 95.200 340.727,113.229 322.402,114.096 322.398 C 114.373 322.396,114.150 322.160,113.600 321.872 C 113.050 321.584,111.250 320.612,109.600 319.712 C 107.950 318.812,105.610 317.552,104.400 316.912 C 103.190 316.272,101.480 315.333,100.600 314.825 C 99.720 314.317,96.570 312.550,93.600 310.899 C 90.630 309.249,87.627 307.471,86.927 306.949 C 85.675 306.016,85.501 306.000,76.619 306.000 L 67.585 306.000 67.812 307.100 M141.400 306.876 C 139.601 308.075,116.313 321.200,115.983 321.200 C 114.071 321.200,115.188 322.626,123.999 331.429 C 134.185 341.606,133.925 341.151,131.375 344.327 C 130.372 345.577,129.334 346.870,129.070 347.200 C 128.805 347.530,127.961 348.606,127.194 349.590 C 126.428 350.575,125.572 351.625,125.294 351.925 C 125.016 352.224,124.297 353.129,123.696 353.935 C 123.096 354.741,122.509 355.490,122.392 355.600 C 122.275 355.710,121.559 356.610,120.800 357.600 C 120.041 358.590,119.318 359.490,119.192 359.600 C 118.897 359.857,115.425 364.458,115.078 365.049 C 114.934 365.296,116.174 367.186,117.833 369.249 C 121.279 373.531,121.315 373.577,123.194 376.001 C 123.961 376.991,124.819 378.041,125.100 378.335 C 125.382 378.629,126.104 379.529,126.706 380.335 C 127.308 381.141,128.184 382.225,128.653 382.745 C 129.122 383.264,130.922 385.548,132.653 387.819 C 134.384 390.090,135.961 391.906,136.158 391.855 C 136.607 391.738,136.645 391.611,142.211 371.800 C 144.746 362.780,146.970 355.040,147.154 354.600 C 147.828 352.990,148.400 350.922,148.400 350.095 C 148.400 349.629,148.580 349.136,148.800 349.000 C 149.020 348.864,149.200 348.234,149.200 347.600 C 149.200 346.966,149.380 346.336,149.600 346.200 C 149.820 346.064,150.000 345.434,150.000 344.800 C 150.000 344.166,150.180 343.536,150.400 343.400 C 150.620 343.264,150.800 342.711,150.800 342.171 C 150.800 341.631,150.958 340.877,151.151 340.495 C 151.689 339.429,152.400 337.023,152.400 336.266 C 152.400 335.894,152.558 335.277,152.751 334.895 C 153.289 333.829,154.000 331.423,154.000 330.666 C 154.000 330.294,154.158 329.677,154.351 329.295 C 154.544 328.913,154.880 327.970,155.097 327.200 C 155.314 326.430,155.695 325.080,155.943 324.200 C 156.190 323.320,157.385 319.082,158.597 314.782 C 159.808 310.483,160.800 306.748,160.800 306.482 C 160.800 305.537,142.862 305.901,141.400 306.876 " stroke="none" fill="#cdcdcd" fill-rule="evenodd"></path><path id="path2" d="M199.200 122.443 C 193.990 125.875,184.623 130.392,179.000 132.184 C 178.120 132.465,176.050 133.090,174.400 133.574 C 172.750 134.058,170.950 134.605,170.400 134.789 C 169.229 135.181,166.758 135.749,163.400 136.400 C 162.080 136.656,160.280 137.021,159.400 137.211 C 155.398 138.076,142.920 139.202,137.458 139.191 C 131.186 139.178,116.805 137.866,111.600 136.832 C 110.610 136.635,108.758 136.286,107.485 136.056 C 96.568 134.082,79.698 128.577,70.007 123.825 C 64.495 121.122,65.125 120.905,63.429 126.090 C 56.307 147.860,42.255 160.395,26.089 159.398 C 23.342 159.228,21.387 159.271,21.089 159.507 C 20.820 159.719,19.658 160.013,18.506 160.160 C 16.425 160.424,10.000 163.368,10.000 164.057 C 10.000 164.245,9.770 164.400,9.488 164.400 C 8.728 164.400,3.600 169.416,3.600 170.159 C 3.600 170.512,3.442 170.800,3.249 170.800 C 3.055 170.800,2.673 171.340,2.400 172.000 C 2.127 172.660,1.745 173.200,1.551 173.200 C 1.358 173.200,1.200 173.614,1.200 174.120 C 1.200 174.626,0.975 175.265,0.700 175.540 C -0.011 176.251,-0.011 190.149,0.700 190.860 C 0.975 191.135,1.200 191.774,1.200 192.280 C 1.200 192.786,1.380 193.200,1.600 193.200 C 1.820 193.200,2.000 193.436,2.000 193.725 C 2.000 194.013,2.360 194.636,2.800 195.108 C 3.240 195.580,3.600 196.168,3.600 196.414 C 3.600 196.965,8.737 202.000,9.300 202.000 C 9.523 202.000,9.997 202.319,10.353 202.709 C 11.231 203.672,15.747 205.809,18.200 206.423 C 19.300 206.698,20.380 207.026,20.600 207.152 C 20.820 207.278,22.133 207.426,23.518 207.481 C 26.670 207.604,27.195 208.085,27.217 210.871 C 27.227 212.042,27.420 213.810,27.646 214.800 C 27.873 215.790,28.155 217.187,28.273 217.904 C 28.392 218.621,28.649 219.306,28.844 219.427 C 29.040 219.548,29.200 220.179,29.200 220.829 C 29.200 221.479,29.359 222.323,29.553 222.705 C 29.748 223.087,30.129 223.940,30.400 224.600 C 30.671 225.260,31.052 226.113,31.247 226.495 C 31.441 226.877,31.600 227.642,31.600 228.195 C 31.600 228.748,31.780 229.200,32.000 229.200 C 32.220 229.200,32.400 229.560,32.400 230.000 C 32.400 230.440,32.580 230.800,32.800 230.800 C 33.020 230.800,33.200 231.065,33.200 231.388 C 33.200 231.711,33.560 232.617,34.000 233.400 C 34.440 234.183,34.800 235.089,34.800 235.412 C 34.800 235.735,34.980 236.000,35.200 236.000 C 35.420 236.000,35.600 236.360,35.600 236.800 C 35.600 237.240,35.737 237.600,35.905 237.600 C 36.207 237.600,36.432 237.951,37.597 240.231 C 37.926 240.874,38.511 241.749,38.897 242.175 C 39.284 242.602,39.600 243.187,39.600 243.475 C 39.600 243.764,39.780 244.000,40.000 244.000 C 40.220 244.000,40.400 244.320,40.400 244.712 C 40.400 245.103,40.760 245.683,41.200 246.000 C 41.640 246.317,42.000 246.798,42.000 247.068 C 42.000 247.339,42.315 247.744,42.700 247.968 C 43.085 248.192,43.267 248.381,43.104 248.388 C 42.765 248.402,43.736 249.674,45.200 251.134 C 45.750 251.682,45.930 251.986,45.600 251.808 C 45.270 251.631,45.836 252.367,46.858 253.443 C 49.722 256.460,51.200 258.155,51.200 258.422 C 51.200 258.555,51.695 258.920,52.300 259.232 C 52.905 259.545,54.606 261.015,56.081 262.500 C 57.555 263.985,58.995 265.202,59.281 265.204 C 59.566 265.206,60.225 265.746,60.745 266.404 C 61.265 267.062,61.925 267.600,62.212 267.600 C 62.499 267.600,62.793 267.745,62.867 267.923 C 63.059 268.391,66.665 270.800,67.172 270.800 C 67.407 270.800,67.603 270.935,67.606 271.100 C 67.610 271.265,68.510 271.840,69.606 272.379 C 70.703 272.917,71.600 273.481,71.600 273.632 C 71.600 273.782,72.678 274.242,73.997 274.653 C 75.315 275.064,76.395 275.535,76.397 275.700 C 76.398 275.865,76.670 276.000,77.000 276.000 C 77.330 276.000,77.600 276.180,77.600 276.400 C 77.600 276.620,78.061 276.800,78.624 276.800 C 79.204 276.800,79.540 276.973,79.400 277.200 C 79.260 277.427,79.596 277.600,80.176 277.600 C 80.739 277.600,81.200 277.742,81.200 277.915 C 81.200 278.088,81.589 278.259,82.064 278.295 C 82.539 278.331,83.054 278.564,83.209 278.814 C 83.363 279.064,83.604 279.253,83.745 279.234 C 85.722 278.969,85.600 278.093,85.600 292.516 L 85.600 305.831 87.836 307.116 C 89.066 307.822,90.236 308.400,90.436 308.400 C 90.636 308.400,90.801 308.535,90.803 308.700 C 90.805 308.865,91.210 309.187,91.703 309.417 C 92.969 310.005,96.161 311.761,96.400 312.001 C 96.510 312.111,97.138 312.471,97.797 312.801 C 98.455 313.130,100.345 314.164,101.997 315.097 C 103.648 316.030,105.135 316.795,105.300 316.797 C 105.465 316.799,105.600 311.940,105.600 306.000 L 105.600 295.200 113.371 295.200 C 124.112 295.200,134.163 293.729,141.280 291.116 L 142.360 290.720 142.480 284.959 C 142.546 281.791,142.466 279.199,142.303 279.199 C 142.140 279.200,139.530 279.811,136.503 280.557 C 124.129 283.607,108.796 284.556,106.645 282.405 C 106.422 282.182,105.946 282.000,105.586 282.000 C 105.226 282.000,103.682 281.391,102.153 280.648 C 86.112 272.841,73.937 252.090,68.447 223.200 C 67.978 220.733,67.782 219.391,66.923 212.800 C 66.016 205.835,65.647 131.600,66.520 131.600 C 66.846 131.600,68.708 132.380,70.657 133.333 C 81.029 138.406,97.083 143.522,110.200 145.936 C 141.893 151.769,174.606 146.948,197.400 133.086 C 202.092 130.232,201.909 130.546,202.068 125.100 C 202.144 122.515,202.204 120.415,202.203 120.433 C 202.201 120.451,200.850 121.356,199.200 122.443 M202.254 160.299 C 202.144 160.685,201.997 171.440,201.927 184.200 L 201.800 207.400 204.200 207.425 C 205.520 207.438,207.050 207.324,207.600 207.171 C 208.150 207.018,209.410 206.675,210.400 206.409 C 212.678 205.796,217.600 203.550,217.600 203.123 C 217.600 202.945,217.971 202.800,218.424 202.800 C 218.877 202.800,219.136 202.620,219.000 202.400 C 218.864 202.180,218.951 202.000,219.193 202.000 C 219.699 202.000,220.449 201.424,221.797 200.000 C 223.869 197.810,224.400 197.042,224.400 196.232 C 224.400 195.766,224.824 194.759,225.342 193.993 C 233.992 181.201,223.264 162.020,206.441 160.200 C 205.209 160.067,203.807 159.877,203.327 159.778 C 202.736 159.656,202.390 159.825,202.254 160.299 M78.800 172.400 C 77.920 173.280,77.201 174.315,77.201 174.700 C 77.203 175.176,77.445 175.002,77.962 174.155 C 80.533 169.939,86.534 170.223,88.233 174.643 C 89.194 177.141,88.917 190.534,87.872 192.072 C 85.536 195.514,80.509 195.484,78.150 192.013 C 77.576 191.168,77.200 190.873,77.200 191.267 C 77.200 192.182,79.917 194.800,80.866 194.800 C 81.299 194.800,82.020 194.997,82.469 195.237 C 83.060 195.553,83.407 195.553,83.723 195.237 C 83.963 194.997,84.529 194.796,84.980 194.791 C 85.974 194.780,87.176 193.830,88.336 192.138 C 89.459 190.498,89.670 176.069,88.600 174.001 C 86.720 170.364,81.662 169.538,78.800 172.400 M142.800 171.200 C 142.800 171.420,142.539 171.600,142.220 171.600 C 141.299 171.600,139.513 174.221,139.715 175.278 L 139.891 176.200 139.946 175.300 C 140.060 173.416,142.955 171.200,145.300 171.201 C 150.128 171.205,151.335 173.286,151.533 181.954 C 151.726 190.368,150.980 192.822,147.800 194.235 C 146.984 194.598,146.836 194.774,147.338 194.784 C 148.545 194.810,150.274 193.313,151.166 191.471 C 152.247 189.238,152.422 177.057,151.407 174.749 C 150.699 173.140,149.442 171.600,148.836 171.600 C 148.596 171.600,148.400 171.420,148.400 171.200 C 148.400 170.971,147.200 170.800,145.600 170.800 C 144.000 170.800,142.800 170.971,142.800 171.200 M76.667 176.667 C 76.229 177.104,76.355 189.125,76.800 189.400 C 77.061 189.561,77.200 187.337,77.200 183.024 C 77.200 179.381,77.140 176.400,77.067 176.400 C 76.993 176.400,76.813 176.520,76.667 176.667 M139.361 183.600 C 139.415 191.509,139.526 192.021,141.600 193.895 C 142.150 194.392,142.927 194.799,143.326 194.800 C 143.726 194.800,144.420 194.997,144.869 195.237 C 145.388 195.515,145.825 195.535,146.068 195.292 C 146.310 195.050,145.847 194.814,144.797 194.646 C 140.528 193.963,139.876 192.565,139.559 183.400 L 139.310 176.200 139.361 183.600 M89.696 221.598 C 84.247 224.920,86.626 231.268,95.200 236.282 C 98.107 237.982,100.233 239.072,101.200 239.358 C 107.829 241.319,109.314 241.572,114.200 241.572 C 119.077 241.572,120.728 241.290,127.200 239.355 C 128.645 238.923,133.962 236.084,135.600 234.870 C 142.075 230.071,143.407 226.186,139.811 222.589 C 136.909 219.687,134.335 220.053,129.551 224.046 C 127.480 225.774,123.477 228.000,122.439 228.000 C 122.066 228.000,121.589 228.151,121.380 228.335 C 120.891 228.767,116.160 229.600,114.200 229.600 C 112.240 229.600,107.509 228.767,107.020 228.335 C 106.811 228.151,106.321 228.000,105.932 228.000 C 105.293 228.000,104.542 227.644,101.575 225.938 C 101.061 225.642,100.272 225.067,99.820 224.660 C 95.733 220.974,92.382 219.961,89.696 221.598 M95.078 222.300 C 96.327 222.991,98.104 224.299,99.753 225.740 C 100.219 226.147,101.275 226.775,102.100 227.134 C 102.925 227.494,103.600 227.926,103.600 228.094 C 103.600 228.262,103.949 228.400,104.376 228.400 C 104.803 228.400,105.264 228.580,105.400 228.800 C 105.536 229.020,106.141 229.200,106.744 229.200 C 107.347 229.200,108.038 229.398,108.280 229.640 C 108.557 229.917,110.748 230.080,114.200 230.080 C 117.652 230.080,119.843 229.917,120.120 229.640 C 120.362 229.398,120.976 229.200,121.485 229.200 C 122.361 229.200,122.732 229.062,124.900 227.930 C 128.071 226.275,128.967 225.697,130.466 224.340 C 134.256 220.911,138.643 220.789,140.097 224.074 C 140.371 224.693,140.731 225.200,140.898 225.200 C 141.509 225.200,141.175 227.569,140.354 229.062 C 138.745 231.985,128.528 238.800,125.754 238.800 C 125.229 238.800,124.800 238.980,124.800 239.200 C 124.800 239.420,124.296 239.600,123.680 239.600 C 123.064 239.600,122.389 239.765,122.180 239.968 C 121.971 240.170,120.630 240.432,119.200 240.550 C 117.770 240.669,115.728 240.883,114.663 241.026 C 113.440 241.190,112.563 241.123,112.283 240.843 C 112.039 240.599,110.616 240.400,109.120 240.400 C 107.573 240.400,106.400 240.227,106.400 240.000 C 106.400 239.780,105.871 239.600,105.224 239.600 C 104.577 239.600,103.936 239.420,103.800 239.200 C 103.664 238.980,103.139 238.800,102.633 238.800 C 101.702 238.800,96.713 236.453,96.467 235.900 C 96.393 235.735,96.140 235.600,95.904 235.600 C 95.476 235.600,92.048 233.102,89.867 231.200 C 84.934 226.900,89.450 219.187,95.078 222.300 M104.282 331.918 C 99.287 336.917,95.200 341.137,95.200 341.298 C 95.200 341.630,99.611 347.200,99.874 347.200 C 99.969 347.200,99.181 346.101,98.123 344.757 C 97.066 343.413,96.029 342.077,95.821 341.787 C 95.540 341.397,97.809 338.906,104.555 332.197 C 109.567 327.212,113.599 323.066,113.515 322.982 C 113.432 322.898,109.277 326.920,104.282 331.918 M121.005 329.262 C 132.257 340.631,132.834 341.200,133.116 341.200 C 133.269 341.200,129.256 337.060,124.200 332.000 C 119.144 326.940,114.917 322.800,114.808 322.800 C 114.699 322.800,117.487 325.708,121.005 329.262 M130.887 343.816 C 129.190 346.123,129.483 346.114,131.379 343.800 C 132.190 342.810,132.707 342.007,132.527 342.016 C 132.347 342.024,131.609 342.834,130.887 343.816 M102.228 350.400 C 104.287 352.949,105.866 354.487,104.133 352.256 C 103.730 351.737,102.770 350.484,102.000 349.472 C 101.230 348.459,100.457 347.624,100.283 347.616 C 100.108 347.607,100.984 348.860,102.228 350.400 M126.766 349.110 C 125.153 350.964,124.576 351.768,125.071 351.471 C 125.592 351.159,128.166 348.000,127.900 348.000 C 127.808 348.000,127.297 348.500,126.766 349.110 M121.375 355.868 C 120.759 356.676,120.459 357.211,120.709 357.056 C 121.221 356.740,122.953 354.400,122.675 354.400 C 122.576 354.400,121.991 355.061,121.375 355.868 M109.465 359.400 C 111.131 361.394,111.713 361.814,110.433 360.100 C 108.884 358.024,108.511 357.600,108.236 357.600 C 108.084 357.600,108.637 358.410,109.465 359.400 M119.359 358.500 C 117.607 360.521,117.087 361.200,117.290 361.200 C 117.407 361.200,118.167 360.390,118.979 359.400 C 120.481 357.566,120.779 356.863,119.359 358.500 M111.600 361.731 C 111.600 363.431,114.371 365.238,115.232 364.100 C 115.682 363.504,115.678 363.475,115.201 363.900 C 114.306 364.698,113.798 364.499,112.664 362.905 C 112.079 362.082,111.600 361.554,111.600 361.731 M113.170 366.700 L 112.200 367.800 113.400 366.800 C 114.060 366.250,114.675 365.755,114.767 365.700 C 114.858 365.645,114.755 365.600,114.536 365.600 C 114.318 365.600,113.703 366.095,113.170 366.700 M110.603 369.822 C 109.782 370.824,109.176 371.703,109.255 371.776 C 109.335 371.849,110.088 371.029,110.929 369.954 C 112.859 367.488,112.602 367.383,110.603 369.822 M119.832 372.800 C 120.869 374.120,121.999 375.425,122.342 375.700 C 122.686 375.975,121.919 374.895,120.638 373.300 C 119.358 371.705,118.228 370.400,118.128 370.400 C 118.029 370.400,118.795 371.480,119.832 372.800 M107.375 373.868 C 106.759 374.676,106.459 375.211,106.709 375.056 C 107.221 374.740,108.953 372.400,108.675 372.400 C 108.576 372.400,107.991 373.061,107.375 373.868 M104.175 377.868 C 103.559 378.676,103.259 379.211,103.509 379.056 C 104.021 378.740,105.753 376.400,105.475 376.400 C 105.376 376.400,104.791 377.061,104.175 377.868 M125.232 379.381 C 125.360 379.612,127.626 382.500,130.269 385.800 C 132.911 389.100,135.241 392.110,135.447 392.490 C 135.794 393.131,135.854 393.125,136.304 392.405 C 136.698 391.774,136.686 391.669,136.242 391.839 C 135.894 391.973,134.033 389.977,131.100 386.324 C 126.563 380.675,124.779 378.563,125.232 379.381 M96.644 387.384 C 94.970 389.465,93.600 391.282,93.600 391.421 C 93.600 391.560,94.446 390.622,95.479 389.337 C 96.513 388.052,97.975 386.235,98.728 385.300 C 99.480 384.365,100.004 383.600,99.892 383.600 C 99.779 383.600,98.318 385.303,96.644 387.384 M92.281 392.667 C 92.393 392.960,92.646 393.200,92.843 393.200 C 93.039 393.200,93.200 392.960,93.200 392.667 C 93.200 392.373,92.947 392.133,92.638 392.133 C 92.329 392.133,92.168 392.373,92.281 392.667 " stroke="none" fill="#eb9b8c" fill-rule="evenodd"></path><path id="path3" d="M90.449 222.284 C 86.943 224.011,86.657 228.402,89.867 231.200 C 92.048 233.102,95.476 235.600,95.904 235.600 C 96.140 235.600,96.393 235.735,96.467 235.900 C 96.713 236.453,101.702 238.800,102.633 238.800 C 103.139 238.800,103.664 238.980,103.800 239.200 C 103.936 239.420,104.577 239.600,105.224 239.600 C 105.871 239.600,106.400 239.780,106.400 240.000 C 106.400 240.227,107.573 240.400,109.120 240.400 C 110.616 240.400,112.039 240.599,112.283 240.843 C 112.563 241.123,113.440 241.190,114.663 241.026 C 115.728 240.883,117.770 240.669,119.200 240.550 C 120.630 240.432,121.971 240.170,122.180 239.968 C 122.389 239.765,123.064 239.600,123.680 239.600 C 124.296 239.600,124.800 239.420,124.800 239.200 C 124.800 238.980,125.229 238.800,125.754 238.800 C 128.528 238.800,138.745 231.985,140.354 229.062 C 141.175 227.569,141.509 225.200,140.898 225.200 C 140.731 225.200,140.371 224.693,140.097 224.074 C 138.643 220.789,134.256 220.911,130.466 224.340 C 128.967 225.697,128.071 226.275,124.900 227.930 C 122.732 229.062,122.361 229.200,121.485 229.200 C 120.976 229.200,120.362 229.398,120.120 229.640 C 119.843 229.917,117.652 230.080,114.200 230.080 C 110.748 230.080,108.557 229.917,108.280 229.640 C 108.038 229.398,107.347 229.200,106.744 229.200 C 106.141 229.200,105.536 229.020,105.400 228.800 C 105.264 228.580,104.803 228.400,104.376 228.400 C 103.949 228.400,103.600 228.262,103.600 228.094 C 103.600 227.926,102.925 227.494,102.100 227.134 C 101.275 226.775,100.219 226.147,99.753 225.740 C 95.123 221.693,93.142 220.957,90.449 222.284 M104.700 331.986 C 99.695 337.005,95.600 341.224,95.600 341.361 C 95.600 341.499,96.432 342.644,97.449 343.906 C 98.466 345.168,99.861 346.907,100.549 347.770 C 101.237 348.634,102.340 349.999,103.000 350.803 C 103.660 351.606,104.650 352.859,105.200 353.585 C 105.750 354.312,106.470 355.227,106.800 355.620 C 108.020 357.069,108.643 357.842,110.006 359.590 C 110.772 360.575,111.637 361.635,111.928 361.946 C 112.218 362.258,112.733 362.937,113.074 363.456 C 114.082 364.995,114.430 364.701,120.033 357.573 C 122.985 353.818,125.735 350.353,126.145 349.873 C 126.555 349.393,127.364 348.370,127.943 347.600 C 128.522 346.830,129.091 346.110,129.208 346.000 C 129.325 345.890,130.045 344.990,130.807 344.000 C 131.570 343.010,132.330 342.140,132.497 342.067 C 132.664 341.993,132.800 341.765,132.800 341.560 C 132.800 341.011,114.742 322.795,114.233 322.831 C 113.995 322.848,109.705 326.968,104.700 331.986 M111.738 368.900 C 110.476 370.495,109.343 371.890,109.221 372.000 C 109.100 372.110,108.372 373.010,107.606 374.000 C 106.839 374.990,105.991 376.070,105.721 376.400 C 105.452 376.730,102.674 380.240,99.548 384.200 C 96.423 388.160,93.716 391.460,93.533 391.533 C 93.350 391.607,93.200 392.012,93.200 392.433 C 93.200 393.179,93.774 393.200,114.400 393.200 C 127.226 393.200,135.600 393.053,135.600 392.827 C 135.600 392.623,133.248 389.518,130.374 385.927 C 123.885 377.823,124.445 378.527,119.078 371.720 C 113.794 365.018,114.574 365.318,111.738 368.900 " stroke="none" fill="#ee576f" fill-rule="evenodd"></path><path id="path4" d="M202.000 125.738 C 202.000 130.513,202.245 130.122,197.400 133.079 C 174.700 146.932,141.895 151.769,110.200 145.936 C 97.083 143.522,81.029 138.406,70.657 133.333 C 68.708 132.380,66.846 131.600,66.520 131.600 C 65.647 131.600,66.016 205.835,66.923 212.800 C 67.782 219.391,67.978 220.733,68.447 223.200 C 73.937 252.090,86.112 272.841,102.153 280.648 C 103.682 281.391,105.226 282.000,105.586 282.000 C 105.946 282.000,106.422 282.182,106.645 282.405 C 108.796 284.556,124.129 283.607,136.503 280.557 C 139.530 279.811,142.635 279.200,143.403 279.200 C 144.171 279.200,144.800 279.020,144.800 278.800 C 144.800 278.580,145.340 278.400,146.000 278.400 C 146.660 278.400,147.200 278.220,147.200 278.000 C 147.200 277.780,147.560 277.600,148.000 277.600 C 148.440 277.600,148.800 277.458,148.800 277.285 C 148.800 277.112,149.189 276.941,149.664 276.905 C 150.139 276.869,150.634 276.687,150.764 276.499 C 151.029 276.116,153.838 274.753,154.591 274.643 C 154.860 274.603,155.602 274.217,156.240 273.785 C 157.802 272.728,160.440 271.250,161.300 270.950 C 161.685 270.816,162.000 270.548,162.000 270.353 C 162.000 270.159,162.225 270.000,162.500 270.000 C 162.775 269.999,163.517 269.554,164.149 269.011 C 164.781 268.467,165.636 267.916,166.049 267.784 C 166.462 267.653,166.800 267.387,166.800 267.192 C 166.800 266.998,167.634 266.265,168.653 265.564 C 172.059 263.220,183.171 252.328,183.211 251.293 C 183.218 251.132,183.938 250.197,184.811 249.214 C 185.685 248.232,186.400 247.237,186.400 247.003 C 186.400 246.768,186.760 246.317,187.200 246.000 C 187.640 245.683,188.000 245.193,188.000 244.912 C 188.000 244.630,188.141 244.400,188.312 244.400 C 188.484 244.400,188.831 243.905,189.084 243.300 C 189.686 241.859,190.921 239.835,191.300 239.667 C 191.465 239.593,191.600 239.314,191.600 239.046 C 191.600 238.337,192.549 236.407,192.900 236.403 C 193.065 236.401,193.200 236.040,193.200 235.600 C 193.200 235.160,193.380 234.800,193.600 234.800 C 193.820 234.800,194.000 234.440,194.000 234.000 C 194.000 233.560,194.180 233.200,194.400 233.200 C 194.620 233.200,194.800 232.840,194.800 232.400 C 194.800 231.960,194.980 231.600,195.200 231.600 C 195.420 231.600,195.600 231.240,195.600 230.800 C 195.600 230.360,195.780 230.000,196.000 230.000 C 196.220 230.000,196.400 229.460,196.400 228.800 C 196.400 228.140,196.580 227.600,196.800 227.600 C 197.020 227.600,197.200 227.251,197.200 226.824 C 197.200 226.397,197.380 225.936,197.600 225.800 C 197.820 225.664,198.000 225.023,198.000 224.376 C 198.000 223.729,198.180 223.200,198.400 223.200 C 198.620 223.200,198.800 222.761,198.800 222.224 C 198.800 221.687,198.980 221.136,199.200 221.000 C 199.420 220.864,199.600 220.144,199.600 219.400 C 199.600 218.656,199.780 217.936,200.000 217.800 C 200.220 217.664,200.400 216.933,200.400 216.176 C 200.400 215.419,200.580 214.800,200.800 214.800 C 201.020 214.800,201.200 213.821,201.200 212.624 C 201.200 211.427,201.338 210.362,201.506 210.258 C 201.675 210.154,201.857 198.938,201.911 185.334 C 201.964 171.730,202.069 151.825,202.144 141.100 C 202.218 130.375,202.217 121.600,202.140 121.600 C 202.063 121.600,202.000 123.462,202.000 125.738 M86.663 171.821 C 89.048 173.640,89.200 174.310,89.200 183.018 C 89.200 192.008,88.215 194.756,84.980 194.791 C 84.529 194.796,83.963 194.997,83.723 195.237 C 83.407 195.553,83.060 195.553,82.469 195.237 C 82.020 194.997,81.299 194.800,80.866 194.800 C 79.641 194.800,77.200 192.126,77.200 190.784 C 77.200 190.159,77.020 189.536,76.800 189.400 C 76.561 189.253,76.400 186.670,76.400 183.000 C 76.400 179.330,76.561 176.747,76.800 176.600 C 77.020 176.464,77.200 175.823,77.200 175.176 C 77.200 171.529,83.398 169.331,86.663 171.821 M148.400 171.200 C 148.400 171.420,148.596 171.600,148.836 171.600 C 153.107 171.600,153.426 190.991,149.204 193.997 C 148.584 194.439,147.735 194.800,147.318 194.800 C 146.901 194.800,146.363 194.997,146.123 195.237 C 145.807 195.553,145.460 195.553,144.869 195.237 C 144.420 194.997,143.726 194.800,143.326 194.800 C 142.927 194.799,142.149 194.394,141.597 193.900 C 139.551 192.063,139.400 191.288,139.400 182.606 L 139.400 174.537 140.520 173.068 C 141.137 172.261,141.902 171.600,142.220 171.600 C 142.539 171.600,142.800 171.420,142.800 171.200 C 142.800 170.971,144.000 170.800,145.600 170.800 C 147.200 170.800,148.400 170.971,148.400 171.200 M96.722 222.360 C 97.975 223.218,99.369 224.253,99.820 224.660 C 100.272 225.067,101.061 225.642,101.575 225.938 C 104.542 227.644,105.293 228.000,105.932 228.000 C 106.321 228.000,106.811 228.151,107.020 228.335 C 107.509 228.767,112.240 229.600,114.200 229.600 C 116.160 229.600,120.891 228.767,121.380 228.335 C 121.589 228.151,122.066 228.000,122.439 228.000 C 123.477 228.000,127.480 225.774,129.551 224.046 C 134.335 220.053,136.909 219.687,139.811 222.589 C 143.407 226.186,142.075 230.071,135.600 234.870 C 133.962 236.084,128.645 238.923,127.200 239.355 C 120.728 241.290,119.077 241.572,114.200 241.572 C 109.314 241.572,107.829 241.319,101.200 239.358 C 94.829 237.474,86.798 230.444,86.801 226.753 C 86.806 221.477,92.045 219.157,96.722 222.360 M141.531 291.002 C 141.208 291.325,135.733 292.743,131.600 293.574 C 125.194 294.861,121.388 295.200,113.336 295.200 L 105.600 295.200 105.600 306.000 C 105.600 311.940,105.482 316.800,105.338 316.800 C 105.195 316.800,103.890 316.139,102.438 315.331 C 100.987 314.523,99.210 313.533,98.488 313.131 C 97.766 312.729,97.051 312.400,96.899 312.400 C 96.328 312.400,99.640 314.392,104.400 316.911 C 105.610 317.552,107.950 318.808,109.600 319.704 C 111.250 320.600,112.960 321.528,113.400 321.766 C 113.840 322.005,114.292 322.290,114.403 322.400 C 114.515 322.510,115.145 323.049,115.803 323.599 L 117.000 324.597 115.901 323.378 C 114.884 322.250,114.939 321.200,116.014 321.200 C 116.154 321.200,121.653 318.151,128.234 314.425 C 134.815 310.699,140.695 307.377,141.300 307.044 L 142.400 306.437 142.400 298.619 C 142.400 291.646,142.245 290.288,141.531 291.002 M86.193 306.388 C 86.428 306.768,89.020 308.342,94.100 311.188 C 95.365 311.897,96.399 312.324,96.397 312.138 C 96.395 311.952,95.990 311.613,95.497 311.383 C 93.634 310.518,90.995 308.989,90.867 308.700 C 90.793 308.535,90.576 308.400,90.384 308.400 C 90.192 308.400,89.115 307.857,87.991 307.194 C 86.866 306.531,86.057 306.169,86.193 306.388 M122.200 330.000 C 123.728 331.540,125.069 332.800,125.179 332.800 C 125.289 332.800,124.128 331.540,122.600 330.000 C 121.072 328.460,119.731 327.200,119.621 327.200 C 119.511 327.200,120.672 328.460,122.200 330.000 M132.832 341.531 C 132.814 341.824,131.689 343.444,130.330 345.131 C 127.264 348.942,126.649 349.813,128.200 348.149 C 130.626 345.546,133.248 341.947,133.058 341.480 C 132.920 341.139,132.854 341.154,132.832 341.531 M96.896 344.195 C 97.393 344.962,97.944 345.592,98.120 345.595 C 98.297 345.598,97.960 344.970,97.373 344.200 C 96.000 342.400,95.732 342.397,96.896 344.195 M99.678 347.700 C 100.433 348.635,102.615 351.354,104.526 353.742 C 106.437 356.130,108.000 357.970,108.000 357.832 C 108.000 357.499,98.776 346.000,98.509 346.000 C 98.396 346.000,98.922 346.765,99.678 347.700 M125.759 350.900 C 124.105 352.808,123.425 353.826,124.625 352.597 C 126.034 351.155,126.965 350.000,126.719 350.000 C 126.620 350.000,126.188 350.405,125.759 350.900 M122.493 354.800 C 122.218 355.240,122.131 355.600,122.300 355.600 C 122.469 355.600,122.832 355.240,123.107 354.800 C 123.382 354.360,123.469 354.000,123.300 354.000 C 123.131 354.000,122.768 354.360,122.493 354.800 M120.221 357.800 C 119.410 358.790,118.893 359.593,119.073 359.584 C 119.399 359.569,122.174 356.000,121.861 356.000 C 121.770 356.000,121.033 356.810,120.221 357.800 M109.156 359.400 C 110.549 361.410,111.184 362.150,111.363 361.970 C 111.457 361.876,110.812 360.989,109.930 360.000 C 109.047 359.010,108.699 358.740,109.156 359.400 M116.568 362.400 C 114.415 365.139,114.171 365.223,112.800 363.688 C 112.250 363.072,111.971 362.846,112.181 363.184 C 112.391 363.523,112.917 364.205,113.351 364.700 C 113.785 365.195,113.971 365.600,113.766 365.600 C 113.561 365.600,113.145 366.005,112.844 366.500 C 112.313 367.370,112.330 367.367,113.346 366.432 C 113.924 365.899,114.458 365.539,114.532 365.632 C 114.607 365.724,116.067 367.555,117.778 369.700 C 119.488 371.845,120.980 373.600,121.093 373.600 C 121.348 373.600,121.160 373.348,117.955 369.400 C 116.527 367.640,115.236 365.998,115.086 365.750 C 114.937 365.503,115.717 364.108,116.821 362.650 C 119.324 359.344,119.124 359.146,116.568 362.400 M111.398 368.159 C 111.179 368.466,110.583 369.276,110.073 369.959 C 108.671 371.835,109.302 371.446,110.979 369.400 C 111.790 368.410,112.306 367.600,112.125 367.600 C 111.944 367.600,111.617 367.851,111.398 368.159 M107.203 373.512 C 106.434 374.551,105.708 375.490,105.590 375.600 C 105.415 375.763,98.493 384.473,97.087 386.300 C 96.875 386.575,96.798 386.800,96.915 386.800 C 97.033 386.800,99.515 383.785,102.431 380.100 C 105.347 376.415,108.095 372.995,108.536 372.500 C 108.978 372.005,109.173 371.606,108.970 371.612 C 108.766 371.619,107.971 372.474,107.203 373.512 M122.621 375.800 C 123.433 376.790,124.170 377.600,124.261 377.600 C 124.574 377.600,121.799 374.031,121.473 374.016 C 121.293 374.007,121.810 374.810,122.621 375.800 M125.821 379.800 C 127.434 381.768,128.149 382.263,126.833 380.500 C 125.279 378.417,124.911 378.000,124.629 378.000 C 124.474 378.000,125.010 378.810,125.821 379.800 M128.000 382.205 C 128.000 382.569,133.978 390.000,134.271 390.000 C 134.395 390.000,133.880 389.235,133.128 388.300 C 132.375 387.365,130.913 385.548,129.879 384.263 C 128.846 382.978,128.000 382.052,128.000 382.205 M95.798 387.759 C 95.579 388.066,94.983 388.876,94.473 389.559 C 93.071 391.435,93.702 391.046,95.379 389.000 C 96.190 388.010,96.706 387.200,96.525 387.200 C 96.344 387.200,96.017 387.451,95.798 387.759 " stroke="none" fill="#fbc8b2" fill-rule="evenodd"></path></g></svg>