<svg id="svg" version="1.1" xmlns="http://www.w3.org/2000/svg" xmlns:xlink="http://www.w3.org/1999/xlink" width="400" height="400" viewBox="0, 0, 400,400"><g id="svgg"><path id="path0" d="M214.750 104.976 C 211.766 107.003,211.800 106.748,211.800 127.400 C 211.800 153.173,209.367 150.529,233.329 150.800 L 251.000 151.000 251.108 159.500 L 251.216 168.000 260.000 168.000 L 268.784 168.000 268.892 159.500 L 269.000 151.000 286.400 150.800 C 310.404 150.524,308.000 153.128,308.000 127.400 C 308.000 106.562,308.013 106.654,304.846 104.874 L 303.291 104.000 259.738 104.000 L 216.186 104.000 214.750 104.976 M293.000 114.000 C 293.136 114.220,293.568 114.400,293.959 114.400 C 295.399 114.400,295.600 116.026,295.600 127.645 C 295.600 138.853,295.428 140.400,294.186 140.400 C 293.864 140.400,293.600 140.580,293.600 140.800 C 293.600 141.410,226.620 141.345,225.474 140.735 C 223.650 139.763,223.625 139.588,223.625 127.400 C 223.625 115.019,223.654 114.829,225.636 114.036 C 226.978 113.500,292.669 113.464,293.000 114.000 M220.183 205.400 C 220.183 214.420,220.235 218.167,220.299 213.727 C 220.364 209.287,220.364 201.907,220.300 197.327 C 220.235 192.747,220.183 196.380,220.183 205.400 M276.900 189.498 L 295.200 189.608 295.200 205.684 C 295.200 216.526,295.332 221.628,295.605 221.355 C 295.868 221.092,295.973 215.422,295.905 205.175 L 295.800 189.400 277.200 189.394 L 258.600 189.388 276.900 189.498 M230.328 221.900 C 235.678 221.963,244.318 221.963,249.528 221.900 C 254.737 221.836,250.360 221.785,239.800 221.785 C 229.240 221.785,224.977 221.837,230.328 221.900 M96.492 276.700 L 96.600 285.800 105.149 285.908 C 111.118 285.984,113.865 285.878,114.249 285.559 C 114.822 285.083,115.097 269.639,114.557 268.233 C 114.346 267.682,113.155 267.600,105.350 267.600 L 96.385 267.600 96.492 276.700 M134.246 268.225 C 133.879 269.179,133.961 284.919,134.335 285.508 C 134.583 285.899,136.678 285.991,143.429 285.908 L 152.200 285.800 152.200 276.800 L 152.200 267.800 143.346 267.692 C 135.533 267.598,134.462 267.660,134.246 268.225 M172.092 276.700 L 172.200 285.800 180.749 285.908 C 186.718 285.984,189.465 285.878,189.849 285.559 C 190.422 285.083,190.697 269.639,190.157 268.233 C 189.946 267.682,188.755 267.600,180.950 267.600 L 171.985 267.600 172.092 276.700 M209.843 268.233 C 209.360 269.491,209.573 285.013,210.080 285.520 C 210.424 285.864,213.031 286.000,219.280 286.000 L 228.000 286.000 228.000 276.800 L 228.000 267.600 219.043 267.600 C 211.244 267.600,210.054 267.682,209.843 268.233 M247.782 268.102 C 247.673 268.387,247.632 272.485,247.692 277.210 L 247.800 285.800 256.800 285.800 L 265.800 285.800 265.800 276.800 L 265.800 267.800 256.890 267.692 C 249.892 267.608,247.938 267.696,247.782 268.102 M285.446 268.225 C 284.949 269.520,285.174 284.611,285.701 285.332 C 286.151 285.948,287.081 286.005,295.001 285.908 L 303.800 285.800 303.800 276.800 L 303.800 267.800 294.746 267.693 C 286.751 267.598,285.663 267.660,285.446 268.225 M96.400 311.350 C 96.400 319.155,96.482 320.346,97.033 320.557 C 98.322 321.052,113.414 320.824,114.132 320.299 C 114.747 319.849,114.806 318.931,114.708 311.199 L 114.600 302.600 105.500 302.492 L 96.400 302.385 96.400 311.350 M134.267 302.667 C 133.700 303.234,133.967 319.874,134.551 320.359 C 134.935 320.678,137.682 320.784,143.651 320.708 L 152.200 320.600 152.308 311.500 L 152.415 302.400 143.474 302.400 C 138.557 302.400,134.413 302.520,134.267 302.667 M172.000 311.350 C 172.000 319.155,172.082 320.346,172.633 320.557 C 174.039 321.097,189.483 320.822,189.959 320.249 C 190.278 319.865,190.384 317.118,190.308 311.149 L 190.200 302.600 181.100 302.492 L 172.000 302.385 172.000 311.350 M209.867 302.667 C 209.300 303.234,209.567 319.874,210.151 320.359 C 210.535 320.678,213.282 320.784,219.251 320.708 L 227.800 320.600 227.908 311.500 L 228.015 302.400 219.074 302.400 C 214.157 302.400,210.013 302.520,209.867 302.667 M247.692 311.492 L 247.800 320.600 256.445 320.708 C 267.108 320.840,266.044 321.915,265.908 311.149 L 265.800 302.600 256.692 302.492 L 247.585 302.385 247.692 311.492 M285.474 302.659 C 284.962 303.171,285.156 319.796,285.680 320.320 C 286.420 321.060,302.941 320.995,303.559 320.249 C 303.878 319.865,303.984 317.118,303.908 311.149 L 303.800 302.600 294.774 302.493 C 289.810 302.434,285.625 302.509,285.474 302.659 M67.796 350.407 C 67.658 350.630,67.349 350.692,67.111 350.545 C 66.851 350.385,66.791 350.463,66.962 350.738 C 67.119 350.992,67.507 351.200,67.824 351.200 C 68.141 351.200,68.400 351.380,68.400 351.600 C 68.400 351.820,68.737 352.000,69.150 352.000 C 69.562 352.000,70.587 352.630,71.428 353.400 C 72.269 354.170,73.115 354.800,73.310 354.800 C 73.504 354.800,74.354 355.520,75.200 356.400 C 76.046 357.280,76.905 358.000,77.109 358.000 C 77.551 358.000,79.556 359.919,80.388 361.138 C 80.712 361.612,81.220 362.000,81.517 362.000 C 82.194 362.000,83.247 363.019,82.914 363.352 C 82.778 363.489,83.107 363.600,83.645 363.600 C 84.183 363.600,84.883 363.960,85.200 364.400 C 85.517 364.840,86.057 365.200,86.400 365.200 C 86.743 365.200,87.283 365.560,87.600 366.000 C 87.917 366.440,88.457 366.800,88.800 366.800 C 89.143 366.800,89.683 367.160,90.000 367.600 C 90.317 368.040,90.857 368.400,91.200 368.400 C 91.543 368.400,92.083 368.760,92.400 369.200 C 92.717 369.640,93.297 370.000,93.688 370.000 C 94.080 370.000,94.400 370.249,94.400 370.554 C 94.400 371.260,96.121 372.400,97.186 372.400 C 97.634 372.400,98.000 372.580,98.000 372.800 C 98.000 373.020,98.360 373.200,98.800 373.200 C 99.240 373.200,99.926 373.526,100.325 373.925 C 100.724 374.324,101.264 374.579,101.525 374.492 C 101.786 374.405,102.000 374.528,102.000 374.767 C 102.000 375.005,102.332 375.200,102.739 375.200 C 103.145 375.200,103.673 375.605,103.912 376.100 C 104.151 376.595,104.358 376.775,104.373 376.500 C 104.418 375.661,105.200 375.944,105.200 376.800 C 105.200 377.680,105.788 377.867,106.242 377.132 C 106.434 376.821,106.640 376.956,106.853 377.532 C 107.067 378.110,107.513 378.400,108.187 378.400 C 108.744 378.400,109.200 378.580,109.200 378.800 C 109.200 379.020,109.548 379.200,109.973 379.200 C 110.411 379.200,110.864 379.570,111.017 380.053 C 111.234 380.736,111.364 380.796,111.674 380.353 C 111.973 379.926,112.107 379.914,112.264 380.300 C 112.375 380.575,112.902 380.800,113.433 380.800 C 113.965 380.800,114.400 380.980,114.400 381.200 C 114.400 381.420,114.760 381.600,115.200 381.600 C 115.640 381.600,116.000 381.780,116.000 382.000 C 116.000 382.220,116.360 382.400,116.800 382.400 C 117.240 382.400,117.600 382.580,117.600 382.800 C 117.600 383.020,117.960 383.200,118.400 383.200 C 118.840 383.200,119.200 383.380,119.200 383.600 C 119.200 383.820,119.560 384.000,120.000 384.000 C 120.440 384.000,120.800 384.180,120.800 384.400 C 120.800 384.620,121.340 384.800,122.000 384.800 C 122.660 384.800,123.200 384.980,123.200 385.200 C 123.200 385.420,123.478 385.600,123.817 385.600 C 124.156 385.600,124.820 385.960,125.292 386.400 C 125.764 386.840,126.342 387.197,126.575 387.194 C 126.809 387.191,126.730 387.013,126.400 386.800 C 125.887 386.469,125.902 386.411,126.500 386.406 C 126.885 386.403,127.200 386.580,127.200 386.800 C 127.200 387.020,127.483 387.200,127.829 387.200 C 128.174 387.200,128.711 387.454,129.022 387.764 C 129.332 388.075,129.949 388.234,130.393 388.118 C 130.847 387.999,131.200 388.102,131.200 388.353 C 131.200 388.599,131.573 388.800,132.029 388.800 C 132.484 388.800,133.137 389.080,133.480 389.423 C 133.823 389.766,134.350 389.951,134.652 389.836 C 134.953 389.720,135.200 389.756,135.200 389.915 C 135.200 390.527,137.713 391.286,139.031 391.072 C 139.784 390.950,140.400 391.019,140.400 391.225 C 140.400 391.431,140.990 391.600,141.712 391.600 C 142.560 391.600,143.225 391.880,143.594 392.391 C 144.020 392.983,144.251 393.059,144.512 392.691 C 144.787 392.304,144.904 392.306,145.064 392.700 C 145.175 392.975,145.597 393.200,146.000 393.200 C 146.403 393.200,146.824 393.425,146.935 393.700 C 147.096 394.100,147.143 394.100,147.168 393.700 C 147.206 393.111,148.400 393.014,148.400 393.600 C 148.400 393.820,149.120 394.000,150.000 394.000 C 150.880 394.000,151.600 394.180,151.600 394.400 C 151.600 394.620,152.320 394.800,153.200 394.800 C 154.080 394.800,154.800 394.980,154.800 395.200 C 154.800 395.420,155.610 395.600,156.600 395.600 C 157.590 395.600,158.400 395.780,158.400 396.000 C 158.400 396.220,159.109 396.400,159.976 396.400 C 160.843 396.400,161.664 396.580,161.800 396.800 C 161.936 397.020,163.117 397.200,164.424 397.200 C 165.741 397.200,166.800 397.378,166.800 397.600 C 166.800 397.823,167.875 398.000,169.224 398.000 C 170.737 398.000,171.554 398.150,171.400 398.400 C 171.243 398.655,172.385 398.800,174.543 398.800 C 176.900 398.800,177.984 398.952,178.100 399.300 C 178.231 399.692,182.969 399.800,200.000 399.800 C 217.031 399.800,221.769 399.692,221.900 399.300 C 222.016 398.953,223.096 398.800,225.433 398.800 C 227.411 398.800,228.800 398.635,228.800 398.400 C 228.800 398.180,229.790 398.000,231.000 398.000 C 232.210 398.000,233.200 397.820,233.200 397.600 C 233.200 397.374,234.333 397.200,235.800 397.200 C 237.267 397.200,238.400 397.026,238.400 396.800 C 238.400 396.580,239.120 396.400,240.000 396.400 C 240.880 396.400,241.600 396.220,241.600 396.000 C 241.600 395.780,242.485 395.600,243.567 395.600 C 244.765 395.600,245.613 395.405,245.736 395.100 C 245.889 394.722,246.052 394.747,246.400 395.200 C 246.748 395.653,246.911 395.678,247.064 395.300 C 247.175 395.025,247.522 394.800,247.833 394.800 C 248.145 394.800,248.400 394.620,248.400 394.400 C 248.400 394.180,249.120 394.000,250.000 394.000 C 250.880 394.000,251.600 393.820,251.600 393.600 C 251.600 393.380,252.590 393.200,253.800 393.200 C 255.010 393.200,256.000 393.020,256.000 392.800 C 256.000 392.580,256.270 392.400,256.600 392.400 C 256.930 392.400,257.200 392.220,257.200 392.000 C 257.200 391.780,257.740 391.600,258.400 391.600 C 259.060 391.600,259.600 391.456,259.600 391.280 C 259.600 391.104,260.230 391.034,261.000 391.124 C 261.857 391.224,262.400 391.115,262.400 390.844 C 262.400 390.600,262.850 390.400,263.400 390.400 C 263.950 390.400,264.400 390.220,264.400 390.000 C 264.400 389.780,264.940 389.600,265.600 389.600 C 266.260 389.600,266.800 389.420,266.800 389.200 C 266.800 388.980,267.250 388.800,267.800 388.800 C 268.350 388.800,268.800 388.620,268.800 388.400 C 268.800 388.180,269.081 388.000,269.424 388.000 C 269.767 388.000,269.941 388.172,269.810 388.383 C 269.680 388.594,270.062 388.513,270.658 388.204 C 271.255 387.894,271.891 387.732,272.071 387.844 C 272.252 387.956,272.400 387.857,272.400 387.624 C 272.400 387.391,272.810 387.200,273.312 387.200 C 273.813 387.200,274.483 386.840,274.800 386.400 C 275.117 385.960,275.697 385.600,276.088 385.600 C 276.480 385.600,276.800 385.420,276.800 385.200 C 276.800 384.980,277.250 384.800,277.800 384.800 C 278.350 384.800,278.800 384.620,278.800 384.400 C 278.800 384.180,279.250 384.000,279.800 384.000 C 280.350 384.000,280.800 383.820,280.800 383.600 C 280.800 383.380,281.160 383.200,281.600 383.200 C 282.040 383.200,282.400 383.020,282.400 382.800 C 282.400 382.580,282.760 382.400,283.200 382.400 C 283.640 382.400,284.000 382.220,284.000 382.000 C 284.000 381.780,284.191 381.600,284.424 381.600 C 284.657 381.600,284.736 381.780,284.600 382.000 C 284.464 382.220,284.560 382.400,284.814 382.400 C 285.067 382.400,285.369 382.040,285.484 381.600 C 285.619 381.082,286.030 380.800,286.647 380.800 C 287.171 380.800,287.600 380.620,287.600 380.400 C 287.600 380.180,288.138 380.000,288.797 380.000 C 289.560 380.000,290.174 379.710,290.493 379.200 C 290.768 378.760,291.219 378.400,291.496 378.400 C 291.773 378.400,292.000 378.220,292.000 378.000 C 292.000 377.780,292.270 377.600,292.600 377.600 C 292.930 377.600,293.200 377.420,293.200 377.200 C 293.200 376.980,293.545 376.800,293.967 376.800 C 294.388 376.800,294.825 376.575,294.936 376.300 C 295.089 375.924,295.245 375.948,295.570 376.400 C 295.934 376.908,296.038 376.862,296.247 376.100 C 296.391 375.573,296.805 375.200,297.247 375.200 C 297.661 375.200,298.000 375.045,298.000 374.855 C 298.000 374.665,298.451 374.560,299.002 374.620 C 299.553 374.680,299.932 374.611,299.844 374.465 C 299.756 374.319,299.935 373.968,300.242 373.684 C 300.652 373.305,300.800 373.295,300.800 373.645 C 300.800 373.908,301.136 373.735,301.547 373.261 C 301.958 372.788,302.573 372.400,302.914 372.400 C 303.254 372.400,303.624 372.175,303.735 371.900 C 303.894 371.506,303.944 371.505,303.968 371.896 C 304.011 372.560,305.600 371.211,305.600 370.511 C 305.600 370.230,305.920 370.000,306.312 370.000 C 306.703 370.000,307.283 369.640,307.600 369.200 C 307.917 368.760,308.457 368.400,308.800 368.400 C 309.143 368.400,309.683 368.040,310.000 367.600 C 310.317 367.160,310.831 366.800,311.141 366.800 C 311.452 366.800,312.042 366.412,312.453 365.939 C 312.864 365.465,313.200 365.304,313.200 365.581 C 313.200 365.858,313.722 365.526,314.360 364.842 C 314.999 364.159,315.929 363.600,316.427 363.600 C 316.926 363.600,317.222 363.489,317.086 363.352 C 316.753 363.019,317.806 362.000,318.483 362.000 C 318.780 362.000,319.288 361.612,319.612 361.138 C 320.719 359.516,322.466 358.050,323.033 358.268 C 323.345 358.388,323.600 358.280,323.600 358.029 C 323.600 357.506,326.204 354.800,326.708 354.800 C 326.893 354.800,327.731 354.170,328.572 353.400 C 329.413 352.630,330.361 352.000,330.679 352.000 C 331.356 352.000,332.400 351.046,332.400 350.429 C 332.400 349.842,68.159 349.820,67.796 350.407 " stroke="none" fill="#445964" fill-rule="evenodd"></path><path id="path1" d="M170.999 116.219 C 169.899 116.999,168.492 118.027,167.870 118.502 C 167.249 118.977,165.958 119.913,165.003 120.583 C 164.047 121.252,160.535 123.780,157.199 126.200 C 149.919 131.480,146.507 133.922,143.695 135.865 L 141.590 137.320 135.295 133.097 C 131.833 130.775,126.660 127.269,123.800 125.306 C 120.940 123.343,116.455 120.267,113.832 118.469 C 111.210 116.671,108.825 115.200,108.532 115.200 C 108.095 115.200,108.000 119.892,108.000 141.600 L 108.000 168.000 103.900 168.023 C 101.645 168.036,99.080 168.195,98.200 168.378 C 97.226 168.580,98.751 168.625,102.100 168.493 L 107.600 168.276 107.600 192.511 L 107.600 216.746 108.475 217.024 C 109.427 217.326,173.272 216.836,173.600 216.524 C 173.710 216.419,173.890 205.594,174.000 192.467 L 174.200 168.600 188.000 168.392 L 201.800 168.184 187.700 168.092 L 173.600 168.000 173.600 141.400 C 173.600 126.770,173.464 114.800,173.299 114.800 C 173.133 114.800,172.098 115.439,170.999 116.219 M94.600 169.200 L 93.800 169.544 94.600 169.566 C 95.040 169.578,95.670 169.413,96.000 169.200 C 96.795 168.686,95.796 168.686,94.600 169.200 M80.497 215.540 L 80.400 244.480 78.174 253.540 C 76.949 258.523,75.801 263.050,75.623 263.600 C 75.445 264.150,75.080 265.590,74.812 266.800 C 74.545 268.010,74.175 269.540,73.990 270.200 C 73.805 270.860,73.477 272.120,73.260 273.000 C 73.043 273.880,72.671 275.365,72.433 276.300 C 72.195 277.235,71.820 278.720,71.600 279.600 C 71.380 280.480,71.020 281.920,70.800 282.800 C 70.580 283.680,70.220 285.120,70.000 286.000 C 69.780 286.880,69.405 288.365,69.167 289.300 C 68.929 290.235,68.584 291.630,68.400 292.400 C 68.216 293.170,67.872 294.520,67.635 295.400 C 67.207 296.987,61.015 321.712,60.371 324.400 C 59.718 327.133,59.158 329.420,58.782 330.900 C 56.909 338.258,56.668 339.671,57.225 340.015 C 57.490 340.180,59.896 342.492,62.571 345.155 L 67.434 349.996 200.317 350.098 C 273.403 350.154,333.201 350.110,333.202 350.000 C 333.207 349.567,340.351 342.400,340.778 342.400 C 341.029 342.400,341.451 342.217,341.717 341.993 C 341.983 341.769,342.637 341.225,343.170 340.785 C 344.123 339.999,344.128 339.958,343.470 338.579 C 343.102 337.805,342.800 336.877,342.800 336.515 C 342.800 336.153,342.632 335.304,342.427 334.628 C 342.056 333.405,341.466 331.156,340.767 328.300 C 340.565 327.475,340.223 326.125,340.006 325.300 C 339.790 324.475,338.078 317.500,336.202 309.800 C 334.326 302.100,332.613 295.247,332.395 294.572 C 332.178 293.896,332.000 292.962,332.000 292.495 C 332.000 292.029,331.820 291.536,331.600 291.400 C 331.380 291.264,331.200 290.632,331.200 289.995 C 331.200 289.359,331.039 288.424,330.842 287.919 C 330.392 286.767,329.460 283.261,327.964 277.100 C 327.269 274.236,326.761 272.192,326.400 270.800 C 326.041 269.417,325.546 267.422,324.835 264.500 C 323.933 260.786,320.379 246.480,320.091 245.400 L 319.770 244.200 252.985 243.958 C 216.253 243.825,162.486 243.690,133.503 243.658 L 80.805 243.600 80.700 215.100 L 80.595 186.600 80.497 215.540 M228.307 276.700 L 228.415 286.000 219.050 286.000 C 210.880 286.000,209.655 285.919,209.443 285.367 C 209.016 284.256,209.172 268.800,209.618 267.966 C 210.017 267.222,210.460 267.190,219.118 267.293 L 228.200 267.400 228.307 276.700 M266.206 268.100 C 266.327 268.595,266.375 272.780,266.313 277.400 L 266.200 285.800 256.900 285.907 L 247.600 286.015 247.600 276.607 L 247.600 267.200 256.792 267.200 L 265.985 267.200 266.206 268.100 M303.907 276.700 L 304.015 286.000 294.607 286.000 L 285.200 286.000 285.200 276.867 C 285.200 271.843,285.323 267.610,285.474 267.459 C 285.625 267.309,289.810 267.234,294.774 267.293 L 303.800 267.400 303.907 276.700 M114.557 268.233 C 115.097 269.639,114.822 285.083,114.249 285.559 C 113.865 285.878,111.118 285.984,105.149 285.908 L 96.600 285.800 96.492 276.700 L 96.385 267.600 105.350 267.600 C 113.155 267.600,114.346 267.682,114.557 268.233 M152.200 276.800 L 152.200 285.800 143.429 285.908 C 136.678 285.991,134.583 285.899,134.335 285.508 C 133.961 284.919,133.879 269.179,134.246 268.225 C 134.462 267.660,135.533 267.598,143.346 267.692 L 152.200 267.800 152.200 276.800 M190.157 268.233 C 190.697 269.639,190.422 285.083,189.849 285.559 C 189.465 285.878,186.718 285.984,180.749 285.908 L 172.200 285.800 172.092 276.700 L 171.985 267.600 180.950 267.600 C 188.755 267.600,189.946 267.682,190.157 268.233 M228.308 311.150 C 228.383 317.415,228.279 320.264,227.959 320.650 C 227.238 321.518,210.704 321.447,209.829 320.571 C 209.007 319.750,208.879 303.281,209.687 302.473 C 210.048 302.112,212.514 302.013,219.187 302.093 L 228.200 302.200 228.308 311.150 M265.767 302.243 C 266.853 302.659,266.706 320.208,265.611 320.794 C 265.110 321.062,261.726 321.177,256.311 321.108 L 247.800 321.000 247.692 312.009 C 247.633 307.064,247.672 302.789,247.780 302.509 C 247.985 301.973,264.430 301.730,265.767 302.243 M303.907 311.451 L 304.015 320.703 303.107 320.946 C 301.930 321.261,287.276 321.263,286.100 320.948 C 285.198 320.706,284.609 303.125,285.474 302.259 C 285.625 302.109,289.810 302.034,294.774 302.093 L 303.800 302.200 303.907 311.451 M114.708 311.199 C 114.806 318.931,114.747 319.849,114.132 320.299 C 113.414 320.824,98.322 321.052,97.033 320.557 C 96.482 320.346,96.400 319.155,96.400 311.350 L 96.400 302.385 105.500 302.492 L 114.600 302.600 114.708 311.199 M152.308 311.500 L 152.200 320.600 143.651 320.708 C 137.682 320.784,134.935 320.678,134.551 320.359 C 133.967 319.874,133.700 303.234,134.267 302.667 C 134.413 302.520,138.557 302.400,143.474 302.400 L 152.415 302.400 152.308 311.500 M190.308 311.149 C 190.384 317.118,190.278 319.865,189.959 320.249 C 189.483 320.822,174.039 321.097,172.633 320.557 C 172.082 320.346,172.000 319.155,172.000 311.350 L 172.000 302.385 181.100 302.492 L 190.200 302.600 190.308 311.149 " stroke="none" fill="#d5e8fb" fill-rule="evenodd"></path><path id="path2" d="M188.000 168.392 L 174.200 168.600 174.000 192.467 C 173.890 205.594,173.710 216.419,173.600 216.524 C 173.272 216.836,109.427 217.326,108.475 217.024 L 107.600 216.746 107.600 192.511 L 107.600 168.276 102.359 168.527 C 91.108 169.065,84.297 173.965,81.445 183.573 C 80.878 185.484,80.800 189.228,80.800 214.673 L 80.800 243.600 111.334 243.600 C 128.127 243.600,181.857 243.720,230.734 243.866 L 319.600 244.133 319.600 215.086 C 319.600 183.483,319.632 183.987,317.313 179.265 C 316.238 177.077,310.868 171.200,309.944 171.200 C 309.713 171.200,309.046 170.874,308.462 170.475 C 307.350 169.715,305.428 169.059,302.400 168.407 C 300.542 168.007,214.314 167.996,188.000 168.392 M295.800 205.400 L 295.800 221.400 258.929 221.751 C 238.649 221.943,221.594 221.985,221.029 221.843 L 220.000 221.585 220.000 205.390 L 220.000 189.196 257.900 189.298 L 295.800 189.400 295.800 205.400 M209.618 267.966 C 208.673 269.732,209.129 286.000,210.123 286.000 C 210.415 286.000,210.401 285.841,210.080 285.520 C 209.573 285.013,209.360 269.491,209.843 268.233 C 210.054 267.682,211.243 267.600,219.035 267.600 L 227.985 267.600 228.104 276.800 L 228.223 286.000 228.211 276.700 L 228.200 267.400 219.118 267.293 C 210.460 267.190,210.017 267.222,209.618 267.966 M247.600 267.500 C 247.600 267.665,251.695 267.800,256.700 267.800 L 265.800 267.800 265.800 276.862 C 265.800 281.846,265.935 285.841,266.100 285.738 C 266.456 285.518,266.510 268.751,266.157 267.833 C 265.897 267.156,247.600 266.828,247.600 267.500 M285.467 267.467 C 285.320 267.613,285.203 267.928,285.206 268.167 C 285.210 268.414,285.353 268.378,285.539 268.085 C 285.793 267.684,287.868 267.596,294.895 267.685 C 299.861 267.748,303.841 267.665,303.739 267.500 C 303.509 267.129,285.836 267.097,285.467 267.467 M209.687 302.473 C 208.879 303.281,209.007 319.750,209.829 320.571 C 210.704 321.447,227.238 321.518,227.959 320.650 C 228.279 320.264,228.383 317.415,228.308 311.150 L 228.200 302.200 219.187 302.093 C 212.514 302.013,210.048 302.112,209.687 302.473 M256.800 302.388 L 265.800 302.600 265.908 311.149 C 266.044 321.933,267.118 320.856,256.377 320.715 C 251.591 320.652,247.759 320.735,247.861 320.900 C 248.152 321.369,264.736 321.262,265.626 320.786 C 266.707 320.207,266.841 302.655,265.767 302.243 C 265.419 302.109,261.234 302.040,256.467 302.088 L 247.800 302.177 256.800 302.388 M285.462 302.300 C 285.360 302.465,289.472 302.600,294.600 302.600 C 299.728 302.600,303.840 302.465,303.738 302.300 C 303.636 302.135,299.524 302.000,294.600 302.000 C 289.676 302.000,285.564 302.135,285.462 302.300 M227.908 311.500 L 227.800 320.600 219.251 320.708 C 213.282 320.784,210.535 320.678,210.151 320.359 C 209.567 319.874,209.300 303.234,209.867 302.667 C 210.013 302.520,214.157 302.400,219.074 302.400 L 228.015 302.400 227.908 311.500 M290.522 321.099 C 292.899 321.170,296.679 321.169,298.922 321.098 C 301.165 321.027,299.220 320.969,294.600 320.969 C 289.980 320.970,288.145 321.028,290.522 321.099 " stroke="none" fill="#2b9eec" fill-rule="evenodd"></path><path id="path3" d="M179.602 0.276 C 177.733 0.364,176.032 0.608,175.822 0.818 C 175.612 1.028,174.036 1.200,172.320 1.200 C 170.507 1.200,169.200 1.368,169.200 1.600 C 169.200 1.820,168.336 2.000,167.280 2.000 C 166.224 2.000,165.189 2.163,164.980 2.361 C 164.628 2.696,163.836 2.833,158.700 3.449 C 157.655 3.575,156.800 3.840,156.800 4.039 C 156.800 4.237,156.080 4.400,155.200 4.400 C 154.320 4.400,153.600 4.580,153.600 4.800 C 153.600 5.020,152.790 5.200,151.800 5.200 C 150.810 5.200,150.000 5.380,150.000 5.600 C 150.000 5.820,149.370 6.000,148.600 6.000 C 147.830 6.000,147.200 6.180,147.200 6.400 C 147.200 6.620,146.671 6.800,146.024 6.800 C 145.377 6.800,144.736 6.980,144.600 7.200 C 144.464 7.420,143.823 7.600,143.176 7.600 C 142.529 7.600,142.000 7.780,142.000 8.000 C 142.000 8.220,141.370 8.400,140.600 8.400 C 139.830 8.400,139.200 8.580,139.200 8.800 C 139.200 9.020,138.761 9.200,138.224 9.200 C 137.687 9.200,137.149 9.359,137.029 9.554 C 136.908 9.748,136.043 10.024,135.105 10.166 C 133.519 10.406,127.067 12.799,126.514 13.353 C 126.378 13.489,125.934 13.600,125.528 13.600 C 125.122 13.600,124.477 13.766,124.095 13.968 C 121.930 15.115,117.963 16.800,117.425 16.800 C 117.081 16.800,116.800 16.980,116.800 17.200 C 116.800 17.420,116.440 17.600,116.000 17.600 C 115.560 17.600,115.200 17.780,115.200 18.000 C 115.200 18.220,114.955 18.400,114.656 18.400 C 114.356 18.400,112.601 19.221,110.756 20.224 C 108.910 21.227,107.085 22.148,106.700 22.271 C 106.315 22.393,106.000 22.652,106.000 22.847 C 106.000 23.041,105.640 23.200,105.200 23.200 C 104.760 23.200,104.400 23.380,104.400 23.600 C 104.400 23.820,104.040 24.000,103.600 24.000 C 103.160 24.000,102.800 24.146,102.800 24.325 C 102.800 24.504,102.170 24.898,101.400 25.200 C 100.630 25.502,100.000 25.896,100.000 26.075 C 100.000 26.254,99.730 26.400,99.400 26.400 C 99.070 26.400,98.800 26.580,98.800 26.800 C 98.800 27.020,98.555 27.200,98.256 27.200 C 97.957 27.200,97.049 27.650,96.238 28.200 C 95.428 28.750,94.542 29.200,94.271 29.200 C 93.999 29.200,93.517 29.560,93.200 30.000 C 92.883 30.440,92.318 30.800,91.945 30.800 C 91.572 30.800,91.207 30.935,91.133 31.100 C 90.947 31.519,87.345 34.000,86.923 34.000 C 86.732 34.000,86.317 34.360,86.000 34.800 C 85.683 35.240,85.169 35.600,84.859 35.600 C 84.548 35.600,84.003 35.932,83.647 36.337 C 83.291 36.743,82.581 37.297,82.068 37.568 C 81.077 38.094,80.385 38.632,78.059 40.691 C 77.256 41.401,76.465 41.986,76.301 41.991 C 76.136 41.996,75.334 42.630,74.518 43.400 C 73.701 44.170,72.918 44.800,72.778 44.800 C 72.117 44.800,66.108 50.344,58.226 58.226 C 50.344 66.108,44.800 72.117,44.800 72.778 C 44.800 72.918,44.170 73.701,43.400 74.518 C 42.630 75.334,41.996 76.136,41.991 76.301 C 41.986 76.465,41.401 77.256,40.691 78.059 C 38.632 80.385,38.094 81.077,37.568 82.068 C 37.297 82.581,36.743 83.291,36.337 83.647 C 35.932 84.003,35.600 84.548,35.600 84.859 C 35.600 85.169,35.240 85.683,34.800 86.000 C 34.360 86.317,34.000 86.732,34.000 86.923 C 34.000 87.345,31.519 90.947,31.100 91.133 C 30.935 91.207,30.800 91.572,30.800 91.945 C 30.800 92.318,30.440 92.883,30.000 93.200 C 29.560 93.517,29.200 93.999,29.200 94.271 C 29.200 94.542,28.750 95.428,28.200 96.238 C 27.650 97.049,27.200 97.957,27.200 98.256 C 27.200 98.555,27.020 98.800,26.800 98.800 C 26.580 98.800,26.400 99.070,26.400 99.400 C 26.400 99.730,26.175 100.003,25.900 100.006 C 25.590 100.010,25.552 100.124,25.800 100.306 C 26.020 100.468,26.414 100.960,26.676 101.400 C 29.684 106.459,33.581 112.402,38.499 119.430 C 49.729 135.476,69.763 154.788,88.106 167.249 L 92.013 169.903 90.564 170.590 C 87.098 172.235,81.118 179.731,81.232 182.289 C 81.250 182.715,81.437 182.519,81.697 181.800 C 84.875 173.001,92.883 168.026,103.900 168.007 L 108.000 168.000 108.000 141.600 C 108.000 119.892,108.095 115.200,108.532 115.200 C 108.825 115.200,111.210 116.671,113.832 118.469 C 116.455 120.267,120.940 123.343,123.800 125.306 C 126.660 127.269,131.833 130.775,135.295 133.097 L 141.590 137.320 143.695 135.865 C 146.507 133.922,149.919 131.480,157.199 126.200 C 160.535 123.780,164.047 121.252,165.003 120.583 C 165.958 119.913,167.249 118.977,167.870 118.502 C 170.254 116.680,173.010 114.800,173.299 114.800 C 173.464 114.800,173.600 126.770,173.600 141.400 L 173.600 168.000 212.408 168.000 L 251.216 168.000 251.108 159.500 L 251.000 151.000 233.329 150.800 C 209.367 150.529,211.800 153.173,211.800 127.400 C 211.800 106.748,211.766 107.003,214.750 104.976 L 216.186 104.000 259.738 104.000 L 303.291 104.000 304.846 104.874 C 308.013 106.654,308.000 106.562,308.000 127.400 C 308.000 153.128,310.404 150.524,286.400 150.800 L 269.000 151.000 268.892 159.500 L 268.784 168.000 285.173 168.000 C 302.974 168.000,303.883 168.090,308.313 170.287 C 311.596 171.915,315.590 175.829,317.195 178.989 C 317.926 180.430,318.607 181.526,318.708 181.425 C 319.631 180.502,313.353 172.826,310.129 170.937 C 307.978 169.677,307.875 169.962,311.300 167.676 C 320.242 161.707,330.375 153.615,337.146 147.039 C 342.372 141.963,347.476 136.699,350.600 133.163 C 356.007 127.043,363.917 116.450,368.643 109.000 C 369.759 107.240,371.455 104.566,372.411 103.057 L 374.149 100.315 372.821 97.857 C 372.090 96.506,370.796 94.352,369.946 93.072 C 369.096 91.791,368.400 90.576,368.400 90.372 C 368.400 90.167,368.220 90.000,368.000 90.000 C 367.780 90.000,367.600 89.730,367.600 89.400 C 367.600 89.070,367.420 88.800,367.200 88.800 C 366.980 88.800,366.800 88.557,366.800 88.259 C 366.800 87.962,366.260 87.154,365.600 86.463 C 364.940 85.772,364.400 85.002,364.400 84.751 C 364.400 84.499,364.084 84.003,363.697 83.647 C 363.311 83.291,362.740 82.505,362.430 81.900 C 362.119 81.295,361.715 80.800,361.532 80.800 C 361.350 80.800,361.200 80.614,361.200 80.387 C 361.200 80.159,360.570 79.343,359.800 78.573 C 359.030 77.803,358.397 77.044,358.394 76.887 C 358.390 76.729,357.852 75.970,357.198 75.200 C 355.658 73.388,355.504 73.191,354.683 72.000 C 352.673 69.084,334.682 50.400,333.883 50.400 C 333.693 50.400,332.876 49.723,332.069 48.895 C 331.261 48.067,329.790 46.764,328.800 46.000 C 327.810 45.237,326.795 44.429,326.544 44.206 C 326.294 43.983,325.608 43.452,325.021 43.026 C 324.433 42.601,323.468 41.824,322.876 41.300 C 322.284 40.776,320.990 39.785,320.000 39.097 C 319.010 38.409,318.140 37.701,318.067 37.523 C 317.993 37.345,317.718 37.200,317.455 37.200 C 317.192 37.200,316.717 36.840,316.400 36.400 C 316.083 35.960,315.585 35.600,315.294 35.600 C 315.002 35.600,314.328 35.164,313.795 34.631 C 313.262 34.098,312.460 33.546,312.013 33.404 C 311.566 33.262,311.200 32.978,311.200 32.773 C 311.200 32.568,311.004 32.400,310.765 32.400 C 310.279 32.400,306.675 29.968,306.467 29.500 C 306.393 29.335,306.159 29.200,305.945 29.200 C 305.732 29.200,304.895 28.750,304.086 28.200 C 303.277 27.650,302.296 27.200,301.907 27.200 C 301.518 27.200,301.200 27.020,301.200 26.800 C 301.200 26.580,300.930 26.400,300.600 26.400 C 300.270 26.400,300.000 26.254,300.000 26.075 C 300.000 25.896,299.370 25.502,298.600 25.200 C 297.830 24.898,297.200 24.504,297.200 24.325 C 297.200 24.146,296.840 24.000,296.400 24.000 C 295.960 24.000,295.600 23.820,295.600 23.600 C 295.600 23.380,295.240 23.200,294.800 23.200 C 294.360 23.200,294.000 23.020,294.000 22.800 C 294.000 22.580,293.640 22.400,293.200 22.400 C 292.760 22.400,292.400 22.242,292.400 22.049 C 292.400 21.855,291.815 21.460,291.100 21.171 C 290.385 20.882,289.710 20.543,289.600 20.417 C 289.372 20.157,286.435 18.729,284.500 17.937 C 283.785 17.644,283.200 17.269,283.200 17.102 C 283.200 16.936,282.919 16.800,282.575 16.800 C 282.231 16.800,280.836 16.277,279.475 15.637 C 276.634 14.301,265.443 10.000,264.810 10.000 C 263.982 10.000,261.200 9.000,261.200 8.703 C 261.200 8.536,260.581 8.400,259.824 8.400 C 259.067 8.400,258.336 8.220,258.200 8.000 C 258.064 7.780,257.423 7.600,256.776 7.600 C 256.129 7.600,255.600 7.420,255.600 7.200 C 255.600 6.980,254.970 6.800,254.200 6.800 C 253.430 6.800,252.800 6.620,252.800 6.400 C 252.800 6.180,252.181 6.000,251.424 6.000 C 250.667 6.000,249.936 5.820,249.800 5.600 C 249.664 5.380,248.843 5.200,247.976 5.200 C 247.109 5.200,246.400 5.020,246.400 4.800 C 246.400 4.580,245.691 4.400,244.824 4.400 C 243.957 4.400,243.136 4.220,243.000 4.000 C 242.864 3.780,241.943 3.600,240.953 3.600 C 239.855 3.600,239.249 3.444,239.400 3.200 C 239.553 2.952,238.804 2.800,237.424 2.800 C 236.201 2.800,235.200 2.620,235.200 2.400 C 235.200 2.180,234.210 2.000,233.000 2.000 C 231.790 2.000,230.800 1.820,230.800 1.600 C 230.800 1.368,229.493 1.200,227.680 1.200 C 225.759 1.200,224.373 1.013,224.072 0.712 C 223.589 0.229,188.013 -0.120,179.602 0.276 M242.132 113.987 L 225.663 114.200 224.632 115.170 L 223.600 116.139 223.613 127.370 C 223.628 139.693,223.606 139.578,226.119 140.700 C 227.554 141.342,293.600 141.439,293.600 140.800 C 293.600 140.580,293.864 140.400,294.186 140.400 C 295.428 140.400,295.600 138.853,295.600 127.645 C 295.600 116.026,295.399 114.400,293.959 114.400 C 293.568 114.400,293.136 114.220,293.000 114.000 C 292.743 113.584,273.683 113.580,242.132 113.987 M8.400 139.800 C 8.400 140.130,8.580 140.400,8.800 140.400 C 9.020 140.400,9.200 140.130,9.200 139.800 C 9.200 139.470,9.020 139.200,8.800 139.200 C 8.580 139.200,8.400 139.470,8.400 139.800 M1.206 169.500 C 1.224 170.377,1.988 170.959,1.994 170.100 C 1.997 169.605,1.820 169.200,1.600 169.200 C 1.380 169.200,1.203 169.335,1.206 169.500 M398.000 169.910 C 398.000 170.373,398.171 170.858,398.379 170.987 C 398.589 171.117,398.684 170.836,398.592 170.357 C 398.362 169.162,398.000 168.889,398.000 169.910 M80.667 183.467 C 80.520 183.613,80.420 184.468,80.444 185.367 L 80.488 187.000 80.836 185.225 C 81.189 183.424,81.147 182.986,80.667 183.467 M319.622 215.633 C 319.642 242.174,319.688 243.962,320.415 246.600 C 320.839 248.140,321.075 248.680,320.939 247.800 C 320.803 246.920,320.581 233.120,320.446 217.133 C 320.311 201.146,320.065 187.931,319.900 187.766 C 319.735 187.602,319.610 200.142,319.622 215.633 M80.080 215.600 C 80.010 232.574,79.807 244.101,79.558 245.200 C 79.334 246.190,79.060 247.540,78.948 248.200 C 78.837 248.860,78.591 249.760,78.403 250.200 C 78.000 251.140,77.618 252.807,77.326 254.903 C 77.210 255.729,76.955 256.505,76.758 256.626 C 76.561 256.748,76.400 257.456,76.400 258.200 C 76.400 258.944,76.240 259.652,76.044 259.773 C 75.849 259.894,75.592 260.579,75.473 261.296 C 75.355 262.013,75.073 263.320,74.847 264.200 C 74.621 265.080,74.240 266.610,74.000 267.600 C 73.760 268.590,73.392 270.075,73.182 270.900 C 72.972 271.725,72.628 273.075,72.418 273.900 C 72.208 274.725,71.924 275.940,71.788 276.600 C 71.651 277.260,71.394 278.160,71.216 278.600 C 70.720 279.828,67.200 294.542,67.200 295.387 C 67.200 296.522,67.661 295.818,68.033 294.116 C 68.215 293.282,68.543 291.880,68.763 291.000 C 68.983 290.120,69.360 288.590,69.600 287.600 C 69.840 286.610,70.208 285.125,70.418 284.300 C 70.628 283.475,70.980 282.080,71.200 281.200 C 71.420 280.320,71.780 278.880,72.000 278.000 C 72.220 277.120,72.588 275.635,72.818 274.700 C 73.452 272.123,73.902 270.366,74.379 268.600 C 74.617 267.720,74.973 266.280,75.171 265.400 C 75.368 264.520,76.627 259.442,77.968 254.116 L 80.405 244.431 80.300 216.116 L 80.195 187.800 80.080 215.600 M220.400 205.400 L 220.400 221.600 257.800 221.600 L 295.200 221.600 295.200 205.666 L 295.200 189.731 267.900 189.466 C 252.885 189.320,236.055 189.200,230.500 189.200 L 220.400 189.200 220.400 205.400 M399.067 221.867 C 398.687 222.246,398.734 224.888,399.116 224.652 C 399.426 224.460,399.766 221.600,399.479 221.600 C 399.399 221.600,399.213 221.720,399.067 221.867 M396.400 238.600 C 396.400 239.150,396.580 239.600,396.800 239.600 C 397.020 239.600,397.200 239.150,397.200 238.600 C 397.200 238.050,397.020 237.600,396.800 237.600 C 396.580 237.600,396.400 238.050,396.400 238.600 M394.000 249.400 C 394.000 249.996,394.172 250.341,394.400 250.200 C 394.620 250.064,394.800 249.704,394.800 249.400 C 394.800 249.096,394.620 248.736,394.400 248.600 C 394.172 248.459,394.000 248.804,394.000 249.400 M321.240 250.076 C 321.359 251.646,321.920 252.616,321.960 251.324 C 321.982 250.622,321.820 249.936,321.600 249.800 C 321.380 249.664,321.218 249.788,321.240 250.076 M393.200 252.000 C 393.200 252.747,393.307 252.853,393.680 252.480 C 394.053 252.107,394.053 251.893,393.680 251.520 C 393.307 251.147,393.200 251.253,393.200 252.000 M322.040 253.276 C 322.159 254.846,322.720 255.816,322.760 254.524 C 322.782 253.822,322.620 253.136,322.400 253.000 C 322.180 252.864,322.018 252.988,322.040 253.276 M322.805 256.276 C 322.807 256.454,323.182 258.040,323.636 259.800 C 324.091 261.560,324.637 263.720,324.850 264.600 C 325.063 265.480,325.400 266.830,325.600 267.600 C 325.800 268.370,326.152 269.765,326.382 270.700 C 326.612 271.635,326.972 273.075,327.182 273.900 C 327.392 274.725,327.736 276.120,327.946 277.000 C 329.277 282.567,330.386 286.751,330.842 287.919 C 331.039 288.424,331.200 289.359,331.200 289.995 C 331.200 290.632,331.380 291.264,331.600 291.400 C 331.820 291.536,332.000 292.029,332.000 292.495 C 332.000 292.962,332.170 293.896,332.377 294.572 C 332.585 295.247,332.935 296.430,333.155 297.200 L 333.555 298.600 333.360 297.000 C 333.252 296.120,333.007 294.770,332.815 294.000 C 332.007 290.760,331.524 288.928,331.173 287.772 C 330.968 287.096,330.800 286.162,330.800 285.695 C 330.800 285.229,330.620 284.736,330.400 284.600 C 330.180 284.464,330.000 283.744,330.000 283.000 C 330.000 282.256,329.820 281.536,329.600 281.400 C 329.380 281.264,329.200 280.544,329.200 279.800 C 329.200 279.056,329.020 278.336,328.800 278.200 C 328.580 278.064,328.400 277.344,328.400 276.600 C 328.400 275.856,328.220 275.136,328.000 275.000 C 327.780 274.864,327.600 274.144,327.600 273.400 C 327.600 272.656,327.420 271.936,327.200 271.800 C 326.980 271.664,326.800 270.944,326.800 270.200 C 326.800 269.456,326.620 268.736,326.400 268.600 C 326.180 268.464,326.000 267.733,326.000 266.976 C 326.000 266.219,325.820 265.600,325.600 265.600 C 325.380 265.600,325.200 264.981,325.200 264.224 C 325.200 263.467,325.020 262.736,324.800 262.600 C 324.580 262.464,324.400 261.744,324.400 261.000 C 324.400 260.256,324.220 259.536,324.000 259.400 C 323.780 259.264,323.600 258.544,323.600 257.800 C 323.600 257.056,323.420 256.336,323.200 256.200 C 322.980 256.064,322.802 256.098,322.805 256.276 M66.578 297.778 C 66.427 298.581,66.394 299.327,66.504 299.437 C 66.614 299.547,66.827 298.981,66.978 298.178 C 67.128 297.375,67.162 296.628,67.052 296.518 C 66.942 296.408,66.728 296.975,66.578 297.778 M333.634 299.600 C 333.646 299.930,333.811 300.560,334.000 301.000 L 334.344 301.800 334.366 301.000 C 334.378 300.560,334.213 299.930,334.000 299.600 C 333.655 299.067,333.615 299.067,333.634 299.600 M65.794 301.000 C 65.627 301.660,64.863 304.630,64.097 307.600 C 63.331 310.570,62.638 313.630,62.556 314.400 C 62.475 315.170,63.305 312.380,64.402 308.200 C 65.499 304.020,66.329 300.420,66.247 300.200 C 66.166 299.980,65.962 300.340,65.794 301.000 M334.434 302.800 C 334.446 303.130,334.611 303.760,334.800 304.200 L 335.144 305.000 335.166 304.200 C 335.178 303.760,335.013 303.130,334.800 302.800 C 334.455 302.267,334.415 302.267,334.434 302.800 M335.234 306.000 C 335.246 306.330,335.411 306.960,335.600 307.400 L 335.944 308.200 335.966 307.400 C 335.978 306.960,335.813 306.330,335.600 306.000 C 335.255 305.467,335.215 305.467,335.234 306.000 M336.028 309.476 C 336.118 310.515,336.744 311.396,336.772 310.524 C 336.787 310.042,336.620 309.536,336.400 309.400 C 336.180 309.264,336.013 309.298,336.028 309.476 M336.834 312.400 C 336.846 312.730,337.011 313.360,337.200 313.800 L 337.544 314.600 337.566 313.800 C 337.578 313.360,337.413 312.730,337.200 312.400 C 336.855 311.867,336.815 311.867,336.834 312.400 M337.840 316.666 C 338.208 318.199,338.400 318.344,338.400 317.090 C 338.400 316.517,338.213 315.932,337.984 315.790 C 337.711 315.621,337.662 315.923,337.840 316.666 M61.787 317.053 C 61.648 317.684,61.392 318.650,61.217 319.200 C 61.042 319.750,60.680 321.190,60.412 322.400 C 60.145 323.610,59.775 325.140,59.590 325.800 C 59.248 327.023,58.943 328.195,57.770 332.800 C 57.405 334.230,57.018 335.987,56.909 336.704 C 56.801 337.421,56.551 338.106,56.356 338.227 C 55.690 338.639,55.997 340.221,56.858 340.812 C 57.330 341.135,58.327 342.030,59.074 342.800 C 64.973 348.881,66.598 350.400,67.201 350.400 C 67.790 350.400,58.645 340.893,57.192 339.995 C 56.743 339.718,56.927 338.342,57.963 334.200 C 58.183 333.320,58.543 331.880,58.763 331.000 C 58.983 330.120,59.343 328.680,59.563 327.800 C 59.783 326.920,60.129 325.480,60.331 324.600 C 60.533 323.720,61.097 321.501,61.584 319.668 C 62.071 317.836,62.373 316.240,62.254 316.121 C 62.136 316.003,61.926 316.422,61.787 317.053 M338.446 318.800 C 338.465 319.130,338.624 319.850,338.800 320.400 L 339.120 321.400 339.154 320.400 C 339.173 319.850,339.013 319.130,338.800 318.800 C 338.455 318.267,338.416 318.267,338.446 318.800 M339.408 322.600 C 339.535 323.260,339.825 324.520,340.053 325.400 C 340.498 327.125,341.034 329.257,341.660 331.800 C 341.877 332.680,342.222 333.953,342.427 334.628 C 342.632 335.304,342.806 336.204,342.814 336.628 C 342.833 337.650,343.966 339.676,343.986 338.724 C 343.994 338.352,343.820 337.936,343.600 337.800 C 343.380 337.664,343.200 336.944,343.200 336.200 C 343.200 335.456,343.040 334.748,342.844 334.627 C 342.508 334.420,342.272 333.407,341.742 329.897 C 341.618 329.071,341.355 328.295,341.158 328.174 C 340.961 328.052,340.800 327.344,340.800 326.600 C 340.800 325.856,340.620 325.136,340.400 325.000 C 340.180 324.864,339.997 324.268,339.994 323.676 C 339.991 323.084,339.805 322.330,339.582 322.000 C 339.281 321.556,339.236 321.712,339.408 322.600 M338.200 344.566 C 337.100 345.724,335.492 347.417,334.626 348.329 C 333.760 349.240,333.161 350.095,333.295 350.229 C 333.523 350.456,341.200 343.052,341.200 342.605 C 341.200 341.914,339.931 342.743,338.200 344.566 " stroke="none" fill="#fbeb53" fill-rule="evenodd"></path><path id="path4" d="M327.709 45.200 C 328.269 45.640,328.857 46.000,329.017 46.000 C 329.177 46.000,328.850 45.640,328.291 45.200 C 327.731 44.760,327.143 44.400,326.983 44.400 C 326.823 44.400,327.150 44.760,327.709 45.200 M66.056 50.013 C 64.816 51.046,65.375 51.035,66.691 50.000 C 67.250 49.560,67.549 49.206,67.354 49.213 C 67.159 49.221,66.575 49.581,66.056 50.013 M49.900 66.214 C 48.901 67.550,49.031 67.923,50.046 66.633 C 50.511 66.042,50.826 65.495,50.746 65.418 C 50.666 65.341,50.285 65.700,49.900 66.214 M373.820 99.521 C 374.000 100.191,373.606 101.170,372.370 103.121 C 371.436 104.594,369.759 107.240,368.643 109.000 C 363.917 116.450,356.007 127.043,350.600 133.163 C 347.476 136.699,342.372 141.963,337.146 147.039 C 330.375 153.615,320.242 161.707,311.300 167.676 C 307.875 169.962,307.978 169.677,310.129 170.937 C 313.767 173.069,317.919 178.283,318.889 181.937 C 319.938 185.888,320.117 190.065,320.401 217.200 C 320.692 245.058,320.855 249.339,321.642 249.826 C 321.839 249.948,322.000 250.656,322.000 251.400 C 322.000 252.144,322.180 252.864,322.400 253.000 C 322.620 253.136,322.800 253.856,322.800 254.600 C 322.800 255.344,322.980 256.064,323.200 256.200 C 323.420 256.336,323.600 257.056,323.600 257.800 C 323.600 258.544,323.780 259.264,324.000 259.400 C 324.220 259.536,324.400 260.256,324.400 261.000 C 324.400 261.744,324.580 262.464,324.800 262.600 C 325.020 262.736,325.200 263.467,325.200 264.224 C 325.200 264.981,325.380 265.600,325.600 265.600 C 325.820 265.600,326.000 266.219,326.000 266.976 C 326.000 267.733,326.180 268.464,326.400 268.600 C 326.620 268.736,326.800 269.456,326.800 270.200 C 326.800 270.944,326.980 271.664,327.200 271.800 C 327.420 271.936,327.600 272.656,327.600 273.400 C 327.600 274.144,327.780 274.864,328.000 275.000 C 328.220 275.136,328.400 275.856,328.400 276.600 C 328.400 277.344,328.580 278.064,328.800 278.200 C 329.020 278.336,329.200 279.056,329.200 279.800 C 329.200 280.544,329.380 281.264,329.600 281.400 C 329.820 281.536,330.000 282.256,330.000 283.000 C 330.000 283.744,330.160 284.452,330.356 284.573 C 330.551 284.694,330.808 285.379,330.927 286.096 C 331.045 286.813,331.327 288.120,331.553 289.000 C 332.245 291.696,332.806 294.081,333.387 296.800 C 333.693 298.230,334.136 300.165,334.371 301.100 C 335.465 305.440,335.662 306.278,335.852 307.400 C 335.963 308.060,336.209 308.960,336.397 309.400 C 336.745 310.212,337.084 311.627,337.451 313.800 C 337.563 314.460,337.809 315.360,337.997 315.800 C 338.186 316.240,338.451 317.140,338.588 317.800 C 338.724 318.460,339.021 319.720,339.247 320.600 C 339.473 321.480,339.755 322.787,339.873 323.504 C 339.992 324.221,340.249 324.906,340.444 325.027 C 340.640 325.148,340.800 325.856,340.800 326.600 C 340.800 327.344,340.961 328.052,341.158 328.174 C 341.355 328.295,341.618 329.071,341.742 329.897 C 342.272 333.407,342.508 334.420,342.844 334.627 C 343.040 334.748,343.200 335.456,343.200 336.200 C 343.200 336.944,343.380 337.664,343.600 337.800 C 343.820 337.936,344.000 338.397,344.000 338.824 C 344.000 339.251,344.093 339.600,344.206 339.600 C 344.597 339.600,351.200 332.810,351.200 332.408 C 351.200 332.187,352.280 330.908,353.600 329.568 C 354.920 328.227,356.002 326.921,356.004 326.665 C 356.006 326.409,356.546 325.775,357.204 325.255 C 357.862 324.735,358.400 324.068,358.400 323.773 C 358.400 323.478,358.846 322.790,359.391 322.245 C 359.936 321.700,360.431 321.019,360.491 320.731 C 360.551 320.443,361.095 319.729,361.700 319.143 C 362.305 318.558,362.800 317.908,362.800 317.699 C 362.800 317.490,363.340 316.754,364.000 316.063 C 364.660 315.372,365.200 314.575,365.200 314.292 C 365.200 314.009,365.560 313.517,366.000 313.200 C 366.440 312.883,366.800 312.343,366.800 312.000 C 366.800 311.657,367.160 311.117,367.600 310.800 C 368.040 310.483,368.400 309.903,368.400 309.512 C 368.400 309.120,368.580 308.800,368.800 308.800 C 369.020 308.800,369.200 308.519,369.200 308.176 C 369.200 307.833,369.380 307.664,369.600 307.800 C 369.820 307.936,370.000 307.844,370.000 307.596 C 370.000 307.347,370.540 306.359,371.200 305.400 C 371.860 304.441,372.400 303.463,372.400 303.228 C 372.400 302.993,372.580 302.800,372.800 302.800 C 373.020 302.800,373.200 302.603,373.200 302.362 C 373.200 302.121,373.548 301.435,373.973 300.837 C 374.399 300.240,374.876 299.222,375.035 298.576 C 375.193 297.929,375.498 297.285,375.712 297.145 C 375.925 297.006,376.100 296.413,376.100 295.829 C 376.100 295.245,376.196 294.863,376.313 294.980 C 376.586 295.252,377.600 294.423,377.600 293.927 C 377.600 293.721,377.420 293.664,377.200 293.800 C 376.980 293.936,376.800 293.857,376.800 293.624 C 376.800 293.391,377.160 293.200,377.600 293.200 C 378.133 293.200,378.400 292.933,378.400 292.400 C 378.400 291.960,378.546 291.600,378.725 291.600 C 378.904 291.600,379.298 290.970,379.600 290.200 C 379.902 289.430,380.296 288.800,380.475 288.800 C 380.654 288.800,380.800 288.528,380.800 288.195 C 380.800 287.862,380.980 287.232,381.200 286.795 C 381.420 286.358,381.780 285.642,382.000 285.205 C 382.220 284.768,382.400 283.998,382.400 283.494 C 382.400 282.989,382.760 282.317,383.200 282.000 C 384.073 281.371,384.307 280.597,383.500 281.007 C 383.225 281.147,383.425 280.887,383.944 280.430 C 384.464 279.974,384.689 279.600,384.444 279.600 C 384.200 279.600,384.000 279.409,384.000 279.176 C 384.000 278.943,384.144 278.842,384.320 278.951 C 384.496 279.059,384.869 278.781,385.149 278.332 C 385.431 277.882,385.467 277.635,385.230 277.782 C 384.993 277.928,384.800 277.767,384.800 277.424 C 384.800 277.081,384.980 276.800,385.200 276.800 C 385.420 276.800,385.603 276.395,385.606 275.900 C 385.611 275.172,385.686 275.115,386.000 275.600 C 386.314 276.085,386.389 276.028,386.394 275.300 C 386.397 274.805,386.580 274.400,386.800 274.400 C 387.020 274.400,387.200 273.961,387.200 273.424 C 387.200 272.887,387.380 272.336,387.600 272.200 C 387.820 272.064,388.000 271.233,388.000 270.353 C 388.000 269.473,388.159 268.851,388.354 268.971 C 388.748 269.215,389.098 268.416,390.581 263.892 C 391.142 262.182,391.600 260.236,391.600 259.568 C 391.600 258.860,391.767 258.456,392.000 258.600 C 392.238 258.747,392.400 258.271,392.400 257.424 C 392.400 256.641,392.580 256.000,392.800 256.000 C 393.020 256.000,393.200 255.809,393.200 255.576 C 393.200 255.343,393.020 255.264,392.800 255.400 C 392.580 255.536,392.400 255.457,392.400 255.224 C 392.400 254.991,392.580 254.800,392.800 254.800 C 393.020 254.800,393.200 254.476,393.200 254.080 C 393.200 253.684,393.425 253.118,393.700 252.821 C 394.100 252.390,394.100 252.339,393.700 252.565 C 393.369 252.752,393.200 252.562,393.200 252.000 C 393.200 251.534,393.380 251.264,393.600 251.400 C 393.842 251.550,394.000 250.996,394.000 250.000 C 394.000 249.004,394.158 248.450,394.400 248.600 C 394.620 248.736,394.800 248.477,394.800 248.024 C 394.800 247.571,394.980 247.200,395.200 247.200 C 395.420 247.200,395.600 246.300,395.600 245.200 C 395.600 244.100,395.751 243.200,395.935 243.200 C 396.120 243.200,396.295 242.538,396.326 241.729 C 396.356 240.921,396.610 240.113,396.890 239.936 C 397.290 239.682,397.292 239.611,396.900 239.606 C 396.625 239.603,396.400 239.150,396.400 238.600 C 396.400 238.050,396.580 237.600,396.800 237.600 C 397.020 237.600,397.200 237.150,397.200 236.600 C 397.200 236.050,397.380 235.600,397.600 235.600 C 397.820 235.600,397.997 235.285,397.994 234.900 C 397.989 234.302,397.931 234.287,397.600 234.800 C 397.288 235.283,397.211 235.219,397.206 234.476 C 397.203 233.961,397.377 233.662,397.600 233.800 C 397.838 233.947,398.000 233.479,398.000 232.647 C 398.000 231.877,398.180 231.136,398.400 231.000 C 398.620 230.864,398.800 229.539,398.800 228.056 C 398.800 226.453,399.003 225.142,399.300 224.821 C 399.700 224.390,399.700 224.339,399.300 224.565 C 398.943 224.766,398.800 224.462,398.800 223.504 C 398.800 222.765,399.025 221.935,399.300 221.660 C 400.290 220.671,400.060 176.498,399.068 177.055 C 398.762 177.227,398.773 177.131,399.100 176.779 C 399.697 176.135,399.765 174.800,399.200 174.800 C 398.980 174.800,398.800 174.001,398.800 173.024 C 398.800 172.047,398.620 171.136,398.400 171.000 C 398.180 170.864,398.003 170.358,398.006 169.876 C 398.011 169.164,398.085 169.112,398.400 169.600 C 398.633 169.961,398.790 170.010,398.794 169.724 C 398.797 169.462,398.620 169.136,398.400 169.000 C 398.180 168.864,398.000 168.133,398.000 167.376 C 398.000 166.619,397.820 166.000,397.600 166.000 C 397.380 166.000,397.203 165.685,397.206 165.300 C 397.211 164.702,397.269 164.687,397.600 165.200 C 397.931 165.713,397.989 165.698,397.994 165.100 C 397.997 164.715,397.820 164.400,397.600 164.400 C 397.380 164.400,397.200 163.410,397.200 162.200 C 397.200 160.990,397.020 160.000,396.800 160.000 C 396.580 160.000,396.400 159.460,396.400 158.800 C 396.400 158.110,396.188 157.597,395.900 157.594 C 395.567 157.590,395.600 157.458,396.000 157.200 C 396.400 156.942,396.433 156.810,396.100 156.806 C 395.776 156.802,395.600 156.175,395.600 155.024 C 395.600 154.047,395.420 153.136,395.200 153.000 C 394.980 152.864,394.800 152.403,394.800 151.976 C 394.800 151.549,394.620 151.200,394.400 151.200 C 394.180 151.200,394.000 150.919,394.000 150.576 C 394.000 150.233,394.180 150.064,394.400 150.200 C 394.620 150.336,394.800 150.257,394.800 150.024 C 394.800 149.791,394.620 149.600,394.400 149.600 C 394.180 149.600,394.000 148.981,394.000 148.224 C 394.000 147.467,393.820 146.736,393.600 146.600 C 393.380 146.464,393.200 145.823,393.200 145.176 C 393.200 144.529,393.020 144.000,392.800 144.000 C 392.580 144.000,392.400 143.730,392.400 143.400 C 392.400 143.070,392.220 142.800,392.000 142.800 C 391.780 142.800,391.600 142.519,391.600 142.176 C 391.600 141.801,391.787 141.668,392.069 141.843 C 392.327 142.002,392.237 141.703,391.869 141.177 C 391.500 140.651,391.200 139.465,391.200 138.535 C 391.200 137.607,391.020 136.736,390.800 136.600 C 390.580 136.464,390.400 135.924,390.400 135.400 C 390.400 134.876,390.220 134.336,390.000 134.200 C 389.780 134.064,389.600 133.524,389.600 133.000 C 389.600 132.476,389.420 131.936,389.200 131.800 C 388.980 131.664,388.800 131.203,388.800 130.776 C 388.800 130.349,388.620 130.000,388.400 130.000 C 388.180 130.000,388.000 129.674,388.000 129.275 C 388.000 128.876,387.640 127.805,387.200 126.894 C 386.760 125.984,386.400 124.960,386.400 124.619 C 386.400 124.279,386.220 124.000,386.000 124.000 C 385.780 124.000,385.600 123.561,385.600 123.024 C 385.600 122.487,385.420 121.936,385.200 121.800 C 384.980 121.664,384.800 121.203,384.800 120.776 C 384.800 120.349,384.620 120.000,384.400 120.000 C 384.180 120.000,384.000 119.640,384.000 119.200 C 384.000 118.760,383.820 118.400,383.600 118.400 C 383.380 118.400,383.200 118.040,383.200 117.600 C 383.200 117.160,383.020 116.800,382.800 116.800 C 382.580 116.800,382.400 116.528,382.400 116.195 C 382.400 115.862,382.240 115.277,382.044 114.895 C 381.848 114.513,381.263 113.300,380.744 112.200 C 380.225 111.100,379.665 110.140,379.500 110.067 C 379.335 109.993,379.200 109.588,379.200 109.167 C 379.200 108.745,379.020 108.400,378.800 108.400 C 378.580 108.400,378.400 108.040,378.400 107.600 C 378.400 107.160,378.241 106.800,378.047 106.800 C 377.852 106.800,377.599 106.440,377.484 106.000 C 377.369 105.560,376.988 105.200,376.637 105.200 C 376.287 105.200,376.000 105.009,376.000 104.776 C 376.000 104.543,376.225 104.467,376.500 104.607 C 376.775 104.747,376.595 104.503,376.100 104.066 C 375.605 103.629,375.192 102.851,375.183 102.336 C 375.174 101.821,374.808 100.770,374.369 100.000 C 373.871 99.125,373.665 98.945,373.820 99.521 M25.300 100.998 C 25.025 101.311,24.800 101.844,24.800 102.183 C 24.800 102.522,24.575 102.803,24.300 102.806 C 23.926 102.811,23.934 102.897,24.334 103.150 C 24.764 103.423,24.746 103.535,24.240 103.729 C 23.896 103.861,23.711 104.223,23.829 104.532 C 23.961 104.875,23.723 105.179,23.223 105.310 C 22.770 105.428,22.400 105.812,22.400 106.163 C 22.400 106.513,22.220 106.800,22.000 106.800 C 21.780 106.800,21.600 107.160,21.600 107.600 C 21.600 108.040,21.409 108.400,21.176 108.400 C 20.943 108.400,20.855 108.565,20.980 108.768 C 21.105 108.970,20.980 109.375,20.701 109.668 C 20.423 109.960,19.772 111.100,19.254 112.200 C 18.736 113.300,18.152 114.513,17.956 114.895 C 17.760 115.277,17.600 115.862,17.600 116.195 C 17.600 116.528,17.420 116.800,17.200 116.800 C 16.980 116.800,16.800 117.160,16.800 117.600 C 16.800 118.040,16.620 118.400,16.400 118.400 C 16.180 118.400,16.000 118.760,16.000 119.200 C 16.000 119.640,15.809 120.000,15.576 120.000 C 15.343 120.000,15.248 120.153,15.364 120.341 C 15.480 120.529,15.316 121.024,15.000 121.441 C 14.684 121.858,14.420 122.605,14.413 123.100 C 14.406 123.595,14.220 124.000,14.000 124.000 C 13.780 124.000,13.600 124.279,13.600 124.619 C 13.600 124.960,13.240 125.984,12.800 126.894 C 12.360 127.805,11.997 129.191,11.994 129.975 C 11.989 131.042,11.890 131.249,11.600 130.800 C 11.232 130.231,10.975 130.977,11.153 132.100 C 11.179 132.265,11.026 132.400,10.814 132.400 C 10.601 132.400,10.308 133.300,10.162 134.400 C 10.016 135.500,9.740 136.400,9.548 136.400 C 9.357 136.400,9.200 136.925,9.200 137.567 C 9.200 138.208,8.975 138.824,8.700 138.935 C 8.300 139.096,8.300 139.143,8.700 139.168 C 9.433 139.215,9.311 139.914,8.399 140.893 C 7.785 141.553,7.715 141.834,8.099 142.106 C 8.500 142.390,8.500 142.502,8.100 142.664 C 7.825 142.775,7.600 143.122,7.600 143.433 C 7.600 143.745,7.420 144.000,7.200 144.000 C 6.980 144.000,6.800 144.630,6.800 145.400 C 6.800 146.170,6.620 146.800,6.400 146.800 C 6.180 146.800,6.000 147.415,6.000 148.167 C 6.000 148.918,5.775 149.624,5.500 149.735 C 5.100 149.896,5.100 149.943,5.500 149.968 C 5.775 149.986,5.997 150.315,5.994 150.700 C 5.989 151.298,5.931 151.313,5.600 150.800 C 5.305 150.343,5.211 150.505,5.206 151.476 C 5.203 152.178,5.020 152.864,4.800 153.000 C 4.580 153.136,4.400 154.047,4.400 155.024 C 4.400 156.001,4.220 156.800,4.000 156.800 C 3.780 156.800,3.600 157.520,3.600 158.400 C 3.600 159.280,3.420 160.000,3.200 160.000 C 2.980 160.000,2.800 160.975,2.800 162.167 C 2.800 163.509,2.610 164.422,2.300 164.567 C 1.900 164.753,1.900 164.847,2.300 165.033 C 2.575 165.162,2.800 165.532,2.800 165.857 C 2.800 166.182,2.620 166.336,2.400 166.200 C 2.019 165.965,1.829 167.666,1.974 170.000 C 2.023 170.800,1.953 170.880,1.624 170.400 C 1.321 169.959,1.211 170.452,1.206 172.267 C 1.202 173.880,1.027 174.791,0.700 174.900 C -0.032 175.144,-0.032 224.856,0.700 225.100 C 1.035 225.212,1.200 226.171,1.200 228.010 C 1.200 229.518,1.380 230.864,1.600 231.000 C 1.820 231.136,2.000 232.227,2.000 233.424 C 2.000 234.621,2.180 235.600,2.400 235.600 C 2.620 235.600,2.800 236.590,2.800 237.800 C 2.800 239.010,2.980 240.000,3.200 240.000 C 3.420 240.000,3.600 240.720,3.600 241.600 C 3.600 242.480,3.780 243.200,4.000 243.200 C 4.220 243.200,4.400 244.100,4.400 245.200 C 4.400 246.300,4.580 247.200,4.800 247.200 C 5.020 247.200,5.200 247.524,5.200 247.920 C 5.200 248.316,5.425 248.882,5.700 249.179 C 6.100 249.610,6.100 249.661,5.700 249.435 C 5.390 249.260,5.200 249.398,5.200 249.800 C 5.200 250.156,5.380 250.336,5.600 250.200 C 5.841 250.051,6.000 250.588,6.000 251.553 C 6.000 252.433,6.180 253.264,6.400 253.400 C 6.620 253.536,6.800 254.162,6.800 254.790 C 6.800 255.419,7.010 256.003,7.267 256.089 C 7.523 256.174,7.733 256.819,7.733 257.522 C 7.733 258.225,7.883 258.800,8.067 258.800 C 8.250 258.800,8.400 259.340,8.400 260.000 C 8.400 260.660,8.580 261.200,8.800 261.200 C 9.020 261.200,9.200 261.740,9.200 262.400 C 9.200 263.060,9.380 263.600,9.600 263.600 C 9.820 263.600,10.000 263.996,10.000 264.480 C 10.000 265.713,11.312 270.000,11.689 270.000 C 11.860 270.000,12.000 270.362,12.000 270.805 C 12.000 271.583,12.142 271.969,13.138 273.895 C 13.392 274.387,13.600 275.062,13.600 275.395 C 13.600 275.728,13.780 276.000,14.000 276.000 C 14.220 276.000,14.400 276.371,14.400 276.824 C 14.400 277.277,14.553 277.553,14.740 277.437 C 14.926 277.322,15.095 277.803,15.115 278.506 C 15.135 279.209,15.343 279.848,15.576 279.925 C 15.809 280.003,16.000 280.412,16.000 280.833 C 16.000 281.255,16.180 281.600,16.400 281.600 C 16.620 281.600,16.800 281.960,16.800 282.400 C 16.800 282.840,16.980 283.200,17.200 283.200 C 17.420 283.200,17.600 283.549,17.600 283.976 C 17.600 284.403,17.780 284.864,18.000 285.000 C 18.220 285.136,18.400 285.613,18.400 286.061 C 18.400 286.538,18.731 286.961,19.200 287.084 C 19.640 287.199,19.997 287.587,19.994 287.947 C 19.989 288.518,19.934 288.524,19.563 288.000 C 19.186 287.467,19.165 287.467,19.369 288.000 C 19.496 288.330,19.711 288.915,19.846 289.300 C 19.982 289.685,20.252 290.000,20.447 290.000 C 20.641 290.000,20.800 290.360,20.800 290.800 C 20.800 291.240,20.980 291.600,21.200 291.600 C 21.420 291.600,21.600 291.960,21.600 292.400 C 21.600 292.840,21.780 293.200,22.000 293.200 C 22.220 293.200,22.400 293.478,22.400 293.817 C 22.400 294.156,22.760 294.820,23.200 295.292 C 23.640 295.764,24.000 296.387,24.000 296.675 C 24.000 296.964,24.180 297.200,24.400 297.200 C 24.620 297.200,24.800 297.560,24.800 298.000 C 24.800 298.440,24.980 298.800,25.200 298.800 C 25.420 298.800,25.600 299.094,25.600 299.453 C 25.600 299.812,25.931 300.397,26.336 300.753 C 26.741 301.109,27.201 301.923,27.359 302.561 C 27.517 303.200,28.176 304.493,28.823 305.433 C 29.470 306.374,30.000 307.297,30.000 307.484 C 30.000 307.671,30.360 308.083,30.800 308.400 C 31.240 308.717,31.600 309.257,31.600 309.600 C 31.600 309.943,31.960 310.483,32.400 310.800 C 32.840 311.117,33.200 311.657,33.200 312.000 C 33.200 312.343,33.560 312.883,34.000 313.200 C 34.440 313.517,34.800 314.009,34.800 314.292 C 34.800 314.575,35.340 315.372,36.000 316.063 C 36.660 316.754,37.200 317.522,37.200 317.771 C 37.200 318.020,37.560 318.483,38.000 318.800 C 38.440 319.117,38.800 319.607,38.800 319.888 C 38.800 320.169,39.520 321.141,40.400 322.048 C 41.280 322.955,42.000 323.933,42.000 324.221 C 42.000 324.510,42.351 324.857,42.780 324.994 C 43.208 325.130,43.670 325.592,43.806 326.020 C 43.943 326.449,44.232 326.800,44.451 326.800 C 44.669 326.800,44.742 326.971,44.612 327.180 C 44.483 327.389,45.373 328.555,46.589 329.771 C 47.805 330.988,48.800 332.150,48.800 332.355 C 48.800 332.756,55.580 339.788,55.734 339.546 C 56.115 338.946,56.775 337.227,56.942 336.400 C 57.053 335.850,57.339 334.680,57.578 333.800 C 57.816 332.920,58.198 331.390,58.425 330.400 C 58.909 328.295,59.378 326.426,59.979 324.200 C 60.217 323.320,60.577 321.880,60.780 321.000 C 60.983 320.120,61.354 318.680,61.604 317.800 C 61.855 316.920,62.210 315.480,62.393 314.600 C 62.575 313.720,63.477 310.120,64.396 306.600 C 66.251 299.501,66.521 298.388,67.161 295.200 C 67.824 291.904,70.852 279.517,71.219 278.600 C 71.396 278.160,71.651 277.260,71.788 276.600 C 71.924 275.940,72.208 274.725,72.418 273.900 C 72.898 272.016,73.478 269.695,74.018 267.500 C 74.248 266.565,74.621 265.080,74.847 264.200 C 75.073 263.320,75.355 262.013,75.473 261.296 C 75.592 260.579,75.849 259.894,76.044 259.773 C 76.240 259.652,76.400 258.944,76.400 258.200 C 76.400 257.456,76.561 256.748,76.758 256.626 C 76.955 256.505,77.218 255.729,77.342 254.903 C 77.872 251.393,78.108 250.380,78.444 250.173 C 78.640 250.052,78.800 249.412,78.800 248.750 C 78.800 248.089,79.025 247.154,79.300 246.674 C 79.683 246.004,79.847 238.587,80.000 214.920 C 80.155 190.967,80.312 183.927,80.700 183.540 C 80.975 183.265,81.200 182.711,81.200 182.309 C 81.200 179.624,87.108 172.230,90.564 170.590 L 92.013 169.903 88.106 167.249 C 69.763 154.788,49.729 135.476,38.499 119.430 C 33.251 111.930,27.744 103.487,26.605 101.195 C 26.142 100.262,25.971 100.236,25.300 100.998 M225.595 114.033 C 225.043 114.237,224.344 114.807,224.043 115.302 C 223.531 116.141,223.566 116.134,224.579 115.200 L 225.663 114.200 242.132 113.987 L 258.600 113.775 242.600 113.719 C 233.632 113.688,226.158 113.826,225.595 114.033 M69.200 352.240 C 69.200 352.606,72.879 356.000,73.277 356.000 C 73.469 356.000,74.257 356.630,75.027 357.400 C 75.797 358.170,76.618 358.800,76.853 358.800 C 77.087 358.800,77.783 359.340,78.400 360.000 C 79.572 361.254,80.000 361.469,80.000 360.803 C 80.000 360.311,77.617 358.000,77.109 358.000 C 76.905 358.000,76.046 357.280,75.200 356.400 C 74.354 355.520,73.504 354.800,73.310 354.800 C 73.115 354.800,72.269 354.170,71.428 353.400 C 70.001 352.093,69.200 351.676,69.200 352.240 M328.572 353.400 C 327.731 354.170,326.893 354.800,326.708 354.800 C 326.228 354.800,323.600 357.494,323.600 357.987 C 323.600 358.744,324.299 358.413,325.255 357.204 C 325.775 356.546,326.396 356.006,326.636 356.004 C 327.096 356.000,330.800 352.651,330.800 352.240 C 330.800 351.676,329.999 352.093,328.572 353.400 M321.251 359.211 C 320.123 360.289,319.648 361.200,320.213 361.200 C 320.331 361.200,321.048 360.579,321.807 359.820 C 323.507 358.120,322.988 357.552,321.251 359.211 M81.600 362.357 C 81.600 362.554,81.885 362.824,82.233 362.957 C 83.211 363.333,83.308 363.251,82.657 362.600 C 81.977 361.920,81.600 361.833,81.600 362.357 M317.213 362.691 C 316.689 363.282,316.703 363.323,317.346 363.076 C 317.742 362.924,318.141 362.800,318.233 362.800 C 318.325 362.800,318.400 362.620,318.400 362.400 C 318.400 361.812,317.881 361.939,317.213 362.691 M84.000 363.904 C 84.000 364.071,84.360 364.432,84.800 364.707 C 85.730 365.288,85.854 364.997,85.029 364.171 C 84.398 363.541,84.000 363.437,84.000 363.904 M314.900 364.198 C 314.157 365.042,314.294 365.273,315.200 364.707 C 315.640 364.432,316.000 364.071,316.000 363.904 C 316.000 363.427,315.449 363.575,314.900 364.198 M86.400 365.429 C 86.400 365.853,87.636 366.897,87.867 366.667 C 87.992 366.541,87.817 366.160,87.476 365.819 C 86.841 365.184,86.400 365.024,86.400 365.429 M312.500 365.823 C 311.911 366.463,311.862 366.800,312.357 366.800 C 312.698 366.800,313.337 365.596,313.109 365.383 C 313.049 365.327,312.775 365.525,312.500 365.823 M88.800 367.029 C 88.800 367.453,90.036 368.497,90.267 368.267 C 90.392 368.141,90.217 367.760,89.876 367.419 C 89.241 366.784,88.800 366.624,88.800 367.029 M310.100 367.398 C 309.531 368.045,309.461 368.400,309.904 368.400 C 310.071 368.400,310.432 368.040,310.707 367.600 C 311.278 366.687,310.851 366.545,310.100 367.398 M91.200 368.629 C 91.200 369.053,92.436 370.097,92.667 369.867 C 92.792 369.741,92.617 369.360,92.276 369.019 C 91.641 368.384,91.200 368.224,91.200 368.629 M307.660 369.042 C 307.362 369.378,307.223 369.756,307.350 369.883 C 307.628 370.161,308.800 369.246,308.800 368.751 C 308.800 368.220,308.265 368.357,307.660 369.042 M305.600 370.400 C 305.600 370.620,305.870 370.800,306.200 370.800 C 306.530 370.800,306.800 370.620,306.800 370.400 C 306.800 370.180,306.530 370.000,306.200 370.000 C 305.870 370.000,305.600 370.180,305.600 370.400 M98.793 373.496 C 99.119 373.624,99.635 373.978,99.940 374.283 C 100.246 374.588,100.609 374.725,100.747 374.586 C 101.090 374.243,99.598 373.192,98.824 373.232 C 98.292 373.259,98.287 373.297,98.793 373.496 M294.800 376.400 C 294.800 376.620,294.440 376.800,294.000 376.800 C 293.560 376.800,293.200 376.980,293.200 377.200 C 293.200 377.420,292.930 377.600,292.600 377.600 C 292.270 377.600,292.000 377.780,292.000 378.000 C 292.000 378.220,292.270 378.400,292.600 378.400 C 292.930 378.400,293.200 378.220,293.200 378.000 C 293.200 377.780,293.483 377.600,293.829 377.600 C 294.435 377.600,295.600 376.698,295.600 376.229 C 295.600 376.103,295.420 376.000,295.200 376.000 C 294.980 376.000,294.800 376.180,294.800 376.400 M287.600 380.400 C 287.600 380.620,287.870 380.800,288.200 380.800 C 288.530 380.800,288.800 380.620,288.800 380.400 C 288.800 380.180,288.530 380.000,288.200 380.000 C 287.870 380.000,287.600 380.180,287.600 380.400 M112.800 381.200 C 112.800 381.420,113.149 381.600,113.576 381.600 C 114.003 381.600,114.464 381.780,114.600 382.000 C 114.736 382.220,115.107 382.400,115.424 382.400 C 115.741 382.400,116.000 382.220,116.000 382.000 C 116.000 381.780,115.640 381.600,115.200 381.600 C 114.760 381.600,114.400 381.420,114.400 381.200 C 114.400 380.980,114.040 380.800,113.600 380.800 C 113.160 380.800,112.800 380.980,112.800 381.200 M285.600 381.200 C 285.600 381.420,285.960 381.600,286.400 381.600 C 286.840 381.600,287.200 381.420,287.200 381.200 C 287.200 380.980,286.840 380.800,286.400 380.800 C 285.960 380.800,285.600 380.980,285.600 381.200 M278.800 384.400 C 278.800 384.620,279.070 384.800,279.400 384.800 C 279.730 384.800,280.000 384.620,280.000 384.400 C 280.000 384.180,279.730 384.000,279.400 384.000 C 279.070 384.000,278.800 384.180,278.800 384.400 M122.000 385.200 C 122.776 385.701,123.200 385.701,123.200 385.200 C 123.200 384.980,122.795 384.803,122.300 384.806 C 121.572 384.811,121.515 384.886,122.000 385.200 M276.800 385.200 C 276.800 385.420,277.059 385.600,277.376 385.600 C 277.693 385.600,278.064 385.420,278.200 385.200 C 278.336 384.980,278.077 384.800,277.624 384.800 C 277.171 384.800,276.800 384.980,276.800 385.200 M130.000 388.400 C 130.000 388.620,130.270 388.800,130.600 388.800 C 130.930 388.800,131.200 388.620,131.200 388.400 C 131.200 388.180,130.930 388.000,130.600 388.000 C 130.270 388.000,130.000 388.180,130.000 388.400 M132.000 389.200 C 132.776 389.701,133.200 389.701,133.200 389.200 C 133.200 388.980,132.795 388.803,132.300 388.806 C 131.572 388.811,131.515 388.886,132.000 389.200 M266.800 389.200 C 266.800 389.701,267.224 389.701,268.000 389.200 C 268.485 388.886,268.428 388.811,267.700 388.806 C 267.205 388.803,266.800 388.980,266.800 389.200 M264.400 390.000 C 264.400 390.501,264.824 390.501,265.600 390.000 C 266.085 389.686,266.028 389.611,265.300 389.606 C 264.805 389.603,264.400 389.780,264.400 390.000 M139.200 391.200 C 138.715 391.514,138.772 391.589,139.500 391.594 C 139.995 391.597,140.400 391.420,140.400 391.200 C 140.400 390.699,139.976 390.699,139.200 391.200 M141.200 392.000 C 141.200 392.220,141.650 392.400,142.200 392.400 C 142.750 392.400,143.200 392.220,143.200 392.000 C 143.200 391.780,142.750 391.600,142.200 391.600 C 141.650 391.600,141.200 391.780,141.200 392.000 M257.200 392.000 C 257.200 392.220,257.560 392.400,258.000 392.400 C 258.440 392.400,258.800 392.220,258.800 392.000 C 258.800 391.780,258.440 391.600,258.000 391.600 C 257.560 391.600,257.200 391.780,257.200 392.000 M147.200 393.600 C 147.200 393.820,147.470 394.000,147.800 394.000 C 148.130 394.000,148.400 393.820,148.400 393.600 C 148.400 393.380,148.130 393.200,147.800 393.200 C 147.470 393.200,147.200 393.380,147.200 393.600 M251.600 393.600 C 251.600 393.820,251.859 394.000,252.176 394.000 C 252.493 394.000,252.864 393.820,253.000 393.600 C 253.136 393.380,252.877 393.200,252.424 393.200 C 251.971 393.200,251.600 393.380,251.600 393.600 M149.600 394.400 C 149.600 394.620,150.050 394.800,150.600 394.800 C 151.150 394.800,151.600 394.620,151.600 394.400 C 151.600 394.180,151.150 394.000,150.600 394.000 C 150.050 394.000,149.600 394.180,149.600 394.400 M248.400 394.400 C 248.400 394.620,248.850 394.800,249.400 394.800 C 249.950 394.800,250.400 394.620,250.400 394.400 C 250.400 394.180,249.950 394.000,249.400 394.000 C 248.850 394.000,248.400 394.180,248.400 394.400 M153.000 395.200 C 153.136 395.420,153.597 395.600,154.024 395.600 C 154.451 395.600,154.800 395.420,154.800 395.200 C 154.800 394.980,154.339 394.800,153.776 394.800 C 153.196 394.800,152.860 394.973,153.000 395.200 M156.800 396.000 C 156.800 396.220,157.160 396.400,157.600 396.400 C 158.040 396.400,158.400 396.220,158.400 396.000 C 158.400 395.780,158.040 395.600,157.600 395.600 C 157.160 395.600,156.800 395.780,156.800 396.000 M241.600 396.000 C 241.600 396.220,241.960 396.400,242.400 396.400 C 242.840 396.400,243.200 396.220,243.200 396.000 C 243.200 395.780,242.840 395.600,242.400 395.600 C 241.960 395.600,241.600 395.780,241.600 396.000 M160.000 396.800 C 160.000 397.020,160.461 397.200,161.024 397.200 C 161.604 397.200,161.940 397.027,161.800 396.800 C 161.664 396.580,161.203 396.400,160.776 396.400 C 160.349 396.400,160.000 396.580,160.000 396.800 M238.400 396.800 C 238.400 397.020,238.760 397.200,239.200 397.200 C 239.640 397.200,240.000 397.020,240.000 396.800 C 240.000 396.580,239.640 396.400,239.200 396.400 C 238.760 396.400,238.400 396.580,238.400 396.800 M164.400 397.600 C 164.400 397.820,164.940 398.000,165.600 398.000 C 166.260 398.000,166.800 397.820,166.800 397.600 C 166.800 397.380,166.260 397.200,165.600 397.200 C 164.940 397.200,164.400 397.380,164.400 397.600 M233.200 397.600 C 233.200 397.820,233.740 398.000,234.400 398.000 C 235.060 398.000,235.600 397.820,235.600 397.600 C 235.600 397.380,235.060 397.200,234.400 397.200 C 233.740 397.200,233.200 397.380,233.200 397.600 M169.000 398.400 C 169.136 398.620,169.676 398.800,170.200 398.800 C 170.724 398.800,171.264 398.620,171.400 398.400 C 171.547 398.161,171.063 398.000,170.200 398.000 C 169.337 398.000,168.853 398.161,169.000 398.400 M228.800 398.427 C 228.800 398.893,230.677 398.922,230.963 398.460 C 231.078 398.274,230.639 398.106,229.986 398.087 C 229.334 398.069,228.800 398.221,228.800 398.427 M174.800 399.200 C 174.800 399.420,175.520 399.600,176.400 399.600 C 177.280 399.600,178.000 399.420,178.000 399.200 C 178.000 398.980,177.280 398.800,176.400 398.800 C 175.520 398.800,174.800 398.980,174.800 399.200 M222.000 399.200 C 222.000 399.420,222.720 399.600,223.600 399.600 C 224.480 399.600,225.200 399.420,225.200 399.200 C 225.200 398.980,224.480 398.800,223.600 398.800 C 222.720 398.800,222.000 398.980,222.000 399.200 M183.500 399.889 C 184.215 399.978,185.385 399.978,186.100 399.889 C 186.815 399.801,186.230 399.728,184.800 399.728 C 183.370 399.728,182.785 399.801,183.500 399.889 M213.891 399.889 C 214.601 399.977,215.861 399.979,216.691 399.892 C 217.521 399.805,216.940 399.733,215.400 399.731 C 213.860 399.729,213.181 399.800,213.891 399.889 " stroke="none" fill="#fbc812" fill-rule="evenodd"></path></g></svg>